<svg xmlns="http://www.w3.org/2000/svg" width="1920" height="1080" viewBox="0 0 1920 1080">
  <defs>
    <style>
      .cls-1 {
        fill: #6cd5d6;
      }

      .cls-2 {
        fill: #ed1823;
      }

      .cls-3 {
        fill: #1313e2;
      }

      .cls-11, .cls-3 {
        stroke: #000;
        stroke-miterlimit: 10;
      }

      .cls-4 {
        fill: #fff;
      }

      .cls-5 {
        fill: #926130;
      }

      .cls-6 {
        fill: #d10023;
      }

      .cls-7 {
        fill: #663606;
      }

      .cls-8 {
        fill: #42210b;
      }

      .cls-11, .cls-9 {
        fill: none;
      }

      .cls-10 {
        fill: #00b936;
      }

      .cls-12 {
        fill: #a90000;
      }

      .cls-13 {
        fill: #f47c7d;
      }

      .cls-14 {
        fill: #8c1d39;
        opacity: 0.34;
      }

      .cls-15 {
        fill: #ff80f5;
      }

      .cls-16 {
        fill: #754c24;
      }

      .cls-17 {
        fill: #0c7923;
      }

      .cls-18 {
        fill: #22b573;
      }

      .cls-19 {
        fill: #603813;
      }
    </style>
  </defs>
  <g id="Layer_1" data-name="Layer 1">
    <path class="cls-1" d="M1921,1080H0V.17H1921Z"/>
    <g>
      <path class="cls-2" d="M687.38,428c2,.31,3.89,2.29,5.52,5.92a70.76,70.76,0,0,1,4.26,14.17A171.81,171.81,0,0,1,700,467.7q1,10.92,1,22.07a207.3,207.3,0,0,1-1.12,22A100.07,100.07,0,0,1,696.39,530q-2.31,7.66-6.08,11.61a7.8,7.8,0,0,1-8.94,2.09q-5.16-1.86-8.38-7.78a48.06,48.06,0,0,1-4.75-14.29q-2.65,2.32-5.52,4.53a11.2,11.2,0,0,1-6.21,2.44,20.81,20.81,0,0,1-16-5.81q-6.63-6.27-10.83-16.84a102.56,102.56,0,0,1-6-24.5,190.84,190.84,0,0,1-1.54-28.58q.55-23.46,5.17-40.07t11.52-27.06q6.92-10.45,15.16-15.33t15.79-4.88a23.12,23.12,0,0,1,9.22,1.86,21.29,21.29,0,0,1,7.54,5.46,27.06,27.06,0,0,1,5.1,8.71,32.61,32.61,0,0,1,1.89,11.38,50.91,50.91,0,0,1-2,13.24,74.53,74.53,0,0,1-6.36,15.45,116.68,116.68,0,0,1-11.45,17.19,169.59,169.59,0,0,1-17.25,18.47,47.23,47.23,0,0,1,7.82-.7,36,36,0,0,1,7.4.7,96,96,0,0,1,7.06-20.79q4.11-8.25,8.59-8.25Zm-53.09,21.36a104.28,104.28,0,0,1,2.59-22.95,92.42,92.42,0,0,1,7.19-20.85A52,52,0,0,1,654.9,390.4q6.21-5.83,13.34-5.83a15.36,15.36,0,0,1,2.58.23,19.58,19.58,0,0,1,2.73.7,1.87,1.87,0,0,0,2.3-.81,7.14,7.14,0,0,0,1.19-3,7.39,7.39,0,0,0-.21-3.38,2.91,2.91,0,0,0-1.88-2.1q-1.68-.46-3.36-.81a15.91,15.91,0,0,0-3.21-.35q-8.39,0-15.72,6.52a58.1,58.1,0,0,0-12.78,17.13,104.77,104.77,0,0,0-8.59,24,117.17,117.17,0,0,0-3.14,26.91,5.59,5.59,0,0,0,.9,3.61,2.49,2.49,0,0,0,4.06,0,5.59,5.59,0,0,0,.9-3.61Zm-3.21,20.45a2.12,2.12,0,0,0,2-1.51,8.51,8.51,0,0,0,.62-3.25,7.74,7.74,0,0,0-.69-3.25,2.25,2.25,0,0,0-2.1-1.51,2.12,2.12,0,0,0-2,1.51,8.55,8.55,0,0,0-.62,3.25,7.7,7.7,0,0,0,.69,3.25A2.25,2.25,0,0,0,631.08,469.79Z"/>
      <path class="cls-2" d="M762.26,469.56q.84,9.75.84,19.05,0,18.34-3.36,27.52t-12.15,9.18a5,5,0,0,1-4-1.51,8.9,8.9,0,0,1-1.89-3.37,19.1,19.1,0,0,1-.56-4.88,47.09,47.09,0,0,1-10.89,6.62,23.8,23.8,0,0,1-8.8,2,13.17,13.17,0,0,1-7.69-2.21,17.13,17.13,0,0,1-5.31-6,30.53,30.53,0,0,1-3.07-8.83,53.7,53.7,0,0,1-1-10.33,63.59,63.59,0,0,1,1.4-13.13,45.86,45.86,0,0,1,4.12-11.84,29.86,29.86,0,0,1,6.5-8.6,12.64,12.64,0,0,1,8.66-3.37,15.74,15.74,0,0,1,7,1.86,31.91,31.91,0,0,1,7.9,6,29.66,29.66,0,0,0-2.17-10.45,14.72,14.72,0,0,0-4.19-5.58,16.19,16.19,0,0,0-5.31-2.67q-2.86-.81-5.38-1.74a19,19,0,0,1-4.47-2.32q-1.95-1.4-2.51-4.88a18.47,18.47,0,0,1,.28-7.9,16.72,16.72,0,0,1,3.28-6.5,15.81,15.81,0,0,1,5.52-4.3,16.15,16.15,0,0,1,7-1.51,20.06,20.06,0,0,1,9.43,2.55,27.34,27.34,0,0,1,9.08,8.48A57.63,57.63,0,0,1,758,446.21a100,100,0,0,1,4.26,23.12Zm-36.6,4.88a1.79,1.79,0,0,0,1.67-1.16,6.17,6.17,0,0,0,.56-2.68,6.9,6.9,0,0,0-.56-2.78,1.8,1.8,0,0,0-1.67-1.28,8.07,8.07,0,0,0-5.73,1.74,19.43,19.43,0,0,0-4.54,5.34,34.11,34.11,0,0,0-3.35,7.79,52.81,52.81,0,0,0-1.89,9.06,5.18,5.18,0,0,0,.35,3.13,3.11,3.11,0,0,0,1.47,1.63,1.68,1.68,0,0,0,1.67-.23,3.51,3.51,0,0,0,1.12-2.44,48,48,0,0,1,1.33-6.86,29.74,29.74,0,0,1,2.23-5.92,11.31,11.31,0,0,1,3.22-3.95,6,6,0,0,1,4.26-1.16Zm8,0a1.82,1.82,0,0,0,1.68-1.28,6.76,6.76,0,0,0,0-5.34,1.82,1.82,0,0,0-1.68-1.28,1.93,1.93,0,0,0-1.75,1.28,6,6,0,0,0,0,5.34A1.93,1.93,0,0,0,733.62,474.44Z"/>
      <path class="cls-2" d="M858.51,429.84a109.42,109.42,0,0,1,5.17,21.83,173.63,173.63,0,0,1,1.68,23.93,152.23,152.23,0,0,1-1.05,18.23,100,100,0,0,1-2.94,15.34,37.63,37.63,0,0,1-4.61,10.68c-1.81,2.71-3.89,4.15-6.21,4.3s-4.43-1.16-6.29-3.95a43.27,43.27,0,0,1-4.89-10.69,122.78,122.78,0,0,1-3.63-14.4c-1-5.26-1.86-10.34-2.52-15.21s-1.14-9.14-1.46-12.78-.54-6.08-.63-7.32v0c.09,1.09.18,3,.28,5.69s.14,6,.14,9.88q0,7.2-.56,15.68A109.3,109.3,0,0,1,828.82,507a42.63,42.63,0,0,1-4.68,12.66q-3.07,5.22-8.1,5.92a9,9,0,0,1-8.24-2.67,24.31,24.31,0,0,1-5.17-9.06,67.1,67.1,0,0,1-2.93-13c-.66-4.88-1.12-9.71-1.4-14.52s-.44-9.32-.49-13.58-.16-7.71-.35-10.34c-.09,1.86-.12,4.18-.07,7s.07,5.8.07,9.06q0,7.67-.42,16.14a91.61,91.61,0,0,1-2.09,15.8,36.33,36.33,0,0,1-5,12.19,10.77,10.77,0,0,1-8.87,5.11q-3.92.24-6.64-4.41A43.62,43.62,0,0,1,770,510.91a121.06,121.06,0,0,1-2.51-17.42q-.78-9.76-.77-20.21,0-9.76.63-19.17T769.24,437a80.3,80.3,0,0,1,3-12.78q1.74-5.1,4-6.27a9.63,9.63,0,0,1,4-1.16,6.82,6.82,0,0,1,5.59,2.9,29,29,0,0,1,3.63,6.16,63,63,0,0,1,2.65,8.83,84.23,84.23,0,0,1,6.15-9.3,44.08,44.08,0,0,1,6.29-6.38,11.22,11.22,0,0,1,7.26-2.91q3.21,0,6.36,3t5.93,10.69a65.62,65.62,0,0,1,6.29-7.67,43.86,43.86,0,0,1,6.36-5.22,13,13,0,0,1,7.47-2.44q3.78,0,7.47,3.37T858.51,429.84Zm-76.7.23a4.68,4.68,0,0,0,.7-2.9,5.94,5.94,0,0,0-.77-2.56,2.56,2.56,0,0,0-1.53-1.28c-.61-.15-1.19.24-1.75,1.17a36.79,36.79,0,0,0-3.91,8.36,62.55,62.55,0,0,0-2.37,9.75c-.56,3.41-1,6.94-1.19,10.57s-.35,7.32-.35,11c0,2.63,0,5.3.14,8s.18,5.31.28,7.78a4.79,4.79,0,0,0,.77,2.91,2.13,2.13,0,0,0,1.67,1,2,2,0,0,0,1.61-1,5.26,5.26,0,0,0,.7-2.91q-.28-3.94-.42-8.13c-.1-2.78-.14-5.65-.14-8.59a130.76,130.76,0,0,1,1.26-18.24A35.31,35.31,0,0,1,781.81,430.07Zm-7,63.88a1.81,1.81,0,0,0,1.68-1.28,6.76,6.76,0,0,0,0-5.34,1.82,1.82,0,0,0-1.68-1.28,1.93,1.93,0,0,0-1.75,1.28,6,6,0,0,0,0,5.34A1.92,1.92,0,0,0,774.83,494Z"/>
      <path class="cls-2" d="M927.8,456.32q.56,7.9-2.23,12.66a19.87,19.87,0,0,1-7.27,7.32,28.1,28.1,0,0,1-9.71,3.36,61.07,61.07,0,0,1-9.43.82h-3.28a13.26,13.26,0,0,1-2.59-.23,9.41,9.41,0,0,1-2.23-.24c1.4,5.58,3.23,9.22,5.52,10.92a11.81,11.81,0,0,0,7.19,2.56,24.68,24.68,0,0,0,5.8-.7,22.53,22.53,0,0,1,5.38-.7,7.31,7.31,0,0,1,4.33,1.4,8.23,8.23,0,0,1,2.23,4.29,27.47,27.47,0,0,1,.84,7.09,31.87,31.87,0,0,1-1,7.66,21.53,21.53,0,0,1-3.35,7.32,17.7,17.7,0,0,1-6.29,5.46A20.57,20.57,0,0,1,902,527.4a31.31,31.31,0,0,1-3.71-.23c-1.25-.15-2.58-.39-4-.7A22.14,22.14,0,0,1,883,520.32a39.35,39.35,0,0,1-7.9-11.74,66.55,66.55,0,0,1-4.68-15.44A100.17,100.17,0,0,1,873,447q4.19-13.71,12.29-21.14a33.94,33.94,0,0,1,9.36-6.62,21,21,0,0,1,8.52-2,15.83,15.83,0,0,1,9.5,3.14,28.33,28.33,0,0,1,7.55,8.48,49.59,49.59,0,0,1,5.17,12.54,79.17,79.17,0,0,1,2.51,15.33Zm-31.71-26a3.39,3.39,0,0,0,1.47-2.2,8,8,0,0,0,.14-2.91,4.66,4.66,0,0,0-1-2.32,1.3,1.3,0,0,0-1.89-.23,27.51,27.51,0,0,0-8.94,7.78,53.28,53.28,0,0,0-6.91,12,72.69,72.69,0,0,0-4.41,14.87A82.44,82.44,0,0,0,873.18,474a4.79,4.79,0,0,0,.77,2.91,2.13,2.13,0,0,0,1.67,1,2,2,0,0,0,1.61-1,5.26,5.26,0,0,0,.7-2.91,69.49,69.49,0,0,1,1.12-14.05,62.74,62.74,0,0,1,3.63-12.66,42.92,42.92,0,0,1,5.8-10.22,22.4,22.4,0,0,1,7.61-6.51Zm6-7.66a1.92,1.92,0,0,0-1.75,1.27,6,6,0,0,0-.63,2.68,6,6,0,0,0,.63,2.67,1.92,1.92,0,0,0,1.75,1.27,1.79,1.79,0,0,0,1.67-1.27,6.62,6.62,0,0,0,.56-2.67,6.71,6.71,0,0,0-.56-2.68A1.79,1.79,0,0,0,902.1,422.64Z"/>
      <path class="cls-2" d="M1003.94,415.44a18.85,18.85,0,0,1,11.87,4.41,38.51,38.51,0,0,1,9.71,12,72.43,72.43,0,0,1,6.56,17.77,97,97,0,0,1,0,43.33,70.33,70.33,0,0,1-6.56,17.53,38.83,38.83,0,0,1-9.71,11.85,18.19,18.19,0,0,1-23.75,0,39.58,39.58,0,0,1-9.78-11.85,66.63,66.63,0,0,1-6.56-17.53,99.8,99.8,0,0,1,0-43.33,68.58,68.58,0,0,1,6.56-17.77,39.23,39.23,0,0,1,9.78-12A18.84,18.84,0,0,1,1003.94,415.44ZM1000,430.07a2.06,2.06,0,0,0,1.54-1.63,6.25,6.25,0,0,0,.21-2.78,5.4,5.4,0,0,0-1-2.44,1.77,1.77,0,0,0-1.88-.82,16.7,16.7,0,0,0-8.74,5.58,39.18,39.18,0,0,0-6.49,10.8,65.29,65.29,0,0,0-4,14.17,91.26,91.26,0,0,0-1.33,15.45c0,1.24,0,2.44.07,3.6s.12,2.36.21,3.6a3.52,3.52,0,0,0,1,2.55,1.53,1.53,0,0,0,1.67.35,3.12,3.12,0,0,0,1.47-1.62,6,6,0,0,0,.49-3.14,63.35,63.35,0,0,1,.21-14.28A61.45,61.45,0,0,1,986.61,446a36.94,36.94,0,0,1,5.66-10.45,14.92,14.92,0,0,1,7.89-5.46Zm-16.2,60.63a1.82,1.82,0,0,0,1.68-1.28,6.76,6.76,0,0,0,0-5.34,1.82,1.82,0,0,0-1.68-1.28,1.93,1.93,0,0,0-1.75,1.28,6,6,0,0,0,0,5.34A1.93,1.93,0,0,0,983.82,490.7Z"/>
      <path class="cls-2" d="M1096.28,418.92c1.76,2.94,2.65,7.75,2.65,14.4a117.11,117.11,0,0,1-1.54,17.66q-1.53,10-4.12,20.32t-6.07,20.21a160.24,160.24,0,0,1-7.41,17.77,60.48,60.48,0,0,1-8,12.66q-4.12,4.77-8,5-4.9.22-9.5-7.55a89,89,0,0,1-8.18-19.63,191.41,191.41,0,0,1-5.72-25.9,171.54,171.54,0,0,1-2.17-26.14,73.62,73.62,0,0,1,2.1-18.93q2.09-7.77,7-9.64a7.44,7.44,0,0,1,6.57.23,13,13,0,0,1,4.75,5.35,37.06,37.06,0,0,1,3.14,8.82,94.1,94.1,0,0,1,1.82,10.69q.63,5.58.83,11.15c.15,3.72.21,7.05.21,10,0,1.55,0,2.94-.06,4.18s-.08,2.25-.08,3c-.09,1.08-.13,2-.13,2.79q4.88-16.72,9.91-29.74,2.1-5.56,4.4-10.91a89,89,0,0,1,4.75-9.53,41.16,41.16,0,0,1,4.75-6.73q2.31-2.56,4.4-2.56t3.78,2.79Zm-41.49,19.28c.46.93,1,1.36,1.6,1.28a2.16,2.16,0,0,0,1.54-1.16,6.28,6.28,0,0,0,.77-2.67,5.61,5.61,0,0,0-.56-3,34,34,0,0,0-3.77-6.16c-1.49-1.93-3.17-2.52-5-1.74a7.15,7.15,0,0,0-3.29,4.53,52.53,52.53,0,0,0-1.6,6.62,129.71,129.71,0,0,0-1.26,18.35,152.48,152.48,0,0,0,1.12,18.35,3.12,3.12,0,0,0,1,2.44,1.77,1.77,0,0,0,1.74.23,2.76,2.76,0,0,0,1.47-1.63,6.59,6.59,0,0,0,.42-3.13,132.48,132.48,0,0,1-.84-15.33c0-1.7,0-3.41.07-5.11s.12-3.41.21-5.11c0-.62,0-1.51.07-2.67s.14-2.36.28-3.6a28.5,28.5,0,0,1,.56-3.37,5.43,5.43,0,0,1,.91-2.21q1.24-1.39,2.58,1.05c.88,1.62,1.56,2.9,2,3.83Zm-3.92,43.21a6.07,6.07,0,0,0-.69-2.91c-.47-.85-1-1.27-1.68-1.27a2,2,0,0,0-1.68,1,5.25,5.25,0,0,0-.7,2.9v1.17a6,6,0,0,0,.7,2.9c.47.85,1,1.28,1.68,1.28a2,2,0,0,0,1.68-1,5.23,5.23,0,0,0,.69-2.9Z"/>
      <path class="cls-2" d="M1156.49,456.32q.55,7.9-2.24,12.66a19.77,19.77,0,0,1-7.26,7.32,28.1,28.1,0,0,1-9.71,3.36,61.17,61.17,0,0,1-9.43.82h-3.28a13.26,13.26,0,0,1-2.59-.23,9.35,9.35,0,0,1-2.23-.24q2.09,8.37,5.52,10.92a11.81,11.81,0,0,0,7.19,2.56,24.68,24.68,0,0,0,5.8-.7,22.53,22.53,0,0,1,5.38-.7,7.31,7.31,0,0,1,4.33,1.4,8.3,8.3,0,0,1,2.23,4.29,27.47,27.47,0,0,1,.84,7.09,31.87,31.87,0,0,1-1,7.66,21.53,21.53,0,0,1-3.35,7.32,17.79,17.79,0,0,1-6.29,5.46,20.61,20.61,0,0,1-9.78,2.09,31.27,31.27,0,0,1-3.7-.23c-1.26-.15-2.58-.39-4-.7a22.21,22.21,0,0,1-11.32-6.15,39.51,39.51,0,0,1-7.89-11.74,66.55,66.55,0,0,1-4.68-15.44,100.17,100.17,0,0,1,2.66-46.11q4.18-13.71,12.29-21.14a33.94,33.94,0,0,1,9.36-6.62,21,21,0,0,1,8.52-2,15.85,15.85,0,0,1,9.5,3.14,28.17,28.17,0,0,1,7.54,8.48,48.87,48.87,0,0,1,5.17,12.54,79.16,79.16,0,0,1,2.52,15.33Zm-31.71-26a3.34,3.34,0,0,0,1.46-2.2,7.8,7.8,0,0,0,.14-2.91,4.65,4.65,0,0,0-1-2.32,1.3,1.3,0,0,0-1.89-.23,27.51,27.51,0,0,0-8.94,7.78,53.69,53.69,0,0,0-6.92,12,72.69,72.69,0,0,0-4.4,14.87,82.44,82.44,0,0,0-1.39,16.72,4.86,4.86,0,0,0,.76,2.91,2.14,2.14,0,0,0,1.68,1,2,2,0,0,0,1.61-1,5.26,5.26,0,0,0,.7-2.91,70.22,70.22,0,0,1,1.11-14.05,63.4,63.4,0,0,1,3.64-12.66,43.25,43.25,0,0,1,5.79-10.22,22.43,22.43,0,0,1,7.62-6.51Zm6-7.66a1.92,1.92,0,0,0-1.74,1.27,6,6,0,0,0-.63,2.68,6,6,0,0,0,.63,2.67,1.92,1.92,0,0,0,1.74,1.27,1.79,1.79,0,0,0,1.68-1.27,6.62,6.62,0,0,0,.56-2.67,6.71,6.71,0,0,0-.56-2.68A1.79,1.79,0,0,0,1130.78,422.64Z"/>
      <path class="cls-2" d="M1181.5,430.53a32.74,32.74,0,0,1,8.1-5.69,16.77,16.77,0,0,1,7-1.74,12,12,0,0,1,7.69,2.67,22.47,22.47,0,0,1,5.65,6.86,35.72,35.72,0,0,1,3.5,9.52,49.16,49.16,0,0,1,1.18,10.68,34.16,34.16,0,0,1-2.93,14.64,13.79,13.79,0,0,1-4.4,5.81,9.1,9.1,0,0,1-5.1,1.62,12.31,12.31,0,0,1-6-1.62,30.59,30.59,0,0,1-5.3-3.72,54.18,54.18,0,0,1-5.31-5.58c.09,1.4.18,2.95.28,4.65s.16,3.29.21,5.23.07,4.06.07,6.39q0,6.74-.49,14.51a94.82,94.82,0,0,1-2,14.64,43.93,43.93,0,0,1-4.33,11.84q-2.79,5-7.26,5.93c-2.15.46-4-.5-5.45-2.91a31.83,31.83,0,0,1-3.63-10,106.67,106.67,0,0,1-2-15q-.63-8.58-.63-18.12,0-10.44.63-20.79t1.75-18.93a120.16,120.16,0,0,1,2.58-14.28c1-3.8,2-6,3.14-6.62q3.08-1.86,5.52-.58a11.73,11.73,0,0,1,4.12,3.6,23.19,23.19,0,0,1,3.36,6.73Zm-8,2.1a4.71,4.71,0,0,0,.7-2.91,5.89,5.89,0,0,0-.77-2.55,2.55,2.55,0,0,0-1.53-1.28c-.61-.15-1.19.23-1.75,1.16a50.58,50.58,0,0,0-5.59,19.63q-1,11-1,22.18v8.37a4.83,4.83,0,0,0,.77,2.9,1.76,1.76,0,0,0,3.21,0,4.76,4.76,0,0,0,.77-2.9V466.31q0-9.06.84-18a40.77,40.77,0,0,1,4.47-15.68Zm-5.45,61.79a1.8,1.8,0,0,0,1.68-1.28,6.62,6.62,0,0,0,.56-2.67,6.71,6.71,0,0,0-.56-2.68,1.81,1.81,0,0,0-1.68-1.27,1.94,1.94,0,0,0-1.74,1.27,6,6,0,0,0-.63,2.68,6,6,0,0,0,.63,2.67A1.93,1.93,0,0,0,1168.08,494.42Z"/>
    </g>
    <path class="cls-3" d="M168.15,280.46l-4.51,8.73c-8.74,16.95-8.32,16.21-9.35,18.12-4.88,9.06-6.13,10.54-9.53,17.68a70.83,70.83,0,0,0-4,9.18,44,44,0,0,0,0,24.61c.88,2.81,2.87,9,7.8,13.2,1.1.95,3.41,2.7,8.84,4,8.08,2,14.35,3.52,21-.67,9.06-5.74,11.95-17.92,12.47-20.14a48.3,48.3,0,0,0-.69-23.49c-1.34-5.16-1.87-3.77-7.28-17-2.18-5.35-4.46-10.95-6.93-18.35-.92-2.78-2.32-7.15-4.67-13.2-.85-2.19-1.59-4-2.08-5.15"/>
    <path class="cls-4" d="M737.68,256.42h0A59.89,59.89,0,0,0,759,272.28a66.14,66.14,0,0,0,21.29,5.29c7.33.59,23.06,1.85,35.47-6.61,8.32-5.67,12-13.54,25.54-22.48a17,17,0,0,1,5.68-2.64c8.52-2,13.5,4.52,22.71,6.61,10.22,2.32,19.52-2.25,28.38-6.61a63.14,63.14,0,0,0,21.28-17.18c3.73-4.74,5.7-8.77,8.52-14.55,4-8.29,6.43-13.17,7.09-19.82.23-2.24.05-2.63-2.84-19.83-2.16-12.93-2.6-15.9-4.25-21.15-1.61-5.1-2.8-8.78-5.68-13.22a47.37,47.37,0,0,0-11.35-11.9,48.29,48.29,0,0,0-17-9.25c-7.82-2.24-9.18-.17-12.77-2.65-3.15-2.17-2.82-4.26-8.52-17.18-.49-1.12-1.74-3.83-4.25-9.26-4.62-10-5.23-11.1-5.68-11.89a59.42,59.42,0,0,0-8.51-11.9c-2.68-2.84-5.67-5.31-14.19-10.58-11-6.76-16.42-10.14-21.29-11.89-11.44-4.13-21.49-3.45-31.22-2.65-14.16,1.18-37.53,3.11-53.92,18.51-15.27,14.34-11.74,28.37-25.55,33.05-8.51,2.88-11.69-1.84-28.38-2.65-7.7-.37-26.26-1.27-42.57,7.93-14.83,8.38-23.36,22.61-31.22,35.7l-7.09,11.89h0c-5.22-1.18-22.73-4.5-41.15,4-27.25,12.52-32.21,39.67-32.64,42.3-.21,1.25-4.5,30.68,18.45,50.24,2.8,2.39,20.39,16.88,41.15,14.54,11.75-1.33,19.06-7.44,29.8-4,7.06,2.28,10.84,7.17,12.77,9.25,7.67,8.28,26.08,15.39,73.79,9.26"/>
    <path class="cls-4" d="M204.7,214.79h0a42.49,42.49,0,0,0,15,12,43.71,43.71,0,0,0,15,4c5.16.45,16.25,1.4,25-5,5.86-4.29,8.42-10.23,18-17a11.71,11.71,0,0,1,4-2c6-1.53,9.51,3.43,16,5,7.2,1.76,13.75-1.7,20-5a45,45,0,0,0,15-13,56.33,56.33,0,0,0,6-11c2.85-6.27,4.53-10,5-15,.15-1.69,0-2-2-15-1.53-9.77-1.84-12-3-16a38.68,38.68,0,0,0-4-10,35,35,0,0,0-8-9,33.67,33.67,0,0,0-12-7c-5.52-1.69-6.47-.12-9-2-2.22-1.64-2-3.22-6-13-.35-.84-1.23-2.89-3-7-3.26-7.55-3.69-8.39-4-9a45.84,45.84,0,0,0-6-9c-1.89-2.14-4-4-10-8-7.72-5.11-11.57-7.67-15-9-8.06-3.12-15.15-2.61-22-2-10,.89-26.45,2.36-38,14-10.77,10.85-8.28,21.47-18,25-6,2.19-8.25-1.39-20-2-5.43-.28-18.51-1-30,6-10.45,6.34-16.47,17.1-22,27l-5,9h0a43.38,43.38,0,0,0-29,3c-19.2,9.48-22.7,30-23,32-.15,1-3.17,23.21,13,38,2,1.81,14.37,12.78,29,11,8.28-1,13.43-5.62,21-3,5,1.73,7.63,5.43,9,7,5.4,6.27,18.37,11.64,52,7"/>
    <path class="cls-4" d="M1629.58,272h0a67.1,67.1,0,0,0,23.67,18.4,71,71,0,0,0,23.67,6.13c8.15.68,25.64,2.15,39.45-7.67,9.25-6.58,13.3-15.7,28.4-26.06a18.27,18.27,0,0,1,6.32-3.07c9.47-2.35,15,5.25,25.25,7.67,11.36,2.68,21.71-2.62,31.56-7.67a71,71,0,0,0,23.67-19.93c4.14-5.5,6.33-10.17,9.46-16.87,4.51-9.62,7.16-15.28,7.89-23,.25-2.6.06-3-3.15-23-2.41-15-2.9-18.44-4.74-24.53-1.78-5.91-3.1-10.18-6.31-15.33a53.77,53.77,0,0,0-12.62-13.8c-3.86-3.14-9.88-8-18.94-10.74-8.7-2.59-10.21-.19-14.2-3.06-3.5-2.53-3.13-5-9.47-19.94-.54-1.29-1.94-4.44-4.73-10.73-5.14-11.58-5.82-12.87-6.31-13.8a69.19,69.19,0,0,0-9.47-13.8c-3-3.29-6.3-6.16-15.78-12.27-12.17-7.84-18.26-11.76-23.67-13.79-12.72-4.79-23.9-4-34.72-3.07-15.75,1.36-41.73,3.61-60,21.46-17,16.64-13.06,32.91-28.41,38.34-9.47,3.34-13-2.13-31.56-3.07-8.57-.43-29.21-1.48-47.34,9.2-16.49,9.71-26,26.22-34.72,41.4l-7.89,13.8h0c-5.8-1.37-25.27-5.22-45.76,4.6-30.29,14.53-35.81,46-36.29,49.06-.23,1.45-5,35.59,20.51,58.27,3.12,2.78,22.68,19.59,45.76,16.87,13.07-1.55,21.2-8.63,33.14-4.6,7.86,2.64,12.06,8.31,14.2,10.73,8.53,9.6,29,17.84,82.06,10.73"/>
    <path class="cls-3" d="M285.54,299.18c-1.19,2.29-3.3,6.38-4.51,8.73-8.74,16.95-8.32,16.21-9.35,18.12-4.88,9.06-6.13,10.54-9.53,17.68a70.23,70.23,0,0,0-4,9.18,44,44,0,0,0,0,24.61c.87,2.81,2.86,9,7.8,13.2,1.1.94,3.4,2.7,8.83,4,8.09,2,14.36,3.52,21-.67,9.06-5.74,11.94-17.92,12.47-20.14a48.34,48.34,0,0,0-.69-23.5c-1.34-5.15-1.88-3.76-7.28-17-2.18-5.36-4.47-10.95-6.93-18.35-.92-2.78-2.32-7.15-4.68-13.21-.85-2.18-1.58-4-2.08-5.14"/>
    <path class="cls-3" d="M553.54,360.18c-1.19,2.29-3.3,6.38-4.51,8.73-8.74,16.95-8.32,16.21-9.35,18.12-4.88,9.06-6.13,10.54-9.53,17.68a70.23,70.23,0,0,0-4,9.18,44,44,0,0,0,0,24.61c.87,2.81,2.86,9,7.8,13.2,1.1.94,3.4,2.7,8.83,4,8.09,2,14.36,3.52,21-.67,9.06-5.74,11.94-17.92,12.47-20.14a48.34,48.34,0,0,0-.69-23.5c-1.34-5.15-1.88-3.76-7.28-17-2.18-5.36-4.47-10.95-6.93-18.35-.92-2.78-2.32-7.15-4.68-13.21-.85-2.18-1.58-4-2.08-5.14"/>
    <path class="cls-3" d="M517.54,567.18c-1.19,2.29-3.3,6.38-4.51,8.73-8.74,17-8.32,16.21-9.35,18.12-4.88,9.06-6.13,10.54-9.53,17.68a70.23,70.23,0,0,0-4,9.18,44,44,0,0,0,0,24.61c.87,2.81,2.86,9,7.8,13.2,1.1.94,3.4,2.7,8.83,4,8.09,2,14.36,3.52,21-.67,9.06-5.74,11.94-17.92,12.47-20.14a48.34,48.34,0,0,0-.69-23.5c-1.34-5.15-1.88-3.76-7.28-17-2.18-5.36-4.47-10.95-6.93-18.35-.92-2.78-2.32-7.15-4.68-13.21-.85-2.18-1.58-4-2.08-5.14"/>
    <path class="cls-3" d="M360.54,473.18c-1.19,2.29-3.3,6.38-4.51,8.73-8.74,16.95-8.32,16.21-9.35,18.12-4.88,9.06-6.13,10.54-9.53,17.68a70.23,70.23,0,0,0-4,9.18,44,44,0,0,0,0,24.61c.87,2.81,2.86,9,7.8,13.2,1.1.94,3.4,2.7,8.83,4,8.09,2,14.36,3.52,21-.67,9.06-5.74,11.94-17.92,12.47-20.14a48.34,48.34,0,0,0-.69-23.5c-1.34-5.15-1.88-3.76-7.28-17-2.18-5.36-4.47-10.95-6.93-18.35-.92-2.78-2.32-7.15-4.68-13.21-.85-2.18-1.58-4-2.08-5.14"/>
    <path class="cls-3" d="M1098.73,627.33c-1.19,2.3-3.29,6.38-4.51,8.73-8.74,17-8.32,16.21-9.35,18.12-4.88,9.06-6.13,10.54-9.53,17.68a68.94,68.94,0,0,0-4,9.18,43.9,43.9,0,0,0,0,24.61c.87,2.81,2.86,9,7.79,13.2,1.1.95,3.41,2.7,8.84,4,8.08,2,14.35,3.52,21-.67,9.06-5.74,12-17.92,12.48-20.14a48.39,48.39,0,0,0-.7-23.49c-1.34-5.16-1.87-3.77-7.27-17-2.19-5.35-4.47-11-6.93-18.35-.93-2.78-2.33-7.15-4.68-13.2-.85-2.19-1.58-4-2.08-5.15"/>
    <path class="cls-3" d="M1448.73,424.33c-1.19,2.3-3.29,6.38-4.51,8.73-8.74,16.95-8.32,16.21-9.35,18.12-4.88,9.06-6.13,10.54-9.53,17.68a68.94,68.94,0,0,0-4,9.18,43.9,43.9,0,0,0,0,24.61c.87,2.81,2.86,9,7.79,13.2,1.1.95,3.41,2.7,8.84,4,8.08,2,14.35,3.52,21-.67,9.06-5.74,12-17.92,12.48-20.14a48.39,48.39,0,0,0-.7-23.49c-1.34-5.16-1.87-3.77-7.27-17-2.19-5.35-4.47-10.95-6.93-18.35-.93-2.78-2.33-7.15-4.68-13.2-.85-2.19-1.58-4-2.08-5.15"/>
    <path class="cls-3" d="M1341.32,604.25l-4.5,8.72c-8.74,16.95-8.32,16.21-9.36,18.13-4.87,9-6.12,10.54-9.52,17.68a70.89,70.89,0,0,0-4,9.17,44,44,0,0,0,0,24.62c.87,2.8,2.86,9,7.8,13.2,1.1.94,3.4,2.7,8.83,4,8.08,2,14.36,3.51,21-.67,9.06-5.74,11.94-17.92,12.47-20.14a48.34,48.34,0,0,0-.69-23.5c-1.34-5.16-1.88-3.77-7.28-17-2.18-5.35-4.47-11-6.93-18.35-.92-2.77-2.32-7.15-4.68-13.2-.85-2.18-1.58-4-2.08-5.15"/>
    <path class="cls-3" d="M824.32,587.25l-4.5,8.72c-8.74,16.95-8.32,16.21-9.36,18.13-4.87,9-6.12,10.54-9.52,17.68a70.89,70.89,0,0,0-4,9.17,44,44,0,0,0,0,24.62c.87,2.8,2.86,9,7.8,13.2,1.1.94,3.4,2.7,8.83,4,8.08,2,14.36,3.51,21-.67,9.06-5.74,11.94-17.92,12.47-20.14a48.34,48.34,0,0,0-.69-23.5c-1.34-5.16-1.88-3.77-7.28-17-2.18-5.35-4.47-11-6.93-18.35-.92-2.77-2.32-7.15-4.68-13.2-.85-2.18-1.58-4-2.08-5.15"/>
    <path class="cls-3" d="M1664.32,349.25l-4.5,8.72c-8.74,16.95-8.32,16.21-9.36,18.13-4.87,9-6.12,10.54-9.52,17.68a70.89,70.89,0,0,0-4,9.17,44,44,0,0,0,0,24.62c.87,2.8,2.86,9,7.8,13.2,1.1.94,3.4,2.7,8.83,4,8.08,2,14.36,3.51,21-.67,9.06-5.74,11.94-17.92,12.47-20.14a48.34,48.34,0,0,0-.69-23.5c-1.34-5.16-1.88-3.77-7.28-17-2.18-5.35-4.47-11-6.93-18.35-.92-2.77-2.32-7.15-4.68-13.2-.85-2.18-1.58-4-2.08-5.15"/>
    <path class="cls-3" d="M1702.13,534.25c-1.14,2.29-3.16,6.37-4.32,8.72-8.39,16.95-8,16.21-9,18.13-4.68,9-5.88,10.54-9.14,17.68a71.28,71.28,0,0,0-3.82,9.17,45.75,45.75,0,0,0,0,24.62c.84,2.8,2.74,9,7.47,13.2,1.06.94,3.27,2.7,8.48,4,7.75,2,13.76,3.51,20.1-.67,8.69-5.74,11.46-17.92,12-20.14a50.3,50.3,0,0,0-.66-23.5c-1.29-5.16-1.8-3.77-7-17-2.09-5.35-4.28-11-6.65-18.35-.88-2.77-2.22-7.15-4.48-13.2-.82-2.18-1.52-4-2-5.15"/>
    <path class="cls-3" d="M1555.32,654.25l-4.5,8.72c-8.74,16.95-8.32,16.21-9.36,18.13-4.87,9-6.12,10.54-9.52,17.68a70.89,70.89,0,0,0-4,9.17,44,44,0,0,0,0,24.62c.87,2.8,2.86,9,7.8,13.2,1.1.94,3.4,2.7,8.83,4,8.08,2,14.36,3.51,21-.67,9.06-5.74,11.94-17.92,12.47-20.14a48.34,48.34,0,0,0-.69-23.5c-1.34-5.16-1.88-3.77-7.28-17-2.18-5.35-4.47-11-6.93-18.35-.92-2.77-2.32-7.15-4.68-13.2-.85-2.18-1.58-4-2.08-5.15"/>
    <path class="cls-3" d="M638.32,601.25l-4.5,8.72c-8.74,16.95-8.32,16.21-9.36,18.13-4.87,9-6.12,10.54-9.52,17.68a70.89,70.89,0,0,0-4,9.17,44,44,0,0,0,0,24.62c.87,2.8,2.86,9,7.8,13.2,1.1.94,3.4,2.7,8.83,4,8.08,2,14.36,3.51,21-.67,9.06-5.74,11.94-17.92,12.47-20.14a48.34,48.34,0,0,0-.69-23.5c-1.34-5.16-1.88-3.77-7.28-17-2.18-5.35-4.47-11-6.93-18.35-.92-2.77-2.32-7.15-4.68-13.2-.85-2.18-1.58-4-2.08-5.15"/>
    <path class="cls-3" d="M966.43,507.09c-1.19,2.3-3.29,6.38-4.51,8.73-8.74,16.95-8.32,16.21-9.35,18.13-4.88,9-6.13,10.53-9.53,17.67-2.24,4.71-3.36,7.06-4,9.18a43.9,43.9,0,0,0,0,24.61c.87,2.81,2.86,9,7.79,13.21,1.1.94,3.41,2.69,8.84,4,8.08,2,14.35,3.52,21-.67,9.06-5.74,12-17.92,12.48-20.14a48.39,48.39,0,0,0-.7-23.49c-1.34-5.16-1.87-3.77-7.27-17-2.19-5.35-4.47-11-6.93-18.35-.93-2.78-2.33-7.15-4.68-13.2-.85-2.19-1.58-4-2.08-5.15"/>
    <path class="cls-5" d="M821.13,417.19c35,19.2,70.23,17.4,80.27,5.28,12.12-14.65-5.79-52.44-33.13-53.85-18.77-1-41,15.27-44.6,40.12"/>
    <path class="cls-6" d="M826.21,372.14c66,6,84.46.79,87.32-6.09,4.18-10-20.1-35.16-49.83-31.73-17.73,2-32.67,13.7-37.06,29.27"/>
    <ellipse class="cls-4" cx="884.67" cy="359.18" rx="4.29" ry="2.11"/>
    <ellipse class="cls-4" cx="852.05" cy="363.4" rx="4.29" ry="2.11"/>
    <ellipse class="cls-4" cx="860.63" cy="352.15" rx="4.29" ry="2.11"/>
    <ellipse class="cls-4" cx="872.65" cy="366.21" rx="4.29" ry="2.11"/>
    <ellipse class="cls-4" cx="869.22" cy="340.91" rx="4.29" ry="2.11"/>
    <ellipse class="cls-4" cx="895.76" cy="345.47" rx="4.29" ry="2.11"/>
    <ellipse class="cls-4" cx="901.84" cy="364.8" rx="4.29" ry="2.11"/>
    <ellipse class="cls-4" cx="845.18" cy="352.15" rx="4.29" ry="2.11"/>
    <ellipse class="cls-4" cx="860.63" cy="367.61" rx="4.29" ry="2.11"/>
    <polygon points="871.55 382.46 882.34 382.5 878.1 388.92 871.55 382.46"/>
    <polygon points="846.21 382.46 857 382.5 852.76 388.92 846.21 382.46"/>
    <path class="cls-7" d="M869.36,398.94c-.15,6.63,3.69,11.28,6.76,11.41s7.77-4.37,8.1-11.4"/>
    <polygon points="857.5 392.37 872.05 391.21 865.05 401.81 857.5 392.37"/>
    <circle class="cls-8" cx="652" cy="538" r="2.5"/>
    <line class="cls-9" x1="584" y1="725" x2="588" y2="683"/>
  </g>
  <g id="Layer_2" data-name="Layer 2">
    <path class="cls-10" d="M1920.5,1079.5H-.5v-34h1921Z"/>
  </g>
  <g id="Layer_3" data-name="Layer 3">
    <path class="cls-10" d="M541,1062.37c-7.34-19.61-16.65-26.46-24-29-21.57-7.46-37.65,18.28-77.11,17.36-7.45-.18-27.23-.64-33.89-12.36-6.55-11.53,3.84-26.44,0-29-6.56-4.37-30.23,43.57-62.11,45.36-36.12,2-62.72-56.32-76.89-49.36-11.17,5.49,4.12,42.56-9,51-20,12.86-72.87-57.47-103-44-13.69,6.12-17.83,27.37-19,46"/>
    <path class="cls-10" d="M1568,1062.37c-7.34-19.61-16.65-26.46-24-29-21.57-7.46-37.65,18.28-77.11,17.36-7.45-.18-27.23-.64-33.89-12.36-6.55-11.53,3.84-26.44,0-29-6.56-4.37-30.23,43.57-62.11,45.36-36.12,2-62.72-56.32-76.89-49.36-11.17,5.49,4.12,42.56-9,51-20,12.86-72.87-57.47-103-44-13.69,6.12-17.83,27.37-19,46"/>
  </g>
  <g id="Layer_4" data-name="Layer 4">
    <line class="cls-11" x1="208.43" y1="992.35" x2="215.43" y2="1042.68"/>
    <line class="cls-11" x1="264.43" y1="1038.11" x2="215.34" y2="1042.75"/>
    <line class="cls-11" x1="136.65" y1="994.63" x2="143.65" y2="1044.96"/>
    <path class="cls-12" d="M107.69,613.84C83.36,578,74.62,543.25,93.35,542.45c10.77-.46,30.27,1.24,50.85,19.59"/>
    <path class="cls-12" d="M206.14,542c28.48-21.09,55.38-28.45,55.08-11.94-.17,9.49-2.41,26.65-17.39,44.6"/>
    <line class="cls-11" x1="191.65" y1="1040.77" x2="142.56" y2="1045.41"/>
    <path class="cls-13" d="M516.61,843.45a121.08,121.08,0,0,1,12.34-38c1.77-3.38,9.9-18.5,27.12-34.06,9.75-8.8,46.46-41.95,99.89-39.31,13,.65,47.55,2.36,74,28.83,18.81,18.83,24.53,41.21,35.76,85.16a441.12,441.12,0,0,1,11.1,65.51c2.19,22,.54,20.67,2.47,41.93,4.72,52.3,15.52,69.64,4.93,82.54-7,8.52-19.59,10.57-27.13,11.8-13.35,2.17-16.18-2.25-29.6,0s-13,7-29.59,11.79c-10.14,2.94-21.68,6.29-34.53,2.62-9-2.59-8.81-5.81-23.43-11.79-12.9-5.29-19.35-7.93-24.66-5.25-9.69,4.91-5.46,20.39-16,27.52-7.34,5-16.53,2.32-24.67,0-16.81-4.8-27.32-16.61-34.53-24.89A137.09,137.09,0,0,1,521.55,1019c-12.45-27.09-16.64-81.46-6.17-148"/>
    <path class="cls-14" d="M634.09,845.74a53.19,53.19,0,0,0,9.87,2.62c6.24,1,9.71,1.61,13.56,0,4.17-1.73,5-4.46,7.4-3.93,2.86.65,4.18,5.24,4.93,7.86a22.4,22.4,0,0,1,0,13.11,21.43,21.43,0,0,1-7.39,10.48c-7.09,5.24-15.18,3.56-19.74,2.62-4.27-.89-8.05-1.67-11.09-5.24-4.23-5-3.84-11.55-3.7-13.1a19.57,19.57,0,0,1,2.46-7.87"/>
    <path class="cls-15" d="M632.24,868.67h0a5.26,5.26,0,0,1,1.24-3.93,4.7,4.7,0,0,1,3.7-1.31,6.8,6.8,0,0,1,3.7,1.31,14.68,14.68,0,0,1,3.69,3.93h0c.94.79,2.37,1.73,3.7,1.31,1.82-.57,1.72-3.14,3.7-3.93,1.67-.66,3.51.45,4.94,1.31a7.87,7.87,0,0,1,3.7,3.93,7.24,7.24,0,0,1,0,5.24c-1.39,3-5.1,3.59-7.4,3.93-3.73.57-6.67-.31-9.87-1.31a38.22,38.22,0,0,1-8.63-3.93"/>
    <ellipse class="cls-4" cx="640.26" cy="850.98" rx="3.08" ry="3.28"/>
    <path class="cls-4" d="M639.64,846.4a5.25,5.25,0,0,0-3.7,2.62,5.54,5.54,0,0,0,1.24,6.55,5,5,0,0,0,7.39-1.31c1.33-2.31.1-5,0-5.24"/>
    <path class="cls-4" d="M648,849.14A5.52,5.52,0,0,0,645.4,853a5.35,5.35,0,0,0,3.29,5.69,5.16,5.16,0,0,0,6.51-4,6,6,0,0,0-1.71-4.91"/>
    <path class="cls-4" d="M656.92,848.9a5.92,5.92,0,0,0-.55,4.11,3.1,3.1,0,0,0,4.35,1.79c2.35-1,3.92-4.34,3.3-6.56a3.26,3.26,0,0,0-2.94-2.23"/>
    <ellipse class="cls-4" cx="566.89" cy="845.09" rx="35.76" ry="38"/>
    <ellipse class="cls-4" cx="721.03" cy="845.09" rx="35.76" ry="38"/>
    <ellipse cx="564.42" cy="831.99" rx="2.47" ry="2.62"/>
    <ellipse cx="721.03" cy="826.75" rx="2.47" ry="2.62"/>
    <polygon class="cls-4" points="841.02 760.7 751.58 789.88 733.93 728.84 823.38 699.65 841.02 760.7"/>
    <path class="cls-13" d="M773.44,879.81a22.77,22.77,0,0,0,12.33-2.62c3.55-1.93,5.62-4.34,8.63-7.86,3.43-4,6.51-7.59,8.63-13.1,1.92-5,4.78-12.4,1.24-18.35-3.92-6.58-14.12-8.73-17.27-5.24-3.72,4.13,3.77,14.69,0,18.34-3.18,3.1-9.91-3.09-18.49,0a18.06,18.06,0,0,0-7.4,5.25"/>
    <rect class="cls-4" x="783.3" y="745.51" width="11.71" height="113.33"/>
    <g>
      <path class="cls-13" d="M763.87,745.62A9.69,9.69,0,0,1,767.1,747a3.3,3.3,0,0,1,1.35,1.71,2.49,2.49,0,0,1-.18,1.84,6.1,6.1,0,0,1-1.35,1.81,11.22,11.22,0,0,1-2.23,1.61,14.81,14.81,0,0,1-2.81,1.22l-.45.15a4.28,4.28,0,0,1-.46.13,6.8,6.8,0,0,1-2.91.25,4.26,4.26,0,0,1-2-.86,5.1,5.1,0,0,1-1.32-1.67,12.5,12.5,0,0,1-.84-2.18l-.22-.76c-.29-1.16-.54-2.26-.74-3.3a9,9,0,0,1-.13-2.84,4.27,4.27,0,0,1,1-2.26,5.92,5.92,0,0,1,2.72-1.59,15.29,15.29,0,0,1,2.07-.51,24.68,24.68,0,0,1,2.61-.31,6,6,0,0,1,3,.34,2.05,2.05,0,0,1,1.15,1.25,2.7,2.7,0,0,1,0,1.49,8.29,8.29,0,0,1-.54,1.5A9.74,9.74,0,0,1,763.87,745.62Zm-6.06-3.6a.76.76,0,0,0,.49-.2.62.62,0,0,0,.18-.36.44.44,0,0,0-.13-.33.58.58,0,0,0-.46-.11,7.07,7.07,0,0,0-1.34.27,3.23,3.23,0,0,0-1.36.78,3.38,3.38,0,0,0-.72,1.1,4.08,4.08,0,0,0-.27,1.31,12.91,12.91,0,0,0,0,1.39c0,.47.06.92.11,1.35a8,8,0,0,1,0,1.18.29.29,0,0,0,.17.33.85.85,0,0,0,.45.06,1.08,1.08,0,0,0,.45-.17.53.53,0,0,0,.23-.39,4.12,4.12,0,0,0,0-1c-.06-.4-.11-.82-.17-1.26a8.5,8.5,0,0,1,0-1.33,3.45,3.45,0,0,1,.26-1.22,2.34,2.34,0,0,1,.75-.94,3.07,3.07,0,0,1,1.48-.48Zm-2.25,8.06a.61.61,0,0,0,.39-.29.44.44,0,0,0,0-.35.39.39,0,0,0-.24-.25.8.8,0,0,0-.89.29.49.49,0,0,0,0,.35.42.42,0,0,0,.24.25A.71.71,0,0,0,755.56,750.08Z"/>
      <path class="cls-13" d="M776.43,738.4a1.7,1.7,0,0,1,1.11.14,2.81,2.81,0,0,1,1,.79,5.88,5.88,0,0,1,.78,1.26,10.15,10.15,0,0,1,.59,1.58,14.81,14.81,0,0,1,.43,2,12.12,12.12,0,0,1,.13,2,8.09,8.09,0,0,1-.18,1.65,2.49,2.49,0,0,1-.49,1.11,2.79,2.79,0,0,1-1.18.81,2,2,0,0,1-.88.1,2.74,2.74,0,0,1-.7-.2,2.59,2.59,0,0,1-.68-.4,6.3,6.3,0,0,1-2.33,1.52,3.08,3.08,0,0,1-1.84.09,3.83,3.83,0,0,1-1.51-.84,5.58,5.58,0,0,1-1.17-1.5,8.15,8.15,0,0,1-.79-1.88,8.85,8.85,0,0,1-.33-1.75,6.9,6.9,0,0,1,0-1.65,4.47,4.47,0,0,1,.45-1.35,2.23,2.23,0,0,1,.87-.88,2.14,2.14,0,0,1,1.83-.19,3.51,3.51,0,0,1,1.37,1.11,7.87,7.87,0,0,1,1,1.76c.26.65.47,1.22.61,1.71,0,.16.08.31.11.45s.06.25.09.35l.08.3a6.69,6.69,0,0,0-.11-.73c-.07-.4-.14-.88-.2-1.44s-.1-1.15-.12-1.78a7.06,7.06,0,0,1,.17-1.8,4.06,4.06,0,0,1,.65-1.46,2.09,2.09,0,0,1,1.32-.8Zm-5.75,3.52a.3.3,0,0,0,.08-.32.37.37,0,0,0-.24-.18.75.75,0,0,0-.37,0,.57.57,0,0,0-.34.24,4.18,4.18,0,0,0-1,2.49,6.19,6.19,0,0,0,.38,2.41.29.29,0,0,0,.24.21.65.65,0,0,0,.39,0,.64.64,0,0,0,.32-.21.32.32,0,0,0,.07-.32,6.43,6.43,0,0,1-.35-2.1A3.49,3.49,0,0,1,770.68,741.92Zm-.28,5.74a.51.51,0,0,0,.32-.23.36.36,0,0,0,0-.29.33.33,0,0,0-.19-.21.49.49,0,0,0-.4,0,.65.65,0,0,0-.34.25.33.33,0,0,0-.06.29.32.32,0,0,0,.2.21A.56.56,0,0,0,770.4,747.66Z"/>
      <path class="cls-13" d="M788.58,734.44a1.7,1.7,0,0,1,1.11.14,2.87,2.87,0,0,1,.95.78,5.88,5.88,0,0,1,.78,1.26,10.27,10.27,0,0,1,.59,1.59,14.81,14.81,0,0,1,.43,2,12,12,0,0,1,.13,1.94,8.19,8.19,0,0,1-.18,1.66,2.4,2.4,0,0,1-.49,1.1,2.79,2.79,0,0,1-1.18.82,2,2,0,0,1-.88.09,2.63,2.63,0,0,1-.7-.2,2.14,2.14,0,0,1-.68-.4,6.42,6.42,0,0,1-2.33,1.53,3.16,3.16,0,0,1-1.84.08,3.6,3.6,0,0,1-1.51-.84,5.93,5.93,0,0,1-1.18-1.49,9.37,9.37,0,0,1-.79-1.88,9.61,9.61,0,0,1-.32-1.75,6.88,6.88,0,0,1,0-1.65,4,4,0,0,1,.45-1.35,2.23,2.23,0,0,1,.87-.88,2.1,2.1,0,0,1,1.83-.19,3.35,3.35,0,0,1,1.37,1.11,8,8,0,0,1,1,1.75c.26.65.47,1.23.61,1.72,0,.16.08.31.11.44s.06.25.08.35l.09.31a6.73,6.73,0,0,0-.11-.74c-.07-.4-.14-.87-.2-1.43s-.1-1.16-.12-1.79a6.94,6.94,0,0,1,.17-1.79,4.11,4.11,0,0,1,.65-1.47,2.18,2.18,0,0,1,1.32-.8ZM782.83,738c.1-.13.12-.23.07-.32a.37.37,0,0,0-.23-.19.76.76,0,0,0-.37,0,.55.55,0,0,0-.34.23,4.23,4.23,0,0,0-1,2.5,6.17,6.17,0,0,0,.38,2.4.29.29,0,0,0,.24.22.74.74,0,0,0,.39,0,.64.64,0,0,0,.32-.21.32.32,0,0,0,.07-.32,6.71,6.71,0,0,1-.36-2.1A3.54,3.54,0,0,1,782.83,738Zm-.28,5.74a.51.51,0,0,0,.32-.24.35.35,0,0,0,0-.29.33.33,0,0,0-.19-.21.55.55,0,0,0-.4,0,.59.59,0,0,0-.34.24.35.35,0,0,0-.06.3.33.33,0,0,0,.2.2A.6.6,0,0,0,782.55,743.7Z"/>
      <path class="cls-13" d="M800.73,730.48a1.63,1.63,0,0,1,1.11.13,3,3,0,0,1,.95.79,5.88,5.88,0,0,1,.78,1.26,11.27,11.27,0,0,1,.59,1.58,14.63,14.63,0,0,1,.43,2,12,12,0,0,1,.13,1.94,8.19,8.19,0,0,1-.18,1.66,2.45,2.45,0,0,1-.49,1.1,2.85,2.85,0,0,1-1.18.81,1.86,1.86,0,0,1-.88.1,2.63,2.63,0,0,1-.7-.2,2.44,2.44,0,0,1-.68-.4,6.38,6.38,0,0,1-2.33,1.52,3.08,3.08,0,0,1-1.84.09,3.83,3.83,0,0,1-1.51-.84,5.81,5.81,0,0,1-1.18-1.5,9.28,9.28,0,0,1-.79-1.87,9.72,9.72,0,0,1-.32-1.76,6.91,6.91,0,0,1,.05-1.65,4,4,0,0,1,.45-1.35A2.21,2.21,0,0,1,794,733a2.09,2.09,0,0,1,1.82-.2,3.42,3.42,0,0,1,1.38,1.12,7.8,7.8,0,0,1,1,1.75,17.55,17.55,0,0,1,.61,1.72c0,.16.08.3.11.44s.06.25.08.35l.09.3a7.08,7.08,0,0,0-.11-.73c-.07-.4-.14-.88-.2-1.44s-.1-1.15-.12-1.78a7.06,7.06,0,0,1,.17-1.8,4,4,0,0,1,.65-1.46,2.09,2.09,0,0,1,1.32-.8ZM795,734c.1-.13.12-.24.07-.33a.33.33,0,0,0-.23-.18.66.66,0,0,0-.37,0,.51.51,0,0,0-.34.23,4.18,4.18,0,0,0-1,2.5,6,6,0,0,0,.38,2.4.3.3,0,0,0,.24.22.72.72,0,0,0,.71-.24.31.31,0,0,0,.07-.32,6.66,6.66,0,0,1-.36-2.1A3.52,3.52,0,0,1,795,734Zm-.29,5.74a.62.62,0,0,0,.33-.24.36.36,0,0,0,.05-.29.33.33,0,0,0-.19-.21.46.46,0,0,0-.4,0,.59.59,0,0,0-.34.24.33.33,0,0,0-.06.29.32.32,0,0,0,.2.21A.58.58,0,0,0,794.69,739.74Z"/>
      <path class="cls-13" d="M810.59,730.81a8.42,8.42,0,0,1,1.62-2,4.66,4.66,0,0,1,1.56-1,2.64,2.64,0,0,1,1.57,0,3.39,3.39,0,0,1,1.37.79,5.76,5.76,0,0,1,1.07,1.37,7.55,7.55,0,0,1,.73,1.73,7.48,7.48,0,0,1,.29,1.69,6.19,6.19,0,0,1-.1,1.63,4.06,4.06,0,0,1-.56,1.39,2.84,2.84,0,0,1-1.08,1,5.7,5.7,0,0,1-.91.4,2.88,2.88,0,0,1-1.72.1,3,3,0,0,1-1.23-.7,4.07,4.07,0,0,1-.81-1.17,8.4,8.4,0,0,1-.48-1.26q-.12-.39-.18-.69a3.26,3.26,0,0,1-.09-.46l0-.13,0,.13c0,.14,0,.37.08.71s0,.73,0,1.15a13.24,13.24,0,0,1-.07,1.37,6,6,0,0,1-.29,1.37,4.16,4.16,0,0,1-.62,1.14,2.05,2.05,0,0,1-1,.71,3,3,0,0,1-1,.12,2,2,0,0,1-1.06-.38,4.09,4.09,0,0,1-.94-1,8.56,8.56,0,0,1-.81-1.42,13.92,13.92,0,0,1-.63-1.72,17.45,17.45,0,0,1-.58-3.06,16,16,0,0,1,0-3,7.54,7.54,0,0,1,.59-2.42,2.31,2.31,0,0,1,1.3-1.32,2.19,2.19,0,0,1,2.38.43,3.16,3.16,0,0,1,.72,1,7.89,7.89,0,0,1,.46,1.19,8.28,8.28,0,0,1,.21.9,6.66,6.66,0,0,1,.1.76C810.55,730.36,810.57,730.59,810.59,730.81Zm-3.11-3.8a.63.63,0,0,0,.32-.27.5.5,0,0,0,0-.31.3.3,0,0,0-.21-.2.59.59,0,0,0-.4,0,3.41,3.41,0,0,0-1.43,1.08,3.79,3.79,0,0,0-.68,1.47,5.1,5.1,0,0,0-.1,1.66,9.06,9.06,0,0,0,.31,1.63,9.45,9.45,0,0,0,.36,1,6.62,6.62,0,0,0,.4.8.27.27,0,0,0,.27.16,1,1,0,0,0,.39-.11.6.6,0,0,0,.27-.25.35.35,0,0,0,0-.33,5.1,5.1,0,0,1-.56-1.26,5.33,5.33,0,0,1-.19-.9c0-.3-.08-.6-.1-.89s0-.51,0-.82a3.93,3.93,0,0,1,.11-1,2.57,2.57,0,0,1,.4-.9,1.82,1.82,0,0,1,.81-.65Zm0,8.07a.51.51,0,0,0,.32-.24.33.33,0,0,0-.14-.5.55.55,0,0,0-.4,0,.59.59,0,0,0-.34.24.33.33,0,0,0-.06.29.32.32,0,0,0,.2.21A.6.6,0,0,0,807.44,735.08Z"/>
    </g>
    <path class="cls-16" d="M82.5,965.22c-3.5,3.63-15-2.51-22.46-8.05-23.85-17.81-30.55-48.38-34.95-69.81-3.2-15.55-11-55.73,2.49-102,7.43-25.5,19.32-46.05,30-64.44C70,699.3,71.19,702,80,686c20.83-37.79,13.28-50.79,32.45-88.6,16.58-32.7,34.3-46.79,39.94-51,8.26-6.17,20.36-15,37.45-16.11,0,0,16.72-1.1,32.55,6.55a74.48,74.48,0,0,1,7.39,4.19,66.56,66.56,0,0,1,10,8.06c-9.66,1.43-16-.58-20-2.69-4.33-2.28-5.53-4.47-10-5.37s-8.44.38-15,2.69c-7.36,2.6-7,3.75-12.48,5.37-9.09,2.65-10.65-.33-15,2.68-3.79,2.64-3.14,5.31-10,13.43-1.87,2.21-1.7,1.76-5,5.37a163,163,0,0,0-15,18.79,93.4,93.4,0,0,0-5,8.06c-2.58,4.75-3,6.66-7.49,16.11a56.32,56.32,0,0,0-2.49,5.37c-2.06,6-.69,8.56-2.5,13.42-1.41,3.81-2.7,3.47-4.73,7.42-2.87,5.61-2.7,11-2.76,14.06-.33,16.53-9,33.06-10,34.91-4.46,8.34-6.2,7-15,21.48-.91,1.5-3.94,6.54-7.49,13.42a157.15,157.15,0,0,0-7.49,16.11c-1.93,5-2.39,7.16-5,16.11-2.92,10-5,17-7.49,24.17-4.19,11.81-5.47,12.06-10,24.16-4.33,11.59-6.5,17.39-7.49,24.17-2.2,15.07,1.35,27.51,5,40.27,1.7,6,4.46,12.92,10,26.85,3.93,9.9,5.89,14.34,10,24.17C84.52,960.38,83.88,963.81,82.5,965.22Z"/>
    <path class="cls-17" d="M138.24,569.43a71.67,71.67,0,0,1,15-18.8,65.79,65.79,0,0,1,34.95-16.11,60.56,60.56,0,0,1,35,5.37c18.11,8.86,26.81,24.66,32.45,34.91,6.42,11.65,8.91,21.19,12.49,34.9,6.94,26.63,3.45,30.53,10,56.39a280.45,280.45,0,0,0,15,43c5.65,12.81,8.84,17.46,15,29.53a445.23,445.23,0,0,1,22.47,53.7c6.7,19.31,7.32,25.37,7.49,29.54.26,6.42-.66,14.12-2.5,29.53-1.14,9.55-1.71,14.32-2.5,18.8a179.54,179.54,0,0,1-12.48,40.27c-2.41,5.45-9.91,22.16-22.47,37.59-34.94,42.92-86.38,48-89.87,48.33-25.2,2.11-44.2-4.49-69.9-13.42-23-8-39.43-13.71-54.92-26.85C36.66,916.46,38.14,842.68,38.39,835.24c1.24-37.33,14-53.53,42.44-118.14,0,0,20-46,34.87-86.54,1.21-3.28,2.4-6.58,2.4-6.58,6.54-18,11.6-33,15.15-43.81"/>
    <g id="Layer_5" data-name="Layer 5">
      <ellipse class="cls-18" cx="198.08" cy="818.89" rx="99.86" ry="131.57"/>
    </g>
    <path class="cls-19" d="M237.32,656.1c-3.7-.67-8.84-1.6-15-2.68-14.83-2.63-15.92-2.71-17.47-2.69-12.45.19-14.27,6.76-22.47,5.37-7.76-1.32-16.11-8.9-17.48-18.79-1.9-13.71,10.82-23,12.48-24.17,4.71-3.32,9-4,17.48-5.37,6.27-1,13.39-2.14,22.47,0a53,53,0,0,1,17.47,8.06c6.44,4.48,10.82,7.53,12.48,13.42,2,7.14-1.26,13.84-2.49,16.11"/>
    <path class="cls-4" d="M191.29,651.32a6.36,6.36,0,0,1,1.12-5.52,7.33,7.33,0,0,1,8.24-2.19,6,6,0,0,1,2.32,8.91c-2,2.73-5.79,2.84-6.08,2.85"/>
  </g>
  <g id="Layer_6" data-name="Layer 6">
    <ellipse class="cls-8" cx="160.64" cy="593.35" rx="6.24" ry="6.71"/>
    <ellipse class="cls-8" cx="265.49" cy="585.29" rx="6.24" ry="6.71"/>
  </g>
  <g id="Layer_8" data-name="Layer 8">
    <path class="cls-3" d="M151.29,612.2,149.5,615c-3.48,5.35-3.31,5.12-3.72,5.72-1.95,2.86-2.44,3.33-3.8,5.58a20.3,20.3,0,0,0-1.58,2.9,11.08,11.08,0,0,0,0,7.77,8.57,8.57,0,0,0,3.1,4.17,8.93,8.93,0,0,0,3.52,1.27c3.21.63,5.71,1.11,8.34-.21a10.49,10.49,0,0,0,5-6.36,12.27,12.27,0,0,0-.28-7.42c-.53-1.63-.74-1.19-2.89-5.37-.87-1.69-1.78-3.45-2.76-5.79-.37-.88-.93-2.26-1.86-4.17-.34-.69-.63-1.25-.83-1.62"/>
    <path class="cls-3" d="M151.61,656.4l-2.15,3.45c-4.18,6.71-4,6.42-4.47,7.18-2.33,3.58-2.93,4.17-4.55,7a25.37,25.37,0,0,0-1.9,3.63,14.59,14.59,0,0,0,0,9.74,10.83,10.83,0,0,0,3.72,5.23,10.45,10.45,0,0,0,4.22,1.59c3.86.79,6.86,1.39,10-.26,4.33-2.27,5.71-7.09,6-8a16,16,0,0,0-.33-9.3c-.64-2-.9-1.49-3.48-6.73-1-2.12-2.13-4.33-3.31-7.26-.44-1.1-1.11-2.83-2.23-5.23-.41-.86-.76-1.57-1-2"/>
  </g>
</svg>
