<svg xmlns="http://www.w3.org/2000/svg" width="1920" height="1080" viewBox="0 0 1920 1080">
  <defs>
    <style>
      .cls-1 {
        fill: #6cd5d6;
      }

      .cls-1, .cls-28, .cls-4 {
        stroke: #000;
        stroke-miterlimit: 10;
      }

      .cls-2 {
        fill: #459645;
      }

      .cls-3 {
        fill: #00bd05;
      }

      .cls-4, .cls-5 {
        fill: none;
      }

      .cls-28, .cls-6 {
        fill: #f47c7d;
      }

      .cls-7 {
        fill: #8c1d39;
        opacity: 0.34;
      }

      .cls-8 {
        fill: #ff80f5;
      }

      .cls-9 {
        fill: #fff;
      }

      .cls-10 {
        fill: #ff0;
      }

      .cls-11 {
        fill: #fbb03b;
      }

      .cls-12, .cls-13, .cls-14 {
        fill: #bf6000;
      }

      .cls-12 {
        opacity: 0.12;
      }

      .cls-13 {
        opacity: 0.08;
      }

      .cls-15 {
        fill: #c69c6d;
        opacity: 0.46;
      }

      .cls-16 {
        fill: #8c6239;
      }

      .cls-17 {
        fill: #995f24;
      }

      .cls-18 {
        fill: #6d3400;
      }

      .cls-19 {
        fill: #ff60ad;
      }

      .cls-20 {
        fill: #a90000;
      }

      .cls-21 {
        fill: #754c24;
      }

      .cls-22 {
        fill: #0c7923;
      }

      .cls-23 {
        fill: #22b573;
      }

      .cls-24 {
        fill: #603813;
      }

      .cls-25 {
        fill: #42210b;
      }

      .cls-26 {
        fill: #ff7bac;
      }

      .cls-27 {
        fill: #abbd7d;
      }
    </style>
  </defs>
  <g id="Layer_1" data-name="Layer 1">
    <path class="cls-1" d="M1920,1080H0V0H1920Z"/>
    <g>
      <path class="cls-2" d="M685.44,493.6A53.93,53.93,0,0,1,701,490.83q9.85,0,14.17,5.07a18.57,18.57,0,0,1,4.31,12.44,35,35,0,0,1-2.34,12.1A40.54,40.54,0,0,1,710.57,532a36.67,36.67,0,0,1-9.79,8.53,23.14,23.14,0,0,1-12,3.34,24.45,24.45,0,0,1-10.29-2.42,38.48,38.48,0,0,1-10.77-7.95,37.66,37.66,0,0,1-7.39-11.29,85.21,85.21,0,0,1-5.06-15.32,129.47,129.47,0,0,1-2.83-18.08q-.85-9.67-.86-19.58,0-9.68.12-19.35t.74-18.43q.62-8.76,1.91-16.36a56.66,56.66,0,0,1,3.76-13.24,23.78,23.78,0,0,1,6.28-8.87,15.07,15.07,0,0,1,9.36-3.46q4.18-.23,6.9,4.84a47.11,47.11,0,0,1,4.25,13.25A143.06,143.06,0,0,1,687,426.1q.56,10.36.56,20.73,0,9.23-.31,17.51t-.68,15q-.49,7.59-1,14.51ZM672.88,404a3.42,3.42,0,0,0,1.6-2.42,9.6,9.6,0,0,0,.12-3.46,7.47,7.47,0,0,0-1-3,1.37,1.37,0,0,0-2-.58q-5.29,2.54-8.74,9.91a80.27,80.27,0,0,0-5.54,16.93,156.83,156.83,0,0,0-3,20q-.93,10.49-.93,19a6,6,0,0,0,.8,3.57,2.07,2.07,0,0,0,3.58,0,6,6,0,0,0,.8-3.57q0-6.92.67-15.78a148.22,148.22,0,0,1,2.35-17.28,73.35,73.35,0,0,1,4.43-14.86q2.77-6.45,7.08-8.52Zm-16.63,75.09a1.9,1.9,0,0,0,1.79-1.49,9.25,9.25,0,0,0,.55-3.23,8.4,8.4,0,0,0-.62-3.22c-.41-1-1-1.5-1.84-1.5s-1.42.5-1.79,1.5a9.19,9.19,0,0,0-.55,3.22,8.44,8.44,0,0,0,.61,3.23A2,2,0,0,0,656.25,479.08Z"/>
      <path class="cls-2" d="M774.5,475.4q.5,7.83-2,12.55a18.68,18.68,0,0,1-6.41,7.26,23,23,0,0,1-8.56,3.34,48.6,48.6,0,0,1-8.31.81h-2.9a10.33,10.33,0,0,1-2.28-.23,7.84,7.84,0,0,1-2-.23q1.85,8.28,4.87,10.82a9.73,9.73,0,0,0,6.34,2.54,19.25,19.25,0,0,0,5.11-.69,18.14,18.14,0,0,1,4.74-.7,6,6,0,0,1,3.82,1.39,8.7,8.7,0,0,1,2,4.26,30.65,30.65,0,0,1,.73,7,35,35,0,0,1-.86,7.61,22.49,22.49,0,0,1-3,7.25,16.33,16.33,0,0,1-5.54,5.42,16.5,16.5,0,0,1-8.62,2.07,24.16,24.16,0,0,1-3.26-.23,31.86,31.86,0,0,1-3.51-.69,19,19,0,0,1-10-6.11,39.22,39.22,0,0,1-7-11.63,72,72,0,0,1-4.13-15.32,111.42,111.42,0,0,1,2.34-45.73q3.7-13.59,10.84-21a30.24,30.24,0,0,1,8.25-6.56,16.89,16.89,0,0,1,7.52-2,12.91,12.91,0,0,1,8.37,3.11,27.14,27.14,0,0,1,6.66,8.41,52.85,52.85,0,0,1,4.55,12.44,87.56,87.56,0,0,1,2.22,15.2Zm-28-25.8a3.4,3.4,0,0,0,1.29-2.19,8.54,8.54,0,0,0,.12-2.88,4.88,4.88,0,0,0-.86-2.3,1.05,1.05,0,0,0-1.66-.23,25.55,25.55,0,0,0-7.89,7.71,55.12,55.12,0,0,0-6.09,11.87,77.68,77.68,0,0,0-3.88,14.74,90.67,90.67,0,0,0-1.23,16.59,5.25,5.25,0,0,0,.67,2.88,1.86,1.86,0,0,0,1.48,1,1.72,1.72,0,0,0,1.42-1,5.66,5.66,0,0,0,.61-2.88,78.19,78.19,0,0,1,1-13.94,69.45,69.45,0,0,1,3.2-12.56,45.08,45.08,0,0,1,5.11-10.13,20.43,20.43,0,0,1,6.72-6.45Zm5.29-7.6c-.66,0-1.17.42-1.54,1.26a6.66,6.66,0,0,0,0,5.3c.37.85.88,1.27,1.54,1.27s1.15-.42,1.48-1.27a7.41,7.41,0,0,0,0-5.3C753,442.42,752.49,442,751.83,442Z"/>
      <path class="cls-2" d="M829.06,438.31q2.34,4.38,2.34,14.28a131.39,131.39,0,0,1-1.35,17.51q-1.35,9.91-3.63,20.16t-5.36,20a172.79,172.79,0,0,1-6.53,17.62,61.52,61.52,0,0,1-7.08,12.56q-3.65,4.72-7.09,4.95-4.3.23-8.37-7.49a94.91,94.91,0,0,1-7.21-19.46,210.66,210.66,0,0,1-5-25.69,192.17,192.17,0,0,1-1.91-25.91,82,82,0,0,1,1.85-18.78q1.85-7.71,6.16-9.56a5.92,5.92,0,0,1,5.79.23,12.41,12.41,0,0,1,4.19,5.3,39.89,39.89,0,0,1,2.77,8.75,102.85,102.85,0,0,1,1.6,10.6c.37,3.69.62,7.37.74,11.06s.18,7,.18,9.9c0,1.54,0,2.92-.06,4.15s-.06,2.23-.06,3c-.08,1.08-.12,2-.12,2.77q4.3-16.59,8.74-29.49,1.85-5.52,3.88-10.82a91.35,91.35,0,0,1,4.19-9.45,41.15,41.15,0,0,1,4.19-6.68c1.35-1.69,2.65-2.53,3.88-2.53s2.34.92,3.32,2.76Zm-36.58,19.12c.41.92.88,1.35,1.42,1.27a1.93,1.93,0,0,0,1.35-1.15,6.72,6.72,0,0,0,.68-2.65,6.14,6.14,0,0,0-.49-3,35,35,0,0,0-3.33-6.1q-2-2.88-4.43-1.73c-1.32.77-2.28,2.27-2.9,4.49a56.46,56.46,0,0,0-1.41,6.57,144.66,144.66,0,0,0-1.11,18.2,170,170,0,0,0,1,18.19,3.23,3.23,0,0,0,.87,2.42,1.4,1.4,0,0,0,1.53.23,2.65,2.65,0,0,0,1.3-1.61,7.25,7.25,0,0,0,.37-3.11,148.69,148.69,0,0,1-.74-15.2q0-2.53.06-5.07c0-1.69.1-3.38.19-5.07,0-.61,0-1.5.06-2.65s.12-2.34.24-3.57a33.54,33.54,0,0,1,.5-3.34,5.82,5.82,0,0,1,.8-2.19c.74-.92,1.49-.57,2.28,1s1.37,2.88,1.78,3.8ZM789,500.28a6.51,6.51,0,0,0-.61-2.88c-.42-.84-.91-1.27-1.48-1.27a1.75,1.75,0,0,0-1.48,1,5.65,5.65,0,0,0-.62,2.88v1.15a6.49,6.49,0,0,0,.62,2.88c.41.85.9,1.27,1.48,1.27a1.78,1.78,0,0,0,1.48-1,5.66,5.66,0,0,0,.61-2.88Z"/>
      <path class="cls-2" d="M882.15,475.4q.5,7.83-2,12.55a18.58,18.58,0,0,1-6.4,7.26,23,23,0,0,1-8.56,3.34,48.61,48.61,0,0,1-8.32.81H854a10.33,10.33,0,0,1-2.28-.23,7.78,7.78,0,0,1-2-.23q1.85,8.28,4.86,10.82a9.77,9.77,0,0,0,6.35,2.54,19.3,19.3,0,0,0,5.11-.69,18,18,0,0,1,4.74-.7,6,6,0,0,1,3.82,1.39,8.61,8.61,0,0,1,2,4.26,30.62,30.62,0,0,1,.74,7,35.66,35.66,0,0,1-.86,7.61,22.72,22.72,0,0,1-3,7.25,15.61,15.61,0,0,1-14.16,7.49,24.42,24.42,0,0,1-3.27-.23,31.86,31.86,0,0,1-3.51-.69,19,19,0,0,1-10-6.11,39,39,0,0,1-7-11.63,71.41,71.41,0,0,1-4.13-15.32,106.82,106.82,0,0,1-1.36-17.16,108.67,108.67,0,0,1,3.7-28.57q3.69-13.59,10.84-21a29.94,29.94,0,0,1,8.25-6.56,16.86,16.86,0,0,1,7.52-2,12.94,12.94,0,0,1,8.37,3.11,27.12,27.12,0,0,1,6.65,8.41,52.41,52.41,0,0,1,4.56,12.44,87.56,87.56,0,0,1,2.22,15.2Zm-28-25.8a3.37,3.37,0,0,0,1.3-2.19,8.81,8.81,0,0,0,.12-2.88,4.88,4.88,0,0,0-.86-2.3,1.06,1.06,0,0,0-1.67-.23,25.52,25.52,0,0,0-7.88,7.71,55.59,55.59,0,0,0-6.1,11.87,79.21,79.21,0,0,0-3.88,14.74A92.47,92.47,0,0,0,834,492.91a5.24,5.24,0,0,0,.68,2.88,1.84,1.84,0,0,0,1.48,1,1.71,1.71,0,0,0,1.41-1,5.65,5.65,0,0,0,.62-2.88,78.19,78.19,0,0,1,1-13.94,69.45,69.45,0,0,1,3.2-12.56,44.67,44.67,0,0,1,5.11-10.13,20.5,20.5,0,0,1,6.71-6.45Zm5.3-7.6c-.66,0-1.17.42-1.54,1.26a6.66,6.66,0,0,0,0,5.3c.37.85.88,1.27,1.54,1.27s1.15-.42,1.48-1.27a7.41,7.41,0,0,0,0-5.3C860.64,442.42,860.15,442,859.49,442Z"/>
      <path class="cls-2" d="M899.15,406.75a29,29,0,0,1,4.56,9.91,109.1,109.1,0,0,1,3,14.85q1.17,8.42,1.66,18.43t.49,20.39q0,14.75-.86,29.14t-2.22,25.92q-1.35,11.52-2.95,18.66t-3.2,7.14q-3.71,1.6-6.41-4.15t-4.43-16.35a246.38,246.38,0,0,1-2.59-24.54q-.87-13.93-.86-28.45,0-15.42.92-29.94A249.51,249.51,0,0,1,889,422.65q1.78-10.61,4.31-15.44c1.68-3.22,3.64-3.45,5.85-.69Zm-.24,11.06a6.14,6.14,0,0,0,.49-3,6.72,6.72,0,0,0-.68-2.65,1.93,1.93,0,0,0-1.35-1.15c-.54-.07-1,.35-1.42,1.27a102.1,102.1,0,0,0-6.47,21.31,125.7,125.7,0,0,0-2.4,24.53,107.8,107.8,0,0,0,.74,12.67,3.58,3.58,0,0,0,1,2.42,1.32,1.32,0,0,0,1.47.23,3,3,0,0,0,1.3-1.61,5.73,5.73,0,0,0,.3-3.11c-.16-1.69-.3-3.42-.43-5.19s-.18-3.57-.18-5.41a115.7,115.7,0,0,1,2-21.54A81.11,81.11,0,0,1,898.91,418Zm-9.12,68c.66,0,1.15-.43,1.48-1.27a7.41,7.41,0,0,0,0-5.3c-.33-.84-.82-1.27-1.48-1.27s-1.17.43-1.54,1.27a6.66,6.66,0,0,0,0,5.3C888.62,485.34,889.13,485.77,889.79,485.77Z"/>
      <path class="cls-2" d="M972.69,495q14,6.91,19.83,14.74t5.79,15a18.24,18.24,0,0,1-1.79,8.06,21.64,21.64,0,0,1-4.74,6.45,23,23,0,0,1-6.78,4.38,20.42,20.42,0,0,1-8,1.61,21.15,21.15,0,0,1-10-2.65,24.77,24.77,0,0,1-8.93-8.64,52.66,52.66,0,0,1-6.47-15.55Q949,508.81,949,494.75a85.12,85.12,0,0,1,2-18.89,65.88,65.88,0,0,1,5.54-15.78A35.46,35.46,0,0,1,965,449.14a19.68,19.68,0,0,1,10.53-4.84,14.38,14.38,0,0,1,8.25,1.5,20.77,20.77,0,0,1,6.65,5.41,27.07,27.07,0,0,1,4.5,8.06,27.63,27.63,0,0,1,1.66,9.45,26.73,26.73,0,0,1-1.29,8.18,24,24,0,0,1-4.13,7.6,27.42,27.42,0,0,1-7.39,6.33A35.21,35.21,0,0,1,972.69,495Zm-16.51-3.69q1.73-14.51,7.14-23.61t13.55-9.56c.66,0,1.15-.42,1.48-1.27a7.48,7.48,0,0,0,.49-2.76,6.66,6.66,0,0,0-.49-2.65,1.59,1.59,0,0,0-1.48-1.15,15.82,15.82,0,0,0-8.74,3.22,28.93,28.93,0,0,0-7.27,8.18,54.25,54.25,0,0,0-5.42,12.21,89.68,89.68,0,0,0-3.32,15.55,5.73,5.73,0,0,0,.3,3.11,2.94,2.94,0,0,0,1.3,1.61,1.32,1.32,0,0,0,1.47-.23,3.6,3.6,0,0,0,1-2.42Zm-.86,14.06c.65,0,1.15-.42,1.48-1.27a7.41,7.41,0,0,0,0-5.3c-.33-.84-.83-1.27-1.48-1.27s-1.17.43-1.54,1.27a6.55,6.55,0,0,0,0,5.3C954.15,504.93,954.66,505.35,955.32,505.35Z"/>
      <path class="cls-2" d="M1028.36,434.85c3.7,0,7.18,1.47,10.47,4.38a37.63,37.63,0,0,1,8.56,11.87,77.33,77.33,0,0,1,5.79,17.62,107.88,107.88,0,0,1,0,43,75.25,75.25,0,0,1-5.79,17.39,37.73,37.73,0,0,1-8.56,11.75,14.7,14.7,0,0,1-20.94,0,38.48,38.48,0,0,1-8.62-11.75,70.79,70.79,0,0,1-5.79-17.39,110.9,110.9,0,0,1,0-43,72.72,72.72,0,0,1,5.79-17.62,38.37,38.37,0,0,1,8.62-11.87A15.58,15.58,0,0,1,1028.36,434.85Zm-3.45,14.52c.66-.15,1.11-.69,1.36-1.61a7.23,7.23,0,0,0,.18-2.77,5.73,5.73,0,0,0-.86-2.42,1.48,1.48,0,0,0-1.66-.8,14.59,14.59,0,0,0-7.7,5.52A40,40,0,0,0,1010.5,458a71.27,71.27,0,0,0-3.51,14.05,102.12,102.12,0,0,0-1.17,15.32q0,1.85.06,3.57c0,1.15.1,2.34.19,3.57a3.71,3.71,0,0,0,.86,2.53,1.27,1.27,0,0,0,1.48.35,3,3,0,0,0,1.29-1.61,6.66,6.66,0,0,0,.43-3.11,71.61,71.61,0,0,1,.18-14.17,67.53,67.53,0,0,1,2.78-13.36,37.75,37.75,0,0,1,5-10.37,13.2,13.2,0,0,1,6.95-5.41Zm-14.29,60.12c.66,0,1.15-.42,1.48-1.26a7.24,7.24,0,0,0,.49-2.65,7.17,7.17,0,0,0-.49-2.65c-.33-.85-.82-1.27-1.48-1.27s-1.17.42-1.54,1.27a6.49,6.49,0,0,0-.55,2.65,6.56,6.56,0,0,0,.55,2.65C1009.45,509.07,1010,509.49,1010.62,509.49Z"/>
      <path class="cls-2" d="M1139.46,449.14a119,119,0,0,1,4.56,21.65,192.82,192.82,0,0,1,1.48,23.73,171.63,171.63,0,0,1-.92,18.08,110.73,110.73,0,0,1-2.59,15.21,39.85,39.85,0,0,1-4.07,10.59c-1.6,2.69-3.42,4.11-5.48,4.26s-3.9-1.15-5.54-3.91a45.34,45.34,0,0,1-4.31-10.6,136.3,136.3,0,0,1-3.2-14.28q-1.37-7.83-2.22-15.09t-1.29-12.67c-.29-3.61-.48-6-.56-7.26v0c.08,1.08.17,3,.25,5.65s.12,5.95.12,9.79q0,7.14-.49,15.55a122.35,122.35,0,0,1-1.91,15.78,45.75,45.75,0,0,1-4.13,12.55q-2.7,5.19-7.14,5.88a7.44,7.44,0,0,1-7.27-2.65,25.08,25.08,0,0,1-4.56-9,73.84,73.84,0,0,1-2.58-12.9q-.87-7.25-1.23-14.39t-.43-13.48q-.08-6.33-.31-10.25-.14,2.76-.06,6.91c0,2.76.06,5.76.06,9q0,7.61-.37,16a100.62,100.62,0,0,1-1.85,15.67,38.48,38.48,0,0,1-4.37,12.09q-2.9,4.85-7.82,5.07-3.45.24-5.86-4.38a47.18,47.18,0,0,1-3.94-12.21,135.92,135.92,0,0,1-2.21-17.27q-.69-9.67-.68-20,0-9.68.55-19t1.67-16.93a88.18,88.18,0,0,1,2.64-12.67q1.55-5.07,3.51-6.22a7.75,7.75,0,0,1,3.58-1.15,5.8,5.8,0,0,1,4.92,2.88,29.39,29.39,0,0,1,3.21,6.1A69.87,69.87,0,0,1,1081,454a83.68,83.68,0,0,1,5.42-9.22,42.32,42.32,0,0,1,5.54-6.33,9.34,9.34,0,0,1,6.4-2.88q2.84,0,5.61,3t5.23,10.6a63.67,63.67,0,0,1,5.55-7.61,41,41,0,0,1,5.6-5.18,10.68,10.68,0,0,1,6.59-2.42c2.22,0,4.41,1.12,6.59,3.34S1137.66,443.46,1139.46,449.14Zm-67.62.23a5.15,5.15,0,0,0,.62-2.88,6.66,6.66,0,0,0-.68-2.54,2.32,2.32,0,0,0-1.36-1.26c-.53-.15-1,.23-1.54,1.15a39.21,39.21,0,0,0-3.44,8.29,69.06,69.06,0,0,0-2.1,9.68q-.73,5.07-1,10.48t-.3,10.94q0,3.91.12,7.95t.25,7.72a5.27,5.27,0,0,0,.67,2.88,1.86,1.86,0,0,0,1.48,1,1.72,1.72,0,0,0,1.42-1,5.68,5.68,0,0,0,.61-2.88q-.24-3.91-.37-8.07t-.12-8.52a145.44,145.44,0,0,1,1.11-18.08A38,38,0,0,1,1071.84,449.37Zm-6.16,63.35c.66,0,1.15-.42,1.48-1.27a7.41,7.41,0,0,0,0-5.3c-.33-.84-.82-1.26-1.48-1.26s-1.17.42-1.54,1.26a6.66,6.66,0,0,0,0,5.3C1064.51,512.3,1065,512.72,1065.68,512.72Z"/>
      <path class="cls-2" d="M1172.6,454q6.29-5.07,11.45-5.07a10.1,10.1,0,0,1,7.27,3,23.75,23.75,0,0,1,5.17,8.06,52,52,0,0,1,3.15,11.52,85.82,85.82,0,0,1,1,13.59,98.65,98.65,0,0,1-1.54,17.4,68.36,68.36,0,0,1-4.56,15.55,33.74,33.74,0,0,1-7.51,11.17,14.83,14.83,0,0,1-10.53,4.26,16.52,16.52,0,0,1-2.71-.23,20.73,20.73,0,0,1-2.83-.69c0,.92,0,1.92.12,3s0,2,.06,3.34.06,2.73.06,4.27q0,6.21-.37,14.39a122,122,0,0,1-1.6,15.32,45.2,45.2,0,0,1-3.51,11.87q-2.28,4.71-6.1,4.26c-1.88-.31-3.51-2.61-4.86-6.91a104,104,0,0,1-3.45-16.82q-1.41-10.37-2.09-23.5t-.68-26.72q0-12.21.55-24t1.6-21.65a152.33,152.33,0,0,1,2.65-17.05q1.61-7.14,3.7-9.9c2.63-3.53,4.92-5.3,6.9-5.3a4.81,4.81,0,0,1,4.12,2.65,24.33,24.33,0,0,1,2.65,5.87A45.06,45.06,0,0,1,1172.6,454Zm-5.67,3c.33,1.08.76,1.69,1.3,1.84a1.4,1.4,0,0,0,1.47-.46,4.38,4.38,0,0,0,1-2.19,6.27,6.27,0,0,0-.19-3.11Q1168,445,1164.84,445c-1.4,0-2.75,1.23-4.07,3.69a39.88,39.88,0,0,0-3.32,9.21,184.52,184.52,0,0,0-3.88,20.62q-1.42,10.71-2.16,21.54a5.41,5.41,0,0,0,.43,2.88,1.59,1.59,0,0,0,1.36,1,2,2,0,0,0,1.54-.92,4.88,4.88,0,0,0,.86-2.76q.62-7.38,1.54-14.51t2.15-14.06q.63-3.91,1.42-8.06a43.25,43.25,0,0,1,2.16-7.6q1.35-3.69,2.21-3c.58.46,1.24,1.93,2,4.38Zm-12.68,58c.65,0,1.14-.42,1.47-1.27a7.25,7.25,0,0,0,0-5.29c-.33-.85-.82-1.27-1.47-1.27s-1.17.42-1.54,1.27a6.53,6.53,0,0,0,0,5.29C1153.08,514.6,1153.59,515,1154.25,515Z"/>
      <path class="cls-2" d="M1217.56,406.75a29.41,29.41,0,0,1,4.56,9.91,109.19,109.19,0,0,1,3,14.85q1.17,8.42,1.67,18.43t.49,20.39q0,14.75-.86,29.14t-2.22,25.92q-1.37,11.52-3,18.66c-1.07,4.76-2.13,7.14-3.2,7.14q-3.69,1.6-6.41-4.15t-4.43-16.35q-1.73-10.61-2.59-24.54t-.86-28.45q0-15.42.93-29.94a243.8,243.8,0,0,1,2.71-25.11q1.77-10.61,4.31-15.44t5.85-.69Zm-.25,11.06a6.14,6.14,0,0,0,.49-3,6.73,6.73,0,0,0-.67-2.65,1.94,1.94,0,0,0-1.36-1.15c-.53-.07-1,.35-1.42,1.27a102.11,102.11,0,0,0-6.46,21.31,125.7,125.7,0,0,0-2.4,24.53,105.68,105.68,0,0,0,.74,12.67,3.63,3.63,0,0,0,1,2.42,1.33,1.33,0,0,0,1.48.23,3,3,0,0,0,1.29-1.61,5.82,5.82,0,0,0,.31-3.11c-.17-1.69-.31-3.42-.43-5.19s-.19-3.57-.19-5.41a114.87,114.87,0,0,1,2-21.54,81.13,81.13,0,0,1,5.6-18.54Zm-9.11,68c.65,0,1.14-.43,1.47-1.27a7.27,7.27,0,0,0,0-5.3c-.33-.84-.82-1.27-1.47-1.27s-1.17.43-1.54,1.27a6.55,6.55,0,0,0,0,5.3C1207,485.34,1207.54,485.77,1208.2,485.77Z"/>
      <path class="cls-2" d="M1282.35,475.4q.48,7.83-2,12.55a18.68,18.68,0,0,1-6.41,7.26,23,23,0,0,1-8.56,3.34,48.6,48.6,0,0,1-8.31.81h-2.9a10.33,10.33,0,0,1-2.28-.23,7.78,7.78,0,0,1-2-.23q1.85,8.28,4.87,10.82a9.73,9.73,0,0,0,6.34,2.54,19.3,19.3,0,0,0,5.11-.69,18.08,18.08,0,0,1,4.74-.7,6,6,0,0,1,3.82,1.39,8.61,8.61,0,0,1,2,4.26,30.07,30.07,0,0,1,.74,7,35.66,35.66,0,0,1-.86,7.61,22.72,22.72,0,0,1-3,7.25,16.33,16.33,0,0,1-5.54,5.42,16.5,16.5,0,0,1-8.62,2.07,24.42,24.42,0,0,1-3.27-.23,32.8,32.8,0,0,1-3.51-.69,19,19,0,0,1-10-6.11,39.22,39.22,0,0,1-7-11.63,71.41,71.41,0,0,1-4.13-15.32,111.42,111.42,0,0,1,2.34-45.73q3.7-13.59,10.84-21a29.94,29.94,0,0,1,8.25-6.56,16.89,16.89,0,0,1,7.52-2,12.93,12.93,0,0,1,8.37,3.11,27.29,27.29,0,0,1,6.66,8.41,52.85,52.85,0,0,1,4.55,12.44,87.56,87.56,0,0,1,2.22,15.2Zm-28-25.8a3.4,3.4,0,0,0,1.29-2.19,8.81,8.81,0,0,0,.12-2.88,4.88,4.88,0,0,0-.86-2.3,1.05,1.05,0,0,0-1.66-.23,25.44,25.44,0,0,0-7.89,7.71,55.12,55.12,0,0,0-6.09,11.87,77.68,77.68,0,0,0-3.88,14.74,91.56,91.56,0,0,0-1.24,16.59,5.24,5.24,0,0,0,.68,2.88,1.86,1.86,0,0,0,1.48,1,1.74,1.74,0,0,0,1.42-1,5.66,5.66,0,0,0,.61-2.88,78.19,78.19,0,0,1,1-13.94,69.45,69.45,0,0,1,3.2-12.56,45.08,45.08,0,0,1,5.11-10.13,20.43,20.43,0,0,1,6.72-6.45Zm5.29-7.6c-.66,0-1.17.42-1.54,1.26a6.66,6.66,0,0,0,0,5.3c.37.85.88,1.27,1.54,1.27s1.15-.42,1.48-1.27a7.41,7.41,0,0,0,0-5.3C1260.83,442.42,1260.34,442,1259.68,442Z"/>
      <path class="cls-2" d="M1325.71,502.81a17.57,17.57,0,0,1,1.6,7.83,38.42,38.42,0,0,1-1.91,11.41,49.17,49.17,0,0,1-5.05,11.17,36.34,36.34,0,0,1-7,8.41,12,12,0,0,1-7.83,3.34,9.17,9.17,0,0,1-6.4-3q-3.09-3-5.48-9.79a88.85,88.85,0,0,1-3.82-18.08,228.25,228.25,0,0,1-1.42-27.87q0-7.83.37-17.28-6.76-4.84-6.77-12.67a14.39,14.39,0,0,1,3.57-9.68,21.19,21.19,0,0,1,2.77-2.76c.94-.77,1.87-1.53,2.77-2.31a122.1,122.1,0,0,1,4-19.46q2.4-7.71,5.6-8.87a5.11,5.11,0,0,1,5,.81,13.21,13.21,0,0,1,3.57,5.41,42.31,42.31,0,0,1,2.34,9.1,116,116,0,0,1,1.23,11.86,23.39,23.39,0,0,1,8.81,7.72,17.91,17.91,0,0,1,3.39,10.25,12.82,12.82,0,0,1-2.77,7.83q-2.77,3.69-9.3,5.53-.62,12-1.42,21.89t-1.42,14.51c1.32-1.38,2.67-2.68,4.07-3.92a37.82,37.82,0,0,1,3.76-2.64,7.49,7.49,0,0,1,4-1.27c1.72,0,3.08,1,4.06,3Zm-22.42-79.47a5.16,5.16,0,0,0,.61-2.88,6.61,6.61,0,0,0-.67-2.54,2.34,2.34,0,0,0-1.36-1.26c-.54-.16-1,.23-1.54,1.15a52.2,52.2,0,0,0-4,11.75,58.29,58.29,0,0,0-1.3,13.59q-4.42.69-8.25,5.76a4.83,4.83,0,0,0-.92,2.76,9.24,9.24,0,0,0,.3,2.88,3.49,3.49,0,0,0,1.11,1.84c.5.39,1,.2,1.6-.57q3.33-4.85,7.15-5.07c.57,0,1.07-.38,1.48-1.15a1.57,1.57,0,0,0,1.29-.81,4.3,4.3,0,0,0,.43-2.65q-.73-12.9,3.94-22.34Z"/>
      <path class="cls-2" d="M1382.37,475.4c.32,5.22-.33,9.41-2,12.55a18.58,18.58,0,0,1-6.4,7.26,23,23,0,0,1-8.56,3.34,48.61,48.61,0,0,1-8.32.81h-2.89a10.33,10.33,0,0,1-2.28-.23,7.78,7.78,0,0,1-2-.23q1.85,8.28,4.86,10.82a9.77,9.77,0,0,0,6.35,2.54,19.3,19.3,0,0,0,5.11-.69,18,18,0,0,1,4.74-.7,6,6,0,0,1,3.82,1.39,8.61,8.61,0,0,1,2,4.26,30.62,30.62,0,0,1,.74,7,35.66,35.66,0,0,1-.86,7.61,22.72,22.72,0,0,1-3,7.25,16.33,16.33,0,0,1-5.54,5.42,16.5,16.5,0,0,1-8.62,2.07,24.42,24.42,0,0,1-3.27-.23,32.32,32.32,0,0,1-3.51-.69,19,19,0,0,1-10-6.11,39,39,0,0,1-7-11.63,71.41,71.41,0,0,1-4.13-15.32,106.82,106.82,0,0,1-1.36-17.16,108.67,108.67,0,0,1,3.7-28.57q3.69-13.59,10.84-21a29.94,29.94,0,0,1,8.25-6.56,16.86,16.86,0,0,1,7.52-2,12.93,12.93,0,0,1,8.37,3.11,27.12,27.12,0,0,1,6.65,8.41,52.41,52.41,0,0,1,4.56,12.44,87.56,87.56,0,0,1,2.22,15.2Zm-28-25.8a3.37,3.37,0,0,0,1.3-2.19,8.81,8.81,0,0,0,.12-2.88,4.88,4.88,0,0,0-.86-2.3,1.05,1.05,0,0,0-1.66-.23,25.44,25.44,0,0,0-7.89,7.71,55.12,55.12,0,0,0-6.09,11.87,78.43,78.43,0,0,0-3.89,14.74,92.47,92.47,0,0,0-1.23,16.59,5.24,5.24,0,0,0,.68,2.88,1.84,1.84,0,0,0,1.48,1,1.74,1.74,0,0,0,1.42-1,5.66,5.66,0,0,0,.61-2.88,78.19,78.19,0,0,1,1-13.94,69.45,69.45,0,0,1,3.2-12.56,44.67,44.67,0,0,1,5.11-10.13,20.5,20.5,0,0,1,6.71-6.45Zm5.3-7.6c-.66,0-1.17.42-1.54,1.26a6.66,6.66,0,0,0,0,5.3c.37.85.88,1.27,1.54,1.27s1.15-.42,1.48-1.27a7.41,7.41,0,0,0,0-5.3C1360.85,442.42,1360.36,442,1359.7,442Z"/>
    </g>
    <path class="cls-3" d="M1923.07,1079.62H2.07v-34h1921Z"/>
    <path class="cls-3" d="M466.72,1058.51c-7.34-19.61-16.65-26.46-24-29-21.57-7.45-37.65,18.28-77.11,17.36-7.45-.17-27.22-.63-33.89-12.36-6.55-11.52,3.84-26.44,0-29-6.55-4.37-30.23,43.58-62.11,45.36-36.12,2-62.72-56.32-76.89-49.36-11.17,5.49,4.13,42.56-9,51-20,12.87-72.87-57.46-103-44-13.68,6.12-17.82,27.37-19,46"/>
    <path class="cls-3" d="M1864.72,1065.51c-7.34-19.61-16.65-26.46-24-29-21.57-7.45-37.65,18.28-77.11,17.36-7.45-.17-27.22-.63-33.89-12.36-6.55-11.52,3.84-26.44,0-29-6.55-4.37-30.23,43.58-62.11,45.36-36.12,2-62.72-56.32-76.89-49.36-11.17,5.49,4.13,42.56-9,51-20,12.87-72.87-57.46-103-44-13.68,6.12-17.82,27.37-19,46"/>
    <line class="cls-4" x1="89.97" y1="625.66" x2="90.97" y2="624.74"/>
    <line class="cls-5" x1="236.63" y1="542.41" x2="234.34" y2="525.86"/>
    <line class="cls-4" x1="461.19" y1="985.22" x2="412.1" y2="989.86"/>
    <circle cx="967.57" cy="683.12" r="1"/>
    <path class="cls-6" d="M688.16,829.92a121,121,0,0,1,12.33-38c1.77-3.39,9.9-18.51,27.13-34.07,9.75-8.8,46.46-42,99.89-39.3,13,.64,47.55,2.35,74,28.82,18.81,18.83,24.53,41.21,35.77,85.17a440.52,440.52,0,0,1,11.09,65.51c2.19,22,.55,20.67,2.47,41.92,4.73,52.31,15.53,69.65,4.93,82.55-7,8.52-19.58,10.56-27.13,11.79-13.34,2.17-16.17-2.25-29.59,0s-13,7-29.6,11.79c-10.14,3-21.67,6.3-34.53,2.62-9-2.58-8.81-5.8-23.43-11.79-12.9-5.28-19.35-7.93-24.66-5.24-9.69,4.9-5.45,20.38-16,27.51-7.34,5-16.53,2.33-24.66,0-16.81-4.8-27.33-16.6-34.53-24.89a136.68,136.68,0,0,1-18.5-28.82c-12.44-27.1-16.63-81.47-6.16-148.06"/>
    <path class="cls-7" d="M805.64,832.21a53.72,53.72,0,0,0,9.86,2.62c6.25,1,9.72,1.6,13.57,0,4.17-1.74,5-4.47,7.4-3.93,2.86.65,4.17,5.23,4.93,7.86a22.44,22.44,0,0,1,0,13.1,21.39,21.39,0,0,1-7.4,10.48c-7.09,5.24-15.18,3.57-19.73,2.62-4.27-.88-8-1.66-11.1-5.24-4.22-5-3.83-11.55-3.7-13.1a19.28,19.28,0,0,1,2.47-7.86"/>
    <path class="cls-8" d="M803.79,855.14h0a5.22,5.22,0,0,1,1.23-3.93,4.68,4.68,0,0,1,3.7-1.31,6.61,6.61,0,0,1,3.7,1.31,14.64,14.64,0,0,1,3.7,3.93h0c.93.78,2.37,1.73,3.7,1.31,1.81-.58,1.71-3.14,3.7-3.93,1.67-.67,3.5.44,4.93,1.31a7.71,7.71,0,0,1,3.7,3.93,7.18,7.18,0,0,1,0,5.24c-1.38,3-5.1,3.58-7.4,3.93-3.72.57-6.66-.31-9.86-1.31a38.51,38.51,0,0,1-8.64-3.93"/>
    <ellipse class="cls-9" cx="811.8" cy="837.45" rx="3.08" ry="3.28"/>
    <path class="cls-9" d="M811.19,832.86a5.24,5.24,0,0,0-3.7,2.62,5.55,5.55,0,0,0,1.23,6.56,5,5,0,0,0,7.4-1.31c1.32-2.32.1-5,0-5.25"/>
    <path class="cls-9" d="M819.56,835.6a5.55,5.55,0,0,0-2.62,3.82,5.34,5.34,0,0,0,3.3,5.69,5.15,5.15,0,0,0,6.51-4,6.06,6.06,0,0,0-1.71-4.92"/>
    <path class="cls-9" d="M828.47,835.36a5.87,5.87,0,0,0-.55,4.11,3.08,3.08,0,0,0,4.34,1.79c2.35-1,3.92-4.34,3.3-6.56a3.26,3.26,0,0,0-2.94-2.23"/>
    <ellipse class="cls-9" cx="738.43" cy="831.55" rx="35.76" ry="38"/>
    <ellipse class="cls-9" cx="892.57" cy="831.55" rx="35.76" ry="38"/>
    <ellipse cx="735.96" cy="818.45" rx="2.47" ry="2.62"/>
    <ellipse cx="892.57" cy="813.21" rx="2.47" ry="2.62"/>
    <polygon class="cls-10" points="1496.49 61.33 1544.27 107.45 1519.27 123.71 1496.49 61.33"/>
    <polygon class="cls-10" points="1565.85 33.69 1594.46 93.63 1565.35 100.11 1565.85 33.69"/>
    <polygon class="cls-10" points="1639.23 19.71 1651.08 85.06 1621.29 83.66 1639.23 19.71"/>
    <polygon class="cls-10" points="1456.02 117.28 1513.12 146.7 1493.68 169.32 1456.02 117.28"/>
    <polygon class="cls-10" points="1713.78 41.44 1694.33 104.95 1668.5 90.04 1713.78 41.44"/>
    <polygon class="cls-10" points="1410.5 188.74 1476.88 190.94 1469.23 219.76 1410.5 188.74"/>
    <polygon class="cls-10" points="1775.15 87.51 1731.47 137.54 1713.98 113.38 1775.15 87.51"/>
    <polygon class="cls-10" points="1403.13 262.4 1466.84 243.63 1468.63 273.4 1403.13 262.4"/>
    <polygon class="cls-10" points="1811.59 151.2 1758.6 191.23 1746.42 164 1811.59 151.2"/>
    <polygon class="cls-10" points="1429.88 333.22 1487.58 300.32 1496.15 328.88 1429.88 333.22"/>
    <polygon class="cls-10" points="1465.69 407.32 1500.91 351.01 1522 372.1 1465.69 407.32"/>
    <polygon class="cls-10" points="1532.05 442.96 1549.1 378.77 1575.46 392.7 1532.05 442.96"/>
    <polygon class="cls-10" points="1837.31 224.96 1773.29 242.63 1772.01 212.84 1837.31 224.96"/>
    <polygon class="cls-10" points="1608.2 458.39 1593.29 393.68 1623.11 393.68 1608.2 458.39"/>
    <polygon class="cls-10" points="1836.07 296.7 1770.08 304.18 1773.46 274.55 1836.07 296.7"/>
    <polygon class="cls-10" points="1681.85 458.93 1653.24 398.99 1682.35 392.51 1681.85 458.93"/>
    <polygon class="cls-10" points="1750.06 415.58 1698.11 374.21 1721.45 355.64 1750.06 415.58"/>
    <polygon class="cls-10" points="1802.57 366.38 1739.06 346.94 1753.97 321.11 1802.57 366.38"/>
    <polygon class="cls-11" points="1828.24 342.09 1739.43 330.04 1766.77 276.88 1828.24 342.09"/>
    <polygon class="cls-11" points="1846.84 258.34 1762.35 288.23 1762.35 228.45 1846.84 258.34"/>
    <polygon class="cls-11" points="1840.07 181.07 1767.82 234.08 1750.55 176.86 1840.07 181.07"/>
    <polygon class="cls-11" points="1804.77 105.31 1753.86 179.06 1718.81 130.64 1804.77 105.31"/>
    <polygon class="cls-11" points="1750.96 53.86 1727.9 140.46 1678.58 106.7 1750.96 53.86"/>
    <polygon class="cls-11" points="1680.28 18.97 1687.06 108.33 1629.36 92.72 1680.28 18.97"/>
    <polygon class="cls-11" points="1602.22 14.33 1640.83 95.2 1581.39 101.49 1602.22 14.33"/>
    <polygon class="cls-11" points="1529.93 32.77 1588.15 100.89 1532.36 122.35 1529.93 32.77"/>
    <polygon class="cls-11" points="1419.37 143.18 1507.48 159.54 1477.59 211.3 1419.37 143.18"/>
    <polygon class="cls-11" points="1398.42 219.14 1486.36 201.87 1477.66 261 1398.42 219.14"/>
    <polygon class="cls-11" points="1401.91 304.66 1474.54 251.65 1491.73 308.89 1401.91 304.66"/>
    <polygon class="cls-11" points="1439.97 380.2 1490.88 306.45 1525.93 354.87 1439.97 380.2"/>
    <polygon class="cls-11" points="1499.84 436.14 1512.87 347.48 1565.73 375.4 1499.84 436.14"/>
    <polygon class="cls-11" points="1565.44 465.71 1558.65 376.35 1616.35 391.96 1565.44 465.71"/>
    <polygon class="cls-11" points="1646.64 474.48 1610.11 392.65 1669.69 387.88 1646.64 474.48"/>
    <polygon class="cls-11" points="1715.9 450.86 1654.43 385.65 1709.11 361.5 1715.9 450.86"/>
    <polygon class="cls-11" points="1782.32 404.75 1703.08 362.89 1747.03 322.37 1782.32 404.75"/>
    <ellipse class="cls-10" cx="1622.35" cy="243.68" rx="146" ry="150"/>
    <polygon class="cls-11" points="1463.32 77.51 1544.19 116.12 1501.93 158.38 1463.32 77.51"/>
    <ellipse cx="1651.85" cy="200.18" rx="6" ry="13"/>
    <ellipse cx="1594.85" cy="201.18" rx="6" ry="13"/>
    <ellipse class="cls-9" cx="1594.85" cy="196.68" rx="2" ry="3.5"/>
    <ellipse class="cls-9" cx="1651.85" cy="196.68" rx="2" ry="3.5"/>
    <circle class="cls-12" cx="1692.85" cy="253.18" r="35"/>
    <circle class="cls-13" cx="1556.85" cy="253.18" r="35"/>
    <circle class="cls-14" cx="1556.35" cy="258.68" r="11"/>
    <circle class="cls-14" cx="1693.35" cy="254.68" r="11"/>
    <path class="cls-9" d="M1582,307.71c2.78.89,6,1.81,9.75,2.62,0,0,5.41,1.17,10.91,1.77a109.51,109.51,0,0,0,46.78-5.7c11.87-4.8,16.6-9.83,18.24-8.13,2.78,2.87-7.6,20.36-21.92,32.45-9.54,8-13.57,10.74-17.8,11.36-8.51,1.26-15.61-2.7-18.73-4.74"/>
    <path class="cls-10" d="M1621.33,240.41c-3,.69-13.34,3.46-19,13-1.45,2.43-3.77,6.33-3,11,1.37,8.38,11.91,14.21,21,14a22.67,22.67,0,0,0,12-4"/>
    <path class="cls-15" d="M1600.85,267.18c-.57,2,7.53,5.78,8,6a26.61,26.61,0,0,0,15,2c3.35-.46,11.05-2.1,11-4C1634.74,267.27,1601.94,263.28,1600.85,267.18Z"/>
    <path class="cls-16" d="M1651.85,170.18c.18-2.51.78-8.6,3-9,.78-.15,1.44.47,4,3,3.83,3.78,5.74,5.67,7,7s3.41,3.54,6,6"/>
    <path class="cls-16" d="M1600.35,166.68c-.13-.63-1.23-5.55-4-6-.87-.15-1.62.2-3,1a46.22,46.22,0,0,0-7,5"/>
    <line class="cls-4" x1="452.61" y1="181.77" x2="453.61" y2="180.85"/>
    <line class="cls-4" x1="491.61" y1="1004.62" x2="498.61" y2="1054.96"/>
    <line class="cls-4" x1="547.61" y1="1050.38" x2="498.52" y2="1055.02"/>
    <line class="cls-4" x1="419.84" y1="1006.9" x2="426.84" y2="1057.24"/>
    <line class="cls-4" x1="473.13" y1="1050.46" x2="424.04" y2="1055.1"/>
    <path class="cls-17" d="M681.57,489.21c17.19,16.65,34.47,15.08,39.4,4.58,5.95-12.69-2.84-45.45-16.26-46.66-9.21-.84-20.12,13.23-21.89,34.76"/>
    <path class="cls-3" d="M684.07,450.17c32.39,5.22,41.45.69,42.86-5.27,2.05-8.71-9.87-30.47-24.46-27.5-8.71,1.77-16,11.87-18.19,25.37"/>
    <ellipse class="cls-9" cx="712.76" cy="438.94" rx="2.11" ry="1.83"/>
    <ellipse class="cls-9" cx="696.75" cy="442.6" rx="2.11" ry="1.83"/>
    <ellipse class="cls-9" cx="700.96" cy="432.85" rx="2.11" ry="1.83"/>
    <ellipse class="cls-9" cx="706.86" cy="445.03" rx="2.11" ry="1.83"/>
    <ellipse class="cls-9" cx="702.36" cy="422.44" rx="2.63" ry="2.24"/>
    <ellipse class="cls-9" cx="714.45" cy="429.2" rx="2.11" ry="1.83"/>
    <ellipse class="cls-9" cx="721.19" cy="443.81" rx="2.11" ry="1.83"/>
    <ellipse class="cls-9" cx="693.38" cy="432.85" rx="2.11" ry="1.83"/>
    <ellipse class="cls-9" cx="700.96" cy="446.25" rx="2.11" ry="1.83"/>
    <path class="cls-18" d="M706.29,477.94c-.07,5.74,1.81,9.77,3.32,9.88s3.81-3.79,4-9.88"/>
    <ellipse class="cls-19" cx="708.69" cy="459.31" rx="1.03" ry="1.36"/>
    <ellipse cx="708.42" cy="454.8" rx="0.5" ry="1.58"/>
    <ellipse cx="698.06" cy="455.62" rx="0.41" ry="1.48"/>
    <ellipse class="cls-19" cx="697.43" cy="459.31" rx="1.03" ry="1.36"/>
    <path d="M699.49,464.85c1.2-1.1,7.85-.2,8.16,1,.21.86-2.56,2.62-5.44,2C699.81,467.4,698.73,465.55,699.49,464.85Z"/>
    <path class="cls-20" d="M350.16,631.75c-29-32.19-42.36-65.44-23.91-68.78,10.62-1.92,30.16-2.88,53,12.5"/>
    <path class="cls-20" d="M461.72,564.4C490.2,543.32,517.1,536,516.8,552.46c-.17,9.5-2.42,26.66-17.39,44.61"/>
    <path class="cls-21" d="M327.08,978.65c-3.5,3.62-15-2.51-22.46-8.06-23.86-17.8-30.55-48.37-34.95-69.81-3.2-15.54-11-55.72,2.49-102,7.42-25.49,19.31-46,30-64.44,12.49-21.59,13.65-18.91,22.47-34.9,20.83-37.79,13.28-50.79,32.45-88.61,16.58-32.7,34.29-46.79,39.94-51,8.26-6.18,20.36-15,37.45-16.11,0,0,16.72-1.1,32.55,6.55a74.48,74.48,0,0,1,7.39,4.19,66.58,66.58,0,0,1,10,8.05c-9.66,1.44-16-.58-20-2.68-4.33-2.29-5.53-4.47-10-5.37s-8.45.37-15,2.68c-7.36,2.61-7,3.76-12.48,5.37-9.09,2.66-10.65-.33-15,2.69-3.79,2.63-3.14,5.31-10,13.42-1.87,2.21-1.71,1.76-5,5.37a164.56,164.56,0,0,0-15,18.8c-1.82,2.72-3.25,4.86-5,8-2.59,4.76-3,6.66-7.49,16.11a57.76,57.76,0,0,0-2.49,5.37c-2.06,6-.69,8.56-2.5,13.43-1.41,3.8-2.71,3.46-4.73,7.42-2.88,5.6-2.7,11-2.76,14.06-.33,16.52-9,33.06-10,34.9-4.46,8.35-6.19,7-15,21.48-.92,1.51-3.94,6.55-7.49,13.43a156.16,156.16,0,0,0-7.49,16.11c-1.93,5-2.39,7.16-5,16.11-2.91,10-4.94,17-7.48,24.16-4.19,11.82-5.47,12.07-10,24.17-4.33,11.59-6.5,17.39-7.49,24.16-2.2,15.07,1.35,27.51,5,40.28,1.7,6,4.47,12.92,10,26.85,3.92,9.9,5.89,14.33,10,24.16C329.1,973.81,328.45,977.23,327.08,978.65Z"/>
    <path class="cls-22" d="M382.82,582.85a71.82,71.82,0,0,1,15-18.79A65.71,65.71,0,0,1,432.75,548a60.47,60.47,0,0,1,34.95,5.37c18.1,8.86,26.81,24.66,32.45,34.9,6.42,11.65,8.91,21.2,12.48,34.91,7,26.63,3.46,30.53,10,56.38a278.88,278.88,0,0,0,15,43c5.64,12.81,8.84,17.47,15,29.54A445.58,445.58,0,0,1,575,805.71c6.71,19.3,7.32,25.37,7.49,29.53.27,6.42-.65,14.13-2.49,29.54-1.14,9.54-1.71,14.31-2.5,18.79a179.56,179.56,0,0,1-12.48,40.28c-2.41,5.45-9.91,22.16-22.47,37.59-34.94,42.92-86.38,48-89.87,48.33-25.2,2.11-44.2-4.5-69.9-13.43-22.95-8-39.43-13.7-54.92-26.85C281.24,929.88,282.72,856.11,283,848.67c1.24-37.33,14-53.53,42.43-118.14,0,0,20-46,34.88-86.54,1.2-3.28,2.4-6.58,2.4-6.58,6.53-18,11.6-33,15.15-43.82"/>
    <ellipse class="cls-23" cx="442.66" cy="832.32" rx="99.86" ry="131.57"/>
    <path class="cls-24" d="M428.93,616.17c3.7.67,8.84,1.6,15,2.69,14.83,2.62,15.92,2.71,17.48,2.68,12.44-.18,14.26-6.76,22.46-5.37,7.76,1.32,16.11,8.9,17.48,18.8,1.9,13.7-10.82,23-12.48,24.16-4.71,3.33-9,4-17.48,5.37-6.27,1-13.39,2.15-22.47,0a52.69,52.69,0,0,1-17.47-8C425,652,420.61,648.92,419,643c-2-7.13,1.26-13.83,2.49-16.11"/>
    <path class="cls-9" d="M441.67,619.29c-.53.06-4.52.58-6.5,3.31s-.94,6.36,2.17,8.28c4,2.49,10.48,1.5,13-1.66,2.32-2.92.17-6.35,0-6.62"/>
    <ellipse class="cls-25" cx="405.22" cy="606.77" rx="6.24" ry="6.71"/>
    <ellipse class="cls-25" cx="510.07" cy="598.72" rx="6.24" ry="6.71"/>
    <path class="cls-26" d="M418.52,642.75h0a11.23,11.23,0,0,1,5-5.37c6.59-3.26,14.62,3.1,17.47,5.37a25,25,0,0,1,7.21,8.13c1.52,2.85,2.09,5.39,2.78,5.29,1.16-.16-.69-7.38,2.5-10.74,3.54-3.73,12.1-1.44,17.47,2.69,1.21.93,9.44,7.46,7.49,13.42-1.61,4.92-10.46,5.21-15,5.37-5.32.2-15.34-.46-27.46-8"/>
    <path class="cls-1" d="M1440.63,977c-6.41-21.14-10.9-39.12-14-52.64-11-48.25-9.89-65.2-41.58-79.56-6.46-2.92-47.46-20.78-81.65-12.74-54.86,12.89-54,83.46-53.69,92.52"/>
    <path class="cls-17" d="M1207.07,948.31c21.66,20.37,43.44,18.45,49.65,5.6,7.5-15.53-3.57-55.62-20.49-57.1-11.61-1-25.36,16.19-27.58,42.54"/>
    <path class="cls-3" d="M1210.22,900.53c40.82,6.38,52.24.84,54-6.45,2.58-10.65-12.44-37.29-30.82-33.65-11,2.16-20.21,14.53-22.93,31"/>
    <ellipse class="cls-9" cx="1246.38" cy="886.79" rx="2.66" ry="2.24"/>
    <ellipse class="cls-9" cx="1226.2" cy="891.26" rx="2.66" ry="2.24"/>
    <ellipse class="cls-9" cx="1231.51" cy="879.34" rx="2.66" ry="2.24"/>
    <ellipse class="cls-9" cx="1238.94" cy="894.24" rx="2.66" ry="2.24"/>
    <ellipse class="cls-9" cx="1233.27" cy="866.59" rx="3.32" ry="2.74"/>
    <ellipse class="cls-9" cx="1248.5" cy="874.87" rx="2.66" ry="2.24"/>
    <ellipse class="cls-9" cx="1257" cy="892.75" rx="2.66" ry="2.24"/>
    <ellipse class="cls-9" cx="1221.95" cy="879.34" rx="2.66" ry="2.24"/>
    <ellipse class="cls-9" cx="1231.51" cy="895.73" rx="2.66" ry="2.24"/>
    <path class="cls-18" d="M1238.22,934.51c-.09,7,2.28,12,4.19,12.1s4.8-4.64,5-12.1"/>
    <ellipse class="cls-19" cx="1241.25" cy="911.71" rx="1.3" ry="1.66"/>
    <ellipse cx="1240.91" cy="906.2" rx="0.63" ry="1.94"/>
    <ellipse cx="1227.85" cy="907.2" rx="0.51" ry="1.81"/>
    <ellipse class="cls-19" cx="1227.06" cy="911.71" rx="1.3" ry="1.66"/>
    <path d="M1229.65,918.5c1.51-1.35,9.89-.25,10.28,1.24.28,1.06-3.23,3.21-6.85,2.48C1230.05,921.61,1228.7,919.35,1229.65,918.5Z"/>
    <path class="cls-17" d="M1311.07,983.31c21.66,20.37,43.44,18.45,49.65,5.6,7.5-15.53-3.57-55.62-20.49-57.1-11.61-1-25.36,16.19-27.58,42.54"/>
    <path class="cls-3" d="M1314.22,935.53c40.82,6.38,52.24.84,54-6.45,2.58-10.65-12.44-37.29-30.82-33.65-11,2.16-20.21,14.53-22.93,31"/>
    <ellipse class="cls-9" cx="1350.38" cy="921.79" rx="2.66" ry="2.24"/>
    <ellipse class="cls-9" cx="1330.2" cy="926.26" rx="2.66" ry="2.24"/>
    <ellipse class="cls-9" cx="1335.51" cy="914.34" rx="2.66" ry="2.24"/>
    <ellipse class="cls-9" cx="1342.94" cy="929.24" rx="2.66" ry="2.24"/>
    <ellipse class="cls-9" cx="1337.27" cy="901.59" rx="3.32" ry="2.74"/>
    <ellipse class="cls-9" cx="1352.5" cy="909.87" rx="2.66" ry="2.24"/>
    <ellipse class="cls-9" cx="1361" cy="927.75" rx="2.66" ry="2.24"/>
    <ellipse class="cls-9" cx="1325.95" cy="914.34" rx="2.66" ry="2.24"/>
    <ellipse class="cls-9" cx="1335.51" cy="930.73" rx="2.66" ry="2.24"/>
    <path class="cls-18" d="M1342.22,969.51c-.09,7,2.28,12,4.19,12.1s4.8-4.64,5-12.1"/>
    <ellipse class="cls-19" cx="1345.25" cy="946.71" rx="1.3" ry="1.66"/>
    <ellipse cx="1344.91" cy="941.2" rx="0.63" ry="1.94"/>
    <ellipse cx="1331.85" cy="942.2" rx="0.51" ry="1.81"/>
    <ellipse class="cls-19" cx="1331.06" cy="946.71" rx="1.3" ry="1.66"/>
    <path d="M1333.65,953.5c1.51-1.35,9.89-.25,10.28,1.24.28,1.06-3.23,3.21-6.85,2.48C1334.05,956.61,1332.7,954.35,1333.65,953.5Z"/>
    <path class="cls-17" d="M1258.07,925.31c21.66,20.37,43.44,18.45,49.65,5.6,7.5-15.53-3.57-55.62-20.49-57.1-11.61-1-25.36,16.19-27.58,42.54"/>
    <path class="cls-3" d="M1261.22,877.53c40.82,6.38,52.24.84,54-6.45,2.58-10.65-12.44-37.29-30.82-33.65-11,2.16-20.21,14.53-22.93,31"/>
    <ellipse class="cls-9" cx="1297.38" cy="863.79" rx="2.66" ry="2.24"/>
    <ellipse class="cls-9" cx="1277.2" cy="868.26" rx="2.66" ry="2.24"/>
    <ellipse class="cls-9" cx="1282.51" cy="856.34" rx="2.66" ry="2.24"/>
    <ellipse class="cls-9" cx="1289.94" cy="871.24" rx="2.66" ry="2.24"/>
    <ellipse class="cls-9" cx="1284.27" cy="843.59" rx="3.32" ry="2.74"/>
    <ellipse class="cls-9" cx="1299.5" cy="851.87" rx="2.66" ry="2.24"/>
    <ellipse class="cls-9" cx="1308" cy="869.75" rx="2.66" ry="2.24"/>
    <ellipse class="cls-9" cx="1272.95" cy="856.34" rx="2.66" ry="2.24"/>
    <ellipse class="cls-9" cx="1282.51" cy="872.73" rx="2.66" ry="2.24"/>
    <path class="cls-18" d="M1289.22,911.51c-.09,7,2.28,12,4.19,12.1s4.8-4.64,5-12.1"/>
    <ellipse class="cls-19" cx="1292.25" cy="888.71" rx="1.3" ry="1.66"/>
    <ellipse cx="1291.91" cy="883.2" rx="0.63" ry="1.94"/>
    <ellipse cx="1278.85" cy="884.2" rx="0.51" ry="1.81"/>
    <ellipse class="cls-19" cx="1278.06" cy="888.71" rx="1.3" ry="1.66"/>
    <path d="M1280.65,895.5c1.51-1.35,9.89-.25,10.28,1.24.28,1.06-3.23,3.21-6.85,2.48C1281.05,898.61,1279.7,896.35,1280.65,895.5Z"/>
    <ellipse class="cls-9" cx="1446.94" cy="900.24" rx="2.66" ry="2.24"/>
    <path class="cls-17" d="M1432.78,958.51c17.18,16.65,34.47,15.08,39.4,4.58,6-12.69-2.84-45.45-16.26-46.67-9.21-.83-20.13,13.24-21.89,34.77"/>
    <path class="cls-3" d="M1435.27,919.47c32.4,5.21,41.46.69,42.86-5.28,2-8.7-9.86-30.47-24.45-27.5-8.71,1.77-16,11.88-18.2,25.38"/>
    <ellipse class="cls-9" cx="1463.97" cy="908.24" rx="2.11" ry="1.83"/>
    <ellipse class="cls-9" cx="1447.96" cy="911.89" rx="2.11" ry="1.83"/>
    <ellipse class="cls-9" cx="1452.17" cy="902.15" rx="2.11" ry="1.83"/>
    <ellipse class="cls-9" cx="1458.07" cy="914.33" rx="2.11" ry="1.83"/>
    <ellipse class="cls-9" cx="1453.57" cy="891.73" rx="2.63" ry="2.24"/>
    <ellipse class="cls-9" cx="1465.65" cy="898.5" rx="2.11" ry="1.83"/>
    <ellipse class="cls-9" cx="1472.4" cy="913.11" rx="2.11" ry="1.83"/>
    <ellipse class="cls-9" cx="1444.58" cy="902.15" rx="2.11" ry="1.83"/>
    <ellipse class="cls-9" cx="1452.17" cy="915.55" rx="2.11" ry="1.83"/>
    <path class="cls-18" d="M1457.49,947.23c-.07,5.75,1.82,9.78,3.33,9.89s3.81-3.79,4-9.88"/>
    <ellipse class="cls-19" cx="1459.9" cy="928.61" rx="1.03" ry="1.36"/>
    <ellipse cx="1459.63" cy="924.1" rx="0.5" ry="1.58"/>
    <ellipse cx="1449.26" cy="924.91" rx="0.41" ry="1.48"/>
    <ellipse class="cls-19" cx="1448.64" cy="928.61" rx="1.03" ry="1.36"/>
    <path d="M1450.7,934.15c1.19-1.1,7.84-.21,8.15,1,.22.87-2.56,2.62-5.43,2C1451,936.7,1449.94,934.85,1450.7,934.15Z"/>
    <path class="cls-27" d="M1147.13,943a113.25,113.25,0,0,0,3.81,16.89c1,3.36,5.53,17.42,19.84,38.6,12.3,18.21,18.45,27.31,31.27,35.58,8,5.16,17.38,9.32,29.75,12.67,59.43,16.06,250.56-7.81,188.42-.61a108.1,108.1,0,0,0,26.7-10.25c26.53-14.7,36.71-36.93,45.77-56.69a167.49,167.49,0,0,0,11.44-34.38Z"/>
    <polygon class="cls-9" points="1012.57 747.16 923.12 776.35 905.48 715.3 994.93 686.12 1012.57 747.16"/>
    <path class="cls-28" d="M945,866.27a22.7,22.7,0,0,0,12.34-2.62c3.54-1.93,5.61-4.34,8.63-7.86,3.43-4,6.5-7.59,8.63-13.1,1.91-5,4.78-12.39,1.23-18.34-3.92-6.59-14.12-8.73-17.26-5.24-3.72,4.13,3.76,14.68,0,18.34-3.18,3.09-9.92-3.09-18.5,0a18.28,18.28,0,0,0-7.4,5.24"/>
    <rect class="cls-9" x="954.85" y="731.98" width="11.71" height="113.33"/>
    <g>
      <path class="cls-6" d="M939.83,723.73a2,2,0,0,1,.91.49,1.58,1.58,0,0,1,.43.74,2.2,2.2,0,0,1,0,1.06,5.4,5.4,0,0,1-.34,1.21,11.15,11.15,0,0,1-.6,1.27c-.24.43-.49.83-.76,1.22a28.07,28.07,0,0,1-2.17,2.86c.22.25.45.55.68.87a7.55,7.55,0,0,1,.57,1,5.92,5.92,0,0,1,.48,1.19,5.09,5.09,0,0,1,.2,1.37,3,3,0,0,1-.33,1.42,4.59,4.59,0,0,1-1.09,1.36,7.17,7.17,0,0,1-2.06,1.18,6.15,6.15,0,0,1-2.18.55,3.14,3.14,0,0,1-1.54-.32,2.58,2.58,0,0,1-1-.94,5,5,0,0,1-.57-1.3,7,7,0,0,1-.26-1.42c0-.48-.07-.91-.07-1.31a9.75,9.75,0,0,1,.08-1.34,20.73,20.73,0,0,1-3.13-1.12,12.1,12.1,0,0,1-1.2-.59,9.71,9.71,0,0,1-1.09-.7,5.53,5.53,0,0,1-.86-.8,2.55,2.55,0,0,1-.49-.89,1.8,1.8,0,0,1,0-1,2.31,2.31,0,0,1,.6-1,4.87,4.87,0,0,1,2.11-1.39,5,5,0,0,1,2.19-.23,8.2,8.2,0,0,1,2,.45,7.15,7.15,0,0,1,1.46.69,3.5,3.5,0,0,1,.63.47,16.24,16.24,0,0,1,1.36-2.12,12.05,12.05,0,0,1,1.56-1.68,5.61,5.61,0,0,1,2.06-1.21,4.79,4.79,0,0,1,1.2-.21,4,4,0,0,1,1.26.16Zm-11.28,9.48a.67.67,0,0,0,.5,0,1.19,1.19,0,0,0,.39-.3.4.4,0,0,0,.11-.36c0-.12-.12-.2-.29-.26a4.48,4.48,0,0,1-.87-.32,9.88,9.88,0,0,1-.94-.54,4.55,4.55,0,0,1-.82-.66,1.74,1.74,0,0,1-.46-.73.92.92,0,0,1,.16-.82,2.39,2.39,0,0,1,1.18-.72.68.68,0,0,0,.41-.29.51.51,0,0,0,.06-.37.42.42,0,0,0-.24-.25.76.76,0,0,0-.49,0,4.1,4.1,0,0,0-2,1.26,1.64,1.64,0,0,0-.27,1.47,2.65,2.65,0,0,0,.5.93,4.88,4.88,0,0,0,.85.85,6.88,6.88,0,0,0,1.07.67,6.29,6.29,0,0,0,1.15.44Zm2.14.35a.64.64,0,0,0,.4-.29.49.49,0,0,0,0-.35.45.45,0,0,0-.24-.25.71.71,0,0,0-.5,0,.61.61,0,0,0-.39.29.49.49,0,0,0,0,.35.39.39,0,0,0,.24.25A.68.68,0,0,0,930.69,733.56Z"/>
      <path class="cls-6" d="M952,729.53a9.28,9.28,0,0,1,.7,1.72,4.17,4.17,0,0,1,0,2.82,3.6,3.6,0,0,1-2.37,1.71,2.09,2.09,0,0,1-.9.14,1,1,0,0,1-.5-.18.86.86,0,0,1-.26-.42,17.54,17.54,0,0,1-2.17,1.39,12,12,0,0,1-1.84.8,6.5,6.5,0,0,1-1.72.34,3.51,3.51,0,0,1-1.31-.19,2.26,2.26,0,0,1-.9-.62,2.2,2.2,0,0,1-.49-.9,2.89,2.89,0,0,1-.06-1.32,3.58,3.58,0,0,1,.57-1.4,5.56,5.56,0,0,1,1.17-1.27,5.63,5.63,0,0,1,1.78-.92,7.39,7.39,0,0,1,1.57-.33,10.65,10.65,0,0,1,1.87,0,1.64,1.64,0,0,0-.75-.82,2.46,2.46,0,0,0-1.06-.23,6.63,6.63,0,0,0-1.22.12c-.42.09-.83.16-1.21.22a8.14,8.14,0,0,1-1,.1.8.8,0,0,1-.68-.28.87.87,0,0,1-.15-.76,2,2,0,0,1,.53-.85,5.21,5.21,0,0,1,1.07-.79,9,9,0,0,1,3.58-1,6.73,6.73,0,0,1,2.19.15,5.73,5.73,0,0,1,2,.92A5,5,0,0,1,952,729.5Zm-7.77,3a.56.56,0,0,0,.33-.23.34.34,0,0,0,.05-.29.37.37,0,0,0-.19-.22.55.55,0,0,0-.4,0,3.66,3.66,0,0,0-1.19.57,3.8,3.8,0,0,0-.83.82,3.13,3.13,0,0,0-.68,1.94.25.25,0,0,0,.16.27.65.65,0,0,0,.36.05.8.8,0,0,0,.36-.14.36.36,0,0,0,.17-.31,2.73,2.73,0,0,1,.1-.73,2.41,2.41,0,0,1,.33-.71,2.19,2.19,0,0,1,.58-.6,3,3,0,0,1,.89-.41Zm1.72-.56a.53.53,0,0,0,.33-.24.39.39,0,0,0,0-.29.34.34,0,0,0-.2-.21.52.52,0,0,0-.39,0,.56.56,0,0,0-.34.24.39.39,0,0,0-.07.3.38.38,0,0,0,.21.2A.57.57,0,0,0,945.91,732Z"/>
      <path class="cls-6" d="M965.9,725.26q.11.24.18.45a3.68,3.68,0,0,1,.15.47,6.51,6.51,0,0,1,.09,3.65,8.46,8.46,0,0,1-1.57,3,11.19,11.19,0,0,1-2.52,2.24,12.49,12.49,0,0,1-2.76,1.35,8.58,8.58,0,0,1-1.41.33,3.88,3.88,0,0,1-1.14,0,1.41,1.41,0,0,1-.76-.39,1.05,1.05,0,0,1-.24-.77,2.52,2.52,0,0,1,.88-1.63,12.25,12.25,0,0,1,1.81-1.39,20.09,20.09,0,0,1,2.59-1.32A9.08,9.08,0,0,1,958,732a6.11,6.11,0,0,1-2.52-.44,4.79,4.79,0,0,1-1.78-1.29,4.86,4.86,0,0,1-1-1.86,5.2,5.2,0,0,1,.71-4.38,2.74,2.74,0,0,1,1.24-1.07,1.37,1.37,0,0,1,.85,0,2.69,2.69,0,0,1,.84.4,5.12,5.12,0,0,1,.81.69,7.29,7.29,0,0,1,.73.85,15.71,15.71,0,0,1,1.5,2.46,10,10,0,0,1,.32-4.26,2.77,2.77,0,0,1,1.6-1.89,2.45,2.45,0,0,1,2.3.65,8.93,8.93,0,0,1,2.29,3.47Zm-10.45-.78a.73.73,0,0,0,.41-.12.66.66,0,0,0,.25-.28.26.26,0,0,0,0-.28.35.35,0,0,0-.31-.12,3.27,3.27,0,0,0-.91.15,2.07,2.07,0,0,0-1,.66,2.81,2.81,0,0,0-.49,1,3.54,3.54,0,0,0-.09,1.22,6.21,6.21,0,0,0,.22,1.23,5.42,5.42,0,0,0,.37.94,2.27,2.27,0,0,0,.48.64.37.37,0,0,0,.35.1.69.69,0,0,0,.34-.17.51.51,0,0,0,.18-.29.29.29,0,0,0-.1-.3,1.31,1.31,0,0,1-.27-.41,4.1,4.1,0,0,1-.24-.68,6.87,6.87,0,0,1-.22-1.08,5.5,5.5,0,0,1,0-1.07,1.66,1.66,0,0,1,.31-.82A.91.91,0,0,1,955.45,724.48Zm.24,5.85a.56.56,0,0,0,.33-.23.46.46,0,0,0,.05-.29.38.38,0,0,0-.2-.22.52.52,0,0,0-.39,0,.68.68,0,0,0-.35.25.36.36,0,0,0-.06.29.33.33,0,0,0,.21.21A.53.53,0,0,0,955.69,730.33Z"/>
      <path class="cls-6" d="M979.65,720.78a4.22,4.22,0,0,1,.18.45l.15.46a6.54,6.54,0,0,1,.08,3.66,8.11,8.11,0,0,1-1.57,3A10.56,10.56,0,0,1,976,730.6a11.67,11.67,0,0,1-2.76,1.35,6.85,6.85,0,0,1-1.4.33,3.35,3.35,0,0,1-1.15,0,1.37,1.37,0,0,1-.75-.38,1,1,0,0,1-.24-.77,2.49,2.49,0,0,1,.88-1.63,10.62,10.62,0,0,1,1.81-1.39,17.33,17.33,0,0,1,2.59-1.32,9.32,9.32,0,0,1-3.23.71,5.93,5.93,0,0,1-2.51-.44,4.57,4.57,0,0,1-1.78-1.29,5,5,0,0,1-1-1.85,5.32,5.32,0,0,1-.14-2.25,5.13,5.13,0,0,1,.86-2.13,2.69,2.69,0,0,1,1.24-1.07,1.45,1.45,0,0,1,.85,0,2.94,2.94,0,0,1,.84.4,5.12,5.12,0,0,1,.81.69,8.22,8.22,0,0,1,.73.85,15.37,15.37,0,0,1,1.5,2.47,10,10,0,0,1,.32-4.27,2.79,2.79,0,0,1,1.6-1.89,2.44,2.44,0,0,1,2.3.66,8.67,8.67,0,0,1,2.28,3.47ZM969.2,720a.73.73,0,0,0,.41-.12.7.7,0,0,0,.25-.27.28.28,0,0,0,0-.28.31.31,0,0,0-.31-.12,3.41,3.41,0,0,0-.92.15,2.09,2.09,0,0,0-1,.65,2.73,2.73,0,0,0-.49,1,3.58,3.58,0,0,0-.09,1.23,6.11,6.11,0,0,0,.22,1.22,4.72,4.72,0,0,0,.37.94,2.27,2.27,0,0,0,.48.64.33.33,0,0,0,.34.1.64.64,0,0,0,.35-.17.49.49,0,0,0,.18-.28.3.3,0,0,0-.1-.3,1.38,1.38,0,0,1-.27-.42,5.2,5.2,0,0,1-.25-.68,8.11,8.11,0,0,1-.21-1.07,4.81,4.81,0,0,1,0-1.07,1.66,1.66,0,0,1,.31-.83A.93.93,0,0,1,969.2,720Zm.24,5.86a.52.52,0,0,0,.32-.24.35.35,0,0,0,0-.29.33.33,0,0,0-.19-.21.5.5,0,0,0-.4,0,.59.59,0,0,0-.34.24.35.35,0,0,0-.06.3.32.32,0,0,0,.21.2A.57.57,0,0,0,969.44,725.85Z"/>
      <path class="cls-6" d="M993.4,716.29q.09.24.18.45l.15.47a6.6,6.6,0,0,1,.08,3.65,8.3,8.3,0,0,1-1.57,3,11,11,0,0,1-2.52,2.24,12.49,12.49,0,0,1-2.76,1.35,8.35,8.35,0,0,1-1.41.33,3.88,3.88,0,0,1-1.14,0,1.35,1.35,0,0,1-.75-.39,1,1,0,0,1-.24-.77,2.43,2.43,0,0,1,.88-1.63,11.28,11.28,0,0,1,1.81-1.39,19.3,19.3,0,0,1,2.58-1.32,9.08,9.08,0,0,1-3.22.72,6.34,6.34,0,0,1-2.52-.44,4.75,4.75,0,0,1-1.77-1.29,5.09,5.09,0,0,1-1.14-4.1,5.15,5.15,0,0,1,.85-2.14,2.79,2.79,0,0,1,1.24-1.07,1.4,1.4,0,0,1,.86,0,2.92,2.92,0,0,1,.84.4,6.2,6.2,0,0,1,.81.69,8.3,8.3,0,0,1,.72.85,16.51,16.51,0,0,1,1.51,2.46,10,10,0,0,1,.31-4.26,2.82,2.82,0,0,1,1.6-1.89,2.45,2.45,0,0,1,2.3.65,8.82,8.82,0,0,1,2.29,3.47Zm-10.46-.78a.79.79,0,0,0,.41-.12.6.6,0,0,0,.25-.28.26.26,0,0,0,0-.28.37.37,0,0,0-.32-.12,3.33,3.33,0,0,0-.91.15,2,2,0,0,0-1,.66,2.83,2.83,0,0,0-.5,1,4.09,4.09,0,0,0-.09,1.22A7,7,0,0,0,981,719a5.76,5.76,0,0,0,.38.94,2.06,2.06,0,0,0,.48.64.35.35,0,0,0,.34.1.82.82,0,0,0,.35-.17.7.7,0,0,0,.18-.29.32.32,0,0,0-.11-.3,1.32,1.32,0,0,1-.26-.41,5.2,5.2,0,0,1-.25-.68,6.08,6.08,0,0,1-.21-1.08,4.27,4.27,0,0,1,0-1.07,1.65,1.65,0,0,1,.3-.82A.93.93,0,0,1,982.94,715.51Zm.24,5.85a.53.53,0,0,0,.33-.24.37.37,0,0,0,0-.28.4.4,0,0,0-.19-.22.55.55,0,0,0-.4,0,.6.6,0,0,0-.34.24.39.39,0,0,0-.07.3.36.36,0,0,0,.21.21A.58.58,0,0,0,983.18,721.36Z"/>
    </g>
    <path class="cls-9" d="M206.37,267.12h0a42.79,42.79,0,0,0,15,12,44.27,44.27,0,0,0,15,4c5.17.44,16.25,1.4,25-5,5.86-4.29,8.43-10.24,18-17a11.45,11.45,0,0,1,4-2c6-1.53,9.52,3.42,16,5,7.2,1.75,13.76-1.71,20-5a45.15,45.15,0,0,0,15-13c2.63-3.58,4-6.63,6-11,2.85-6.28,4.53-10,5-15,.16-1.7,0-2-2-15-1.53-9.78-1.83-12-3-16a38,38,0,0,0-4-10,34.83,34.83,0,0,0-8-9,33.28,33.28,0,0,0-12-7c-5.51-1.7-6.47-.13-9-2-2.22-1.65-2-3.23-6-13-.35-.84-1.23-2.9-3-7-3.25-7.55-3.68-8.4-4-9a45.09,45.09,0,0,0-6-9c-1.88-2.15-4-4-10-8-7.71-5.12-11.57-7.67-15-9-8.06-3.13-15.15-2.61-22-2-10,.89-26.45,2.35-38,14-10.76,10.85-8.27,21.46-18,25-6,2.18-8.24-1.39-20-2-5.43-.28-18.51-1-30,6-10.45,6.33-16.47,17.1-22,27-.48.85-5,9-5,9h0a43.25,43.25,0,0,0-29,3c-19.2,9.47-22.7,30-23,32-.14.94-3.17,23.2,13,38,2,1.81,14.37,12.77,29,11,8.28-1,13.43-5.63,21-3,5,1.72,7.64,5.42,9,7,5.4,6.26,18.38,11.64,52,7"/>
    <path class="cls-9" d="M652.31,284.73h0a59.74,59.74,0,0,0,21.28,15.87,66.14,66.14,0,0,0,21.29,5.29c7.33.58,23.06,1.85,35.47-6.61,8.32-5.67,12-13.54,25.55-22.48a16.86,16.86,0,0,1,5.67-2.64c8.52-2,13.51,4.52,22.71,6.61,10.22,2.32,19.52-2.26,28.38-6.61A63.08,63.08,0,0,0,833.94,257c3.73-4.73,5.7-8.76,8.52-14.54,4-8.3,6.43-13.17,7.09-19.83.23-2.24.05-2.62-2.84-19.83-2.16-12.92-2.6-15.89-4.25-21.15-1.61-5.09-2.8-8.77-5.68-13.22a47.29,47.29,0,0,0-11.35-11.89,48.28,48.28,0,0,0-17-9.26c-7.82-2.23-9.18-.16-12.77-2.64-3.15-2.18-2.82-4.27-8.52-17.19-.49-1.11-1.74-3.82-4.25-9.25-4.62-10-5.23-11.1-5.68-11.9a59.71,59.71,0,0,0-8.51-11.89C766,91.54,763,89.07,754.48,83.8c-11-6.76-16.42-10.14-21.29-11.9-11.44-4.12-21.49-3.45-31.22-2.64-14.16,1.17-37.52,3.11-53.92,18.51-15.27,14.34-11.74,28.37-25.54,33.05-8.52,2.88-11.7-1.84-28.39-2.65-7.7-.37-26.26-1.27-42.57,7.93-14.83,8.37-23.36,22.6-31.22,35.7l-7.09,11.89h0c-5.22-1.18-22.73-4.5-41.15,4-27.24,12.52-32.21,39.67-32.64,42.3-.21,1.25-4.5,30.68,18.45,50.23,2.81,2.4,20.39,16.89,41.15,14.54,11.75-1.32,19.06-7.43,29.8-4,7.06,2.28,10.84,7.17,12.77,9.25,7.67,8.28,26.08,15.39,73.79,9.26"/>
  </g>
</svg>
