<svg xmlns="http://www.w3.org/2000/svg" width="1921" height="1084.3" viewBox="0 0 1921 1084.3">
  <defs>
    <style>
      .cls-1 {
        fill: #00b936;
      }

      .cls-2, .cls-4 {
        fill: #6cd5d6;
      }

      .cls-3 {
        fill: #fff;
      }

      .cls-4 {
        stroke: #000;
        stroke-miterlimit: 10;
      }

      .cls-5 {
        fill: #b0bc84;
      }

      .cls-6 {
        fill: #d5ddb6;
      }

      .cls-7 {
        fill: #d33129;
        opacity: 0.15;
      }

      .cls-8 {
        fill: #926130;
      }

      .cls-9 {
        fill: #663606;
      }

      .cls-10 {
        fill: #ff6fac;
      }
    </style>
  </defs>
  <g id="Layer_1" data-name="Layer 1">
    <path class="cls-1" d="M1921.28,1080.8H.28V882.3h1921Z"/>
    <path class="cls-2" d="M1921,882.3H0V0H1921Z"/>
    <path class="cls-3" d="M568.13,187.3h0a42.68,42.68,0,0,0,15,12,43.78,43.78,0,0,0,15,4c5.17.45,16.25,1.4,25-5,5.86-4.29,8.43-10.23,18-17a11.8,11.8,0,0,1,4-2c6-1.53,9.52,3.43,16,5,7.2,1.76,13.76-1.7,20-5a45,45,0,0,0,15-13c2.63-3.58,4-6.63,6-11,2.85-6.27,4.53-10,5-15,.16-1.69,0-2-2-15-1.53-9.77-1.83-12-3-16a38.32,38.32,0,0,0-4-10,35,35,0,0,0-8-9,33.57,33.57,0,0,0-12-7c-5.51-1.69-6.47-.12-9-2-2.22-1.64-2-3.22-6-13-.35-.84-1.23-2.89-3-7-3.25-7.55-3.68-8.39-4-9a45.38,45.38,0,0,0-6-9c-1.88-2.14-4-4-10-8-7.71-5.11-11.57-7.67-15-9-8.06-3.12-15.15-2.61-22-2-10,.89-26.45,2.36-38,14-10.76,10.85-8.27,21.47-18,25-6,2.19-8.24-1.39-20-2-5.43-.28-18.51-1-30,6-10.45,6.34-16.47,17.1-22,27l-5,9h0a43.38,43.38,0,0,0-29,3c-19.2,9.48-22.7,30-23,32-.14.95-3.17,23.21,13,38,2,1.81,14.37,12.78,29,11,8.28-1,13.43-5.62,21-3,5,1.73,7.64,5.43,9,7,5.4,6.27,18.38,11.64,52,7"/>
    <path class="cls-3" d="M171.13,210.3h0a42.68,42.68,0,0,0,15,12,43.78,43.78,0,0,0,15,4c5.17.45,16.25,1.4,25-5,5.86-4.29,8.43-10.23,18-17a11.8,11.8,0,0,1,4-2c6-1.53,9.52,3.43,16,5,7.2,1.76,13.76-1.7,20-5a45,45,0,0,0,15-13c2.63-3.58,4-6.63,6-11,2.85-6.27,4.53-10,5-15,.16-1.69,0-2-2-15-1.53-9.77-1.83-12-3-16a38.32,38.32,0,0,0-4-10,35,35,0,0,0-8-9,33.57,33.57,0,0,0-12-7c-5.51-1.69-6.47-.12-9-2-2.22-1.64-2-3.22-6-13-.35-.84-1.23-2.89-3-7-3.25-7.55-3.68-8.39-4-9a45.38,45.38,0,0,0-6-9c-1.88-2.14-4-4-10-8-7.71-5.11-11.57-7.67-15-9-8.06-3.12-15.15-2.61-22-2-10,.89-26.45,2.36-38,14-10.76,10.85-8.27,21.47-18,25-6,2.19-8.24-1.39-20-2-5.43-.28-18.51-1-30,6-10.45,6.34-16.47,17.1-22,27l-5,9h0a43.38,43.38,0,0,0-29,3c-19.2,9.48-22.7,30-23,32-.14.95-3.17,23.21,13,38,2,1.81,14.37,12.78,29,11,8.28-1,13.43-5.62,21-3,5,1.73,7.64,5.43,9,7,5.4,6.27,18.38,11.64,52,7"/>
    <path class="cls-4" d="M379.28,833.27c-6.41-21.13-10.89-39.11-14-52.63-11-48.25-9.9-65.2-41.59-79.56-6.46-2.93-47.46-20.78-81.65-12.75-54.86,12.89-53.95,83.47-53.69,92.52"/>
    <path class="cls-5" d="M85.78,799.3a112.24,112.24,0,0,0,3.82,16.89c1,3.37,5.52,17.43,19.83,38.6,12.3,18.21,18.46,27.31,31.27,35.58,8,5.16,17.38,9.33,29.75,12.67,59.43,16.06,250.56-7.81,188.42-.6a108,108,0,0,0,26.7-10.26c26.53-14.69,36.72-36.93,45.77-56.69a167.07,167.07,0,0,0,11.44-34.38Z"/>
    <path class="cls-6" d="M123.81,809c64.57,7.38,96.85,11.07,102.1,11.32,41,1.94,61.47,2.91,90.92,2.13a412.63,412.63,0,0,0,105.83-17.69c16.23-5,20-7.26,20.12-9.91.49-12.17-76.9-26-132.65-30.43,0,0-74.73-6.55-132.66,3.54-22.84,4-48.44,10.61-48.44,10.61A76,76,0,0,0,99.22,787c-6.21,3.29-13.89,7.37-13.42,11.32C86.55,804.59,107.2,807.07,123.81,809Z"/>
    <path class="cls-1" d="M1757.26,889.72c-4.7-12.76-12.21-26.79-24-29-23.68-4.45-39.08,43.66-70,42-18.53-1-36.48-19.55-41-37-3.91-15.11,2.64-27.91,0-29-5.52-2.28-21.46,59.44-51,64-35.66,5.5-72.47-75.26-88-68-10.45,4.89,4.43,42.36-9,51-20,12.86-72.87-57.47-103-44-13.68,6.12-17.82,27.37-19,46"/>
    <path class="cls-1" d="M427.64,911.82c-4.71-12.75-12.22-26.78-24-29-23.69-4.44-39.09,43.66-70,42-18.54-1-36.48-19.55-41-37-3.91-15.11,2.63-27.91,0-29-5.52-2.28-21.47,59.45-51,64-35.67,5.5-72.47-75.26-88-68-10.46,4.89,4.42,42.37-9,51-20,12.86-72.88-57.46-103-44-13.69,6.12-17.83,27.37-19,46"/>
    <rect class="cls-7" x="20.52" y="962.77" width="230" height="110"/>
    <path class="cls-8" d="M28.53,1052.17c22,20.75,44.21,18.8,50.53,5.71,7.64-15.82-3.64-56.65-20.85-58.16-11.81-1-25.81,16.49-28.07,43.33"/>
    <path class="cls-9" d="M55.23,1030.12c-.09,7.16,2.33,12.18,4.26,12.32s4.89-4.72,5.1-12.32"/>
    <ellipse class="cls-10" cx="60.32" cy="1019.9" rx="1.33" ry="1.69"/>
    <ellipse class="cls-10" cx="50.88" cy="1019.9" rx="1.32" ry="1.69"/>
    <path d="M49.52,1022.81c1.53-1.37,10.06-.25,10.46,1.27.28,1.07-3.29,3.26-7,2.52C49.92,1026,48.54,1023.68,49.52,1022.81Z"/>
    <path class="cls-1" d="M32.68,1007.53c41.55,6.5,53.17.86,55-6.57,2.63-10.85-12.66-38-31.37-34.28-11.16,2.21-20.56,14.8-23.33,31.63"/>
    <ellipse class="cls-3" cx="67.12" cy="990.7" rx="2.7" ry="2.28"/>
    <ellipse class="cls-3" cx="46.58" cy="995.25" rx="2.7" ry="2.28"/>
    <ellipse class="cls-3" cx="51.99" cy="983.11" rx="2.7" ry="2.28"/>
    <ellipse class="cls-3" cx="59.55" cy="998.29" rx="2.7" ry="2.28"/>
    <ellipse class="cls-3" cx="69.28" cy="978.55" rx="2.7" ry="2.28"/>
    <ellipse class="cls-3" cx="77.93" cy="996.77" rx="2.7" ry="2.28"/>
    <ellipse class="cls-3" cx="42.26" cy="983.11" rx="2.7" ry="2.28"/>
    <ellipse class="cls-3" cx="51.99" cy="999.8" rx="2.7" ry="2.28"/>
    <ellipse cx="59.57" cy="1014.5" rx="0.64" ry="1.97"/>
    <ellipse cx="52.26" cy="1014.52" rx="0.52" ry="1.85"/>
    <path class="cls-3" d="M863.51,330h0a42.49,42.49,0,0,0,15,12,43.71,43.71,0,0,0,15,4c5.16.45,16.25,1.4,25-5,5.86-4.29,8.42-10.24,18-17a11.45,11.45,0,0,1,4-2c6-1.53,9.51,3.42,16,5,7.2,1.75,13.75-1.7,20-5a45,45,0,0,0,15-13,56.33,56.33,0,0,0,6-11c2.85-6.28,4.53-10,5-15,.15-1.69,0-2-2-15-1.53-9.78-1.84-12-3-16a38.53,38.53,0,0,0-4-10,34.83,34.83,0,0,0-8-9,33.52,33.52,0,0,0-12-7c-5.52-1.69-6.48-.12-9-2-2.22-1.64-2-3.23-6-13-.35-.84-1.24-2.89-3-7-3.26-7.55-3.69-8.4-4-9a45.55,45.55,0,0,0-6-9c-1.89-2.14-4-4-10-8-7.72-5.11-11.57-7.67-15-9-8.06-3.12-15.15-2.61-22-2-10,.89-26.45,2.35-38,14-10.77,10.85-8.28,21.46-18,25-6,2.18-8.25-1.39-20-2-5.43-.28-18.51-1-30,6-10.46,6.33-16.47,17.1-22,27-.48.85-5,9-5,9h0a43.31,43.31,0,0,0-29,3c-19.2,9.48-22.7,30-23,32-.15.94-3.17,23.21,13,38,2,1.81,14.37,12.78,29,11,8.28-1,13.43-5.62,21-3,5,1.73,7.63,5.42,9,7,5.4,6.26,18.37,11.64,52,7"/>
    <path class="cls-3" d="M375,353.5h0a42.9,42.9,0,0,0,15,12,44.27,44.27,0,0,0,15,4c5.17.44,16.25,1.4,25-5,5.87-4.29,8.43-10.24,18-17a11.45,11.45,0,0,1,4-2c6-1.53,9.52,3.42,16,5,7.21,1.75,13.76-1.71,20-5a45.15,45.15,0,0,0,15-13,55.58,55.58,0,0,0,6-11c2.86-6.28,4.54-10,5-15,.16-1.7,0-2-2-15-1.52-9.78-1.83-12-3-16a37.71,37.71,0,0,0-4-10,34.64,34.64,0,0,0-8-9,33.19,33.19,0,0,0-12-7c-5.51-1.7-6.47-.13-9-2-2.21-1.65-2-3.23-6-13-.34-.85-1.23-2.9-3-7-3.25-7.55-3.68-8.4-4-9a44.65,44.65,0,0,0-6-9c-1.88-2.15-4-4-10-8-7.71-5.12-11.57-7.67-15-9-8.06-3.13-15.14-2.61-22-2-10,.88-26.44,2.35-38,14-10.76,10.84-8.27,21.46-18,25-6,2.18-8.24-1.39-20-2-5.43-.29-18.51-1-30,6-10.45,6.33-16.46,17.09-22,27l-5,9h0a43.25,43.25,0,0,0-29,3c-19.19,9.47-22.69,30-23,32-.14.94-3.16,23.2,13,38,2,1.81,14.38,12.77,29,11,8.29-1,13.43-5.63,21-3,5,1.72,7.64,5.42,9,7,5.41,6.26,18.38,11.63,52,7"/>
  </g>
</svg>
