<svg xmlns="http://www.w3.org/2000/svg" width="320" height="130" viewBox="0 0 320 130">
  <defs>
    <style>
      .cls-1 {
        fill: #f47c7d;
        stroke: #000;
        stroke-miterlimit: 10;
      }

      .cls-2 {
        fill: #459645;
      }
    </style>
  </defs>
  <g id="Layer_1" data-name="Layer 1">
    <g>
      <ellipse class="cls-1" cx="160" cy="65" rx="160" ry="65"/>
      <g>
        <path class="cls-2" d="M79.67,61.81a3.33,3.33,0,0,0,.7.44A10.94,10.94,0,0,1,82,63.46a19.58,19.58,0,0,1,2.11,2.19A15.86,15.86,0,0,1,86.19,69a22.24,22.24,0,0,1,1.59,4.64,26.76,26.76,0,0,1,.63,6.11,40.9,40.9,0,0,1-.27,4.53,14,14,0,0,1-1.22,4.35,10.28,10.28,0,0,1-2.22,3.07,8.74,8.74,0,0,1-2.93,1.79,9.65,9.65,0,0,1-3.33.59,10.81,10.81,0,0,1-3.69-.66,11.43,11.43,0,0,1-3.42-1.94,12.45,12.45,0,0,1-2.77-3.18,13.74,13.74,0,0,1-1.72-4.39c-.09-.48-.17-1-.23-1.42A11.09,11.09,0,0,1,66.52,81a12.56,12.56,0,0,1,.34-3,10.62,10.62,0,0,1,1-2.56,5.38,5.38,0,0,1,1.52-1.79,3.38,3.38,0,0,1,2-.66,4.59,4.59,0,0,1,1.75.4,8.71,8.71,0,0,1,2,1.28,33.8,33.8,0,0,1-4.33-5A27.44,27.44,0,0,1,68,64.85,20.22,20.22,0,0,1,66.57,60a19.13,19.13,0,0,1-.18-4.64,21.37,21.37,0,0,1,1.17-5.52,16.43,16.43,0,0,1,2.25-4.21,9.7,9.7,0,0,1,3-2.67,6.5,6.5,0,0,1,3.38-.84,12,12,0,0,1,4,1.06,11.42,11.42,0,0,1,3.58,2.56,13.11,13.11,0,0,1,2.52,3.84,12.07,12.07,0,0,1,1,4.83,11.74,11.74,0,0,1-.57,4,6.19,6.19,0,0,1-1.38,2.34,4.3,4.3,0,0,1-1.77,1.1,6.31,6.31,0,0,1-1.81.29A5.75,5.75,0,0,1,80.32,62a4.17,4.17,0,0,0-.65-.14ZM76,46.6A.84.84,0,0,0,76.7,46a3.07,3.07,0,0,0,.2-1.1,2.08,2.08,0,0,0-.23-1,.6.6,0,0,0-.68-.37A8.27,8.27,0,0,0,72.78,45a10.48,10.48,0,0,0-2.63,2.85,14.68,14.68,0,0,0-1.79,4,18.18,18.18,0,0,0-.66,5v1A7.16,7.16,0,0,0,67.79,59a1.34,1.34,0,0,0,.36,1,.6.6,0,0,0,.66.11,1.28,1.28,0,0,0,.59-.62,2.35,2.35,0,0,0,.2-1.21A13.49,13.49,0,0,1,69.85,54a12.37,12.37,0,0,1,1.38-3.51A8.64,8.64,0,0,1,73.41,48,6.87,6.87,0,0,1,76,46.75Zm2.36,1a.67.67,0,0,0,.65-.48,2.48,2.48,0,0,0,.21-1,2.31,2.31,0,0,0-.23-1,.73.73,0,0,0-.68-.48.69.69,0,0,0-.66.48,2.61,2.61,0,0,0-.2,1,2.35,2.35,0,0,0,.23,1A.72.72,0,0,0,78.4,47.63Z"/>
        <path class="cls-2" d="M96.94,42.51a5.65,5.65,0,0,1,1.61-.62,7.81,7.81,0,0,1,1.65-.19A8,8,0,0,1,104.39,43a12.52,12.52,0,0,1,3.67,3.47,18.44,18.44,0,0,1,2.59,5.3,22.16,22.16,0,0,1,1,6.73,29.91,29.91,0,0,1-2,10.2,36.14,36.14,0,0,1-6.69,11c0,.34.08.73.14,1.17s.06.83.09,1.32,0,1,0,1.53a25.94,25.94,0,0,1-.21,3.22,11.73,11.73,0,0,1-.79,3.11,6.64,6.64,0,0,1-1.63,2.38,3.9,3.9,0,0,1-2.72,1,6.11,6.11,0,0,1-1.5-.22,4.87,4.87,0,0,1-2.92-2.56A21.69,21.69,0,0,1,91.31,85,55.35,55.35,0,0,1,90,77.35a83.26,83.26,0,0,1,0-17.29,56.76,56.76,0,0,1,1.36-7.83,26.82,26.82,0,0,1,2.29-6.14A8.44,8.44,0,0,1,96.94,42.51Zm4.94,5a.6.6,0,0,0,.68-.4,2.37,2.37,0,0,0,.22-1,2.58,2.58,0,0,0-.22-1.06.9.9,0,0,0-.68-.59,5.67,5.67,0,0,0-4.83,1.79,15.91,15.91,0,0,0-3.4,5.49,34.81,34.81,0,0,0-2,7.53,47.7,47.7,0,0,0-.59,7.93,1.56,1.56,0,0,0,.32,1.13.92.92,0,0,0,.68.33.8.8,0,0,0,.63-.33A1.8,1.8,0,0,0,93,67.15a42.35,42.35,0,0,1,.48-6.73,31.06,31.06,0,0,1,1.61-6.5,14.11,14.11,0,0,1,2.78-4.76A4.8,4.8,0,0,1,102,47.55Zm-9.16,25a.69.69,0,0,0,.66-.48,2.65,2.65,0,0,0,.2-1,2.18,2.18,0,0,0-.23-1,.71.71,0,0,0-.67-.48A.68.68,0,0,0,92,70a2.45,2.45,0,0,0-.21,1A2.35,2.35,0,0,0,92,72,.73.73,0,0,0,92.72,72.49Z"/>
        <path class="cls-2" d="M120,42.36c.78.1,1.49,1,2.13,2.56a33.33,33.33,0,0,1,1.63,6.25q.67,3.84,1.07,8.63t.38,9.69c0,3.32-.13,6.52-.41,9.62a48.19,48.19,0,0,1-1.31,8,13.83,13.83,0,0,1-2.34,5.15,2.7,2.7,0,0,1-3.46.88,5.8,5.8,0,0,1-2.63-2.41,15.79,15.79,0,0,1-1.77-4.28,35.78,35.78,0,0,1-1-5.63,64.82,64.82,0,0,1-.32-6.54,91.65,91.65,0,0,1,.69-11.08,90.68,90.68,0,0,1,1.79-10.31A37.16,37.16,0,0,1,117,45.32C118,43.35,119,42.36,120,42.36ZM120,48.94a1.78,1.78,0,0,0,.41-1,2.51,2.51,0,0,0-.14-1.1,1.16,1.16,0,0,0-.52-.69c-.22-.12-.46,0-.7.25a14.18,14.18,0,0,0-2.61,4.35,34.21,34.21,0,0,0-1.63,5.6,53.38,53.38,0,0,0-.88,6.14q-.27,3.15-.27,6.07a1.72,1.72,0,0,0,.29,1.13.82.82,0,0,0,1.32,0,1.72,1.72,0,0,0,.29-1.13c0-1.61.07-3.34.2-5.19a48.59,48.59,0,0,1,.71-5.45,28.86,28.86,0,0,1,1.36-5A12.61,12.61,0,0,1,120,49.09Zm-5.44,24.94a.68.68,0,0,0,.66-.48,2.52,2.52,0,0,0,.21-1,2.39,2.39,0,0,0-.23-1,.73.73,0,0,0-.68-.47.7.7,0,0,0-.66.47,2.52,2.52,0,0,0-.2,1,2.37,2.37,0,0,0,.22,1A.73.73,0,0,0,114.52,73.88Z"/>
        <path class="cls-2" d="M138.82,76.36a23,23,0,0,1,5.71-.88c2.42,0,4.15.54,5.21,1.61a5.42,5.42,0,0,1,1.59,4,9.82,9.82,0,0,1-.86,3.84,12.87,12.87,0,0,1-2.4,3.66,13.08,13.08,0,0,1-3.61,2.7A9.48,9.48,0,0,1,140,92.3a10,10,0,0,1-3.78-.77,14.22,14.22,0,0,1-4-2.52,12,12,0,0,1-2.72-3.58,25.31,25.31,0,0,1-1.86-4.86,36.39,36.39,0,0,1-1-5.74,61,61,0,0,1-.32-6.22q0-3.06.05-6.14t.27-5.85a47.94,47.94,0,0,1,.7-5.19,16.05,16.05,0,0,1,1.39-4.2,7.58,7.58,0,0,1,2.31-2.82,6.07,6.07,0,0,1,3.44-1.1,2.78,2.78,0,0,1,2.54,1.54,13.33,13.33,0,0,1,1.57,4.2,40.82,40.82,0,0,1,.77,5.89c.13,2.19.2,4.39.2,6.58,0,1.95,0,3.8-.11,5.56s-.16,3.34-.25,4.75c-.12,1.61-.25,3.14-.37,4.61ZM134.2,47.92a1.13,1.13,0,0,0,.59-.77,2.67,2.67,0,0,0,0-1.09,2.08,2.08,0,0,0-.39-1,.54.54,0,0,0-.74-.19,6.61,6.61,0,0,0-3.22,3.15,22.91,22.91,0,0,0-2,5.37,43.46,43.46,0,0,0-1.11,6.36,58.89,58.89,0,0,0-.34,6,1.76,1.76,0,0,0,.29,1.14.82.82,0,0,0,1.32,0,1.76,1.76,0,0,0,.29-1.14c0-1.46.08-3.13.25-5a42.57,42.57,0,0,1,.86-5.48,20.63,20.63,0,0,1,1.64-4.71,5.22,5.22,0,0,1,2.6-2.71Zm-6.12,23.84a.67.67,0,0,0,.65-.48,2.52,2.52,0,0,0,.21-1,2.39,2.39,0,0,0-.23-1,.73.73,0,0,0-.68-.47.7.7,0,0,0-.66.47,2.7,2.7,0,0,0-.2,1,2.24,2.24,0,0,0,.23,1A.72.72,0,0,0,128.08,71.76Z"/>
        <path class="cls-2" d="M174.13,42.36c.78.1,1.5,1,2.13,2.56a33.33,33.33,0,0,1,1.63,6.25c.46,2.56.81,5.44,1.07,8.63s.38,6.42.38,9.69-.13,6.52-.41,9.62a48.19,48.19,0,0,1-1.31,8,14,14,0,0,1-2.33,5.15,2.72,2.72,0,0,1-3.47.88,5.8,5.8,0,0,1-2.63-2.41,15.79,15.79,0,0,1-1.77-4.28,35.78,35.78,0,0,1-1-5.63,64.9,64.9,0,0,1-.31-6.54,91.61,91.61,0,0,1,.68-11.08,90.68,90.68,0,0,1,1.79-10.31,37.16,37.16,0,0,1,2.56-7.61C172.1,43.35,173.1,42.36,174.13,42.36Zm0,6.58a1.71,1.71,0,0,0,.41-1,2.67,2.67,0,0,0-.13-1.1,1.21,1.21,0,0,0-.53-.69c-.22-.12-.46,0-.7.25a14.16,14.16,0,0,0-2.6,4.35,34.21,34.21,0,0,0-1.64,5.6,55.67,55.67,0,0,0-.88,6.14q-.27,3.15-.27,6.07a1.72,1.72,0,0,0,.29,1.13.82.82,0,0,0,1.32,0,1.72,1.72,0,0,0,.29-1.13q0-2.42.21-5.19a48.59,48.59,0,0,1,.7-5.45,28.86,28.86,0,0,1,1.36-5,12.61,12.61,0,0,1,2.17-3.84Zm-5.44,24.94a.68.68,0,0,0,.66-.48,2.52,2.52,0,0,0,.21-1,2.39,2.39,0,0,0-.23-1,.73.73,0,0,0-.68-.47.7.7,0,0,0-.66.47,2.7,2.7,0,0,0-.2,1,2.24,2.24,0,0,0,.23,1A.71.71,0,0,0,168.64,73.88Z"/>
        <path class="cls-2" d="M201.69,61.67c.66.09,1.26.72,1.79,1.86A21.56,21.56,0,0,1,204.86,68a53,53,0,0,1,.91,6.18q.31,3.43.32,7a64.34,64.34,0,0,1-.37,6.91,30.5,30.5,0,0,1-1.11,5.73,8.88,8.88,0,0,1-2,3.66,2.58,2.58,0,0,1-2.9.66A5.05,5.05,0,0,1,197,95.63a14.59,14.59,0,0,1-1.54-4.5c-.58.49-1.17,1-1.79,1.43a3.77,3.77,0,0,1-2,.77,7,7,0,0,1-5.19-1.83A14.48,14.48,0,0,1,183,86.2,31.21,31.21,0,0,1,181,78.48a59.13,59.13,0,0,1-.5-9,50.67,50.67,0,0,1,1.68-12.61,29.17,29.17,0,0,1,3.74-8.52,15.47,15.47,0,0,1,4.91-4.83A10.39,10.39,0,0,1,196,42a7.73,7.73,0,0,1,3,.58,7,7,0,0,1,2.45,1.72A8.6,8.6,0,0,1,203.07,47a10,10,0,0,1,.61,3.59,15.64,15.64,0,0,1-.63,4.16A23.16,23.16,0,0,1,201,59.66a37.33,37.33,0,0,1-3.72,5.41,54.27,54.27,0,0,1-5.6,5.81,15.58,15.58,0,0,1,2.54-.22,11.81,11.81,0,0,1,2.4.22,30.19,30.19,0,0,1,2.29-6.55c.89-1.72,1.82-2.59,2.79-2.59Zm-17.23,6.72a31.89,31.89,0,0,1,.84-7.22,28.58,28.58,0,0,1,2.34-6.57,16.23,16.23,0,0,1,3.51-4.76A6.31,6.31,0,0,1,195.48,48a5,5,0,0,1,.84.08,6.21,6.21,0,0,1,.88.21A.62.62,0,0,0,198,48a2.17,2.17,0,0,0,.38-.95,2.4,2.4,0,0,0-.06-1.07.94.94,0,0,0-.62-.66c-.36-.09-.72-.18-1.08-.25a4.87,4.87,0,0,0-1-.11,7.68,7.68,0,0,0-5.1,2,18.56,18.56,0,0,0-4.14,5.39A32.15,32.15,0,0,0,183.49,60a35.93,35.93,0,0,0-1,8.47,1.76,1.76,0,0,0,.29,1.14.82.82,0,0,0,1.32,0,1.76,1.76,0,0,0,.29-1.14Zm-1,6.44a.69.69,0,0,0,.66-.48,2.65,2.65,0,0,0,.2-1,2.38,2.38,0,0,0-.22-1,.74.74,0,0,0-.68-.47.68.68,0,0,0-.66.47,2.53,2.53,0,0,0-.21,1,2.35,2.35,0,0,0,.23,1A.73.73,0,0,0,183.42,74.83Z"/>
        <path class="cls-2" d="M222.09,76a7.35,7.35,0,0,1,3.9.58,9,9,0,0,1,1.42.92A5,5,0,0,1,228.66,79a8,8,0,0,1,.86,2.23,13.61,13.61,0,0,1,.32,3.14,7.53,7.53,0,0,1-.91,3.51A11.18,11.18,0,0,1,226.57,91a11.84,11.84,0,0,1-3.35,2.19,9.58,9.58,0,0,1-3.9.84,8.74,8.74,0,0,1-4.08-1.06,10.17,10.17,0,0,1-3.69-3.51A22.1,22.1,0,0,1,208.76,83a44.55,44.55,0,0,1-1.41-9.91c0-.68,0-1.34-.06-2s0-1.29,0-2a80.19,80.19,0,0,1,.43-8.18,49.43,49.43,0,0,1,1.36-7.57,25.62,25.62,0,0,1,2.36-6,8.4,8.4,0,0,1,3.47-3.54,14.71,14.71,0,0,1,2.88-1,13,13,0,0,1,3-.36,11.35,11.35,0,0,1,3.15.43,8.06,8.06,0,0,1,2.72,1.39,7.81,7.81,0,0,1,2,2.42,8.77,8.77,0,0,1,1,3.43,16.62,16.62,0,0,1-.11,4.39,8.6,8.6,0,0,1-1,2.85A5.1,5.1,0,0,1,226.91,59a5.49,5.49,0,0,1-1.72.73,7.23,7.23,0,0,1-1.49.18,3.47,3.47,0,0,1-.89-.07h0l1.16.36a5.15,5.15,0,0,1,1.79,1.14,7.5,7.5,0,0,1,1.61,2.37,9.13,9.13,0,0,1,.65,3.95A9.39,9.39,0,0,1,227,72a10.06,10.06,0,0,1-2,2.55,7.19,7.19,0,0,1-2.86,1.54ZM218,48.94a.88.88,0,0,0,.59-.69,2.86,2.86,0,0,0,0-1.13,1.91,1.91,0,0,0-.39-.95.63.63,0,0,0-.75-.22,8.43,8.43,0,0,0-3.71,3A18.81,18.81,0,0,0,211.21,54a32.56,32.56,0,0,0-1.45,6.36,52.37,52.37,0,0,0-.46,6.8c0,1,0,2,.09,3s.16,2,.28,3a1.34,1.34,0,0,0,.4.95.66.66,0,0,0,.66.07,1.28,1.28,0,0,0,.59-.62,2,2,0,0,0,.16-1.21,40.33,40.33,0,0,1-.32-5.34,45.29,45.29,0,0,1,.37-5.77,29.64,29.64,0,0,1,1.17-5.45,16.3,16.3,0,0,1,2.11-4.35,7,7,0,0,1,3.11-2.56Zm2.13-.65a.69.69,0,0,0,.66-.48,2.51,2.51,0,0,0,.2-1,2.38,2.38,0,0,0-.22-1,.73.73,0,0,0-.68-.47.69.69,0,0,0-.66.47,2.52,2.52,0,0,0-.2,1,2.37,2.37,0,0,0,.22,1A.73.73,0,0,0,220.09,48.29Z"/>
        <path class="cls-2" d="M252.91,42.44A4.62,4.62,0,0,1,255.18,45a24.39,24.39,0,0,1,1.58,5.23,55.42,55.42,0,0,1,.93,7.06c.2,2.6.3,5.3.3,8.08,0,3.16-.13,6.3-.39,9.39s-.62,5.91-1.09,8.45a32.12,32.12,0,0,1-1.76,6.36c-.71,1.7-1.52,2.73-2.43,3.07-.3.1-.59.18-.86.25a2.85,2.85,0,0,1-.82.11,4,4,0,0,1-1.92-.47,6.14,6.14,0,0,1-1.63-1.28,10,10,0,0,1-1.34-1.83,16.65,16.65,0,0,1-1-2.12,29,29,0,0,1-1.77-5.7,21.67,21.67,0,0,1-.71,4.31,18.06,18.06,0,0,1-1.42,3.77,10.53,10.53,0,0,1-1.88,2.63,3,3,0,0,1-2.11,1,2.82,2.82,0,0,1-2.11-1.25A11.84,11.84,0,0,1,232.87,88a47.33,47.33,0,0,1-1.31-7.6,114.55,114.55,0,0,1-.5-11.66q0-4,.2-7.87c.14-2.6.36-5,.66-7.27a50.28,50.28,0,0,1,1.14-6,14,14,0,0,1,1.58-4,3.73,3.73,0,0,1,1.07-1.17,2,2,0,0,1,1.06-.36,2.32,2.32,0,0,1,1.68.87,12.94,12.94,0,0,1,1.61,2.27,22.62,22.62,0,0,1,1.49,3.22c.47,1.22.92,2.44,1.34,3.65q1.46,4.47,2.72,10a74.65,74.65,0,0,1,.68-9.94c.18-1.22.42-2.43.7-3.62a17.6,17.6,0,0,1,1.09-3.22A7.81,7.81,0,0,1,249.6,43a2.81,2.81,0,0,1,2-.84,2.43,2.43,0,0,1,.61.08A4.63,4.63,0,0,1,252.91,42.44ZM238,49.67c.24.3.48.38.7.26a1.21,1.21,0,0,0,.53-.69,3,3,0,0,0,.15-1.14A1.71,1.71,0,0,0,239,47a2.8,2.8,0,0,0-1.95-1.24c-.7,0-1.29.49-1.79,1.46A16.79,16.79,0,0,0,234,51a45.43,45.43,0,0,0-.89,5.12c-.22,1.87-.4,3.69-.52,5.44s-.2,3.34-.25,4.76-.06,2.46-.06,3.14a1.67,1.67,0,0,0,.29,1.13.87.87,0,0,0,.66.33.85.85,0,0,0,.65-.33,1.66,1.66,0,0,0,.3-1.13q0-3,.18-6t.54-5.88c.06-.54.17-1.38.32-2.53s.35-2.23.59-3.25a6.55,6.55,0,0,1,1-2.34c.4-.54.86-.49,1.41.14Zm-4.3,25.52a.68.68,0,0,0,.65-.47,2.53,2.53,0,0,0,.21-1,2.38,2.38,0,0,0-.23-1,.73.73,0,0,0-.68-.48.69.69,0,0,0-.66.48,2.69,2.69,0,0,0-.2,1,2.25,2.25,0,0,0,.23,1A.72.72,0,0,0,233.74,75.19Z"/>
      </g>
    </g>
  </g>
</svg>
