<svg xmlns="http://www.w3.org/2000/svg" width="290" height="180" viewBox="0 0 290 180">
  <defs>
    <style>
      .cls-1 {
        fill: #fff;
      }

      .cls-2 {
        fill: red;
      }
    </style>
  </defs>
  <g id="Layer_1" data-name="Layer 1">
    <g>
      <path class="cls-1" d="M150.65,163.65h0a42.66,42.66,0,0,0,15,12,44.12,44.12,0,0,0,15,4c5.18.45,16.29,1.41,25.06-5,5.87-4.3,8.44-10.25,18-17a11.6,11.6,0,0,1,4-2c6-1.53,9.53,3.43,16,5,7.22,1.75,13.79-1.71,20-5a45.07,45.07,0,0,0,15-13,56.21,56.21,0,0,0,6-11c2.86-6.29,4.54-10,5-15,.16-1.7,0-2-2-15-1.53-9.79-1.84-12-3-16a37.93,37.93,0,0,0-4-10,34.55,34.55,0,0,0-8-9,33.45,33.45,0,0,0-12-7c-5.53-1.69-6.49-.12-9-2-2.23-1.65-2-3.23-6-13-.34-.84-1.23-2.9-3-7-3.26-7.55-3.69-8.4-4-9a45.08,45.08,0,0,0-6-9c-1.89-2.14-4-4-10-8-7.73-5.12-11.59-7.68-15-9-8.08-3.12-15.18-2.61-22.05-2-10,.89-26.5,2.36-38.08,14-10.79,10.86-8.29,21.49-18,25-6,2.18-8.26-1.39-20-2-5.44-.28-18.55-1-30.06,6-10.47,6.34-16.5,17.12-22,27l-5,9h0a43.44,43.44,0,0,0-29.06,3C4.13,92,.62,112.6.31,114.6c-.14.94-3.17,23.23,13,38,2,1.81,14.41,12.79,29.07,11,8.3-1,13.46-5.63,21-3,5,1.73,7.66,5.43,9,7,5.42,6.27,18.42,11.65,52.12,7"/>
      <g>
        <path class="cls-2" d="M81.67,99.85a2.92,2.92,0,0,0,.63.36,9.42,9.42,0,0,1,1.46,1A16.72,16.72,0,0,1,85.65,103a12.92,12.92,0,0,1,1.87,2.73,17.74,17.74,0,0,1,1.42,3.81,20,20,0,0,1,.57,5,30.84,30.84,0,0,1-.24,3.71,10.76,10.76,0,0,1-1.1,3.57,8.42,8.42,0,0,1-2,2.52,8,8,0,0,1-2.62,1.47,9.45,9.45,0,0,1-3,.48,10.63,10.63,0,0,1-3.32-.54,11,11,0,0,1-3.07-1.59,10.62,10.62,0,0,1-2.47-2.61,10.85,10.85,0,0,1-1.55-3.6c-.08-.4-.15-.79-.2-1.16a7.5,7.5,0,0,1-.08-1.17,9.75,9.75,0,0,1,.3-2.43,8.24,8.24,0,0,1,.85-2.1,4.41,4.41,0,0,1,1.37-1.47,3.22,3.22,0,0,1,1.83-.54,4.25,4.25,0,0,1,1.56.33,7.32,7.32,0,0,1,1.77,1,28.6,28.6,0,0,1-3.88-4.08,21.28,21.28,0,0,1-2.5-4,14.72,14.72,0,0,1-1.26-4,15.35,15.35,0,0,1-.17-3.81A16.54,16.54,0,0,1,70.81,90a12.84,12.84,0,0,1,2-3.45,8.6,8.6,0,0,1,2.69-2.18,6.09,6.09,0,0,1,3-.69,11.38,11.38,0,0,1,3.63.87,10.45,10.45,0,0,1,3.22,2.09,10.78,10.78,0,0,1,2.25,3.15,9.11,9.11,0,0,1,.86,4,8.93,8.93,0,0,1-.51,3.3A5.11,5.11,0,0,1,86.75,99a4,4,0,0,1-1.59.9,6,6,0,0,1-1.62.24,5.77,5.77,0,0,1-1.29-.12,4.68,4.68,0,0,0-.58-.12ZM78.41,87.37a.74.74,0,0,0,.59-.48,2,2,0,0,0,.19-.89,1.64,1.64,0,0,0-.21-.84.55.55,0,0,0-.61-.3,7.75,7.75,0,0,0-2.88,1.2,8.85,8.85,0,0,0-2.36,2.33,11.71,11.71,0,0,0-1.61,3.33,13.84,13.84,0,0,0-.59,4.11v.84a5.88,5.88,0,0,0,.08.9,1.06,1.06,0,0,0,.33.81.58.58,0,0,0,.59.09,1.12,1.12,0,0,0,.53-.51,1.7,1.7,0,0,0,.18-1,10,10,0,0,1,.22-3.57,9.68,9.68,0,0,1,1.24-2.88,7.48,7.48,0,0,1,2-2,6.52,6.52,0,0,1,2.36-1Zm2.12.84a.61.61,0,0,0,.59-.39A2,2,0,0,0,81.3,87a1.82,1.82,0,0,0-.2-.83.66.66,0,0,0-.61-.39.61.61,0,0,0-.59.39,1.94,1.94,0,0,0-.19.83,1.74,1.74,0,0,0,.21.84A.65.65,0,0,0,80.53,88.21Z"/>
        <path class="cls-2" d="M97.16,84a5.38,5.38,0,0,1,1.44-.51,7.51,7.51,0,0,1,1.48-.15,7.68,7.68,0,0,1,3.76,1,11,11,0,0,1,3.3,2.84,14.75,14.75,0,0,1,2.31,4.35,16.56,16.56,0,0,1,.88,5.52,22.76,22.76,0,0,1-1.77,8.36,29.52,29.52,0,0,1-6,9q0,.42.12,1c0,.32.06.68.09,1.07s0,.82,0,1.26a18.86,18.86,0,0,1-.19,2.64,9.06,9.06,0,0,1-.71,2.55,5.39,5.39,0,0,1-1.46,2,3.68,3.68,0,0,1-2.44.78,5.63,5.63,0,0,1-1.34-.18,4.25,4.25,0,0,1-2.62-2.1,16.67,16.67,0,0,1-1.94-4.59,43.5,43.5,0,0,1-1.18-6.23,63,63,0,0,1,0-14.18A44.13,44.13,0,0,1,92.15,92a20.75,20.75,0,0,1,2.06-5A7.17,7.17,0,0,1,97.16,84Zm4.43,4.07a.55.55,0,0,0,.61-.33,1.86,1.86,0,0,0,.2-.84,2,2,0,0,0-.2-.86.8.8,0,0,0-.61-.48A5.37,5.37,0,0,0,97.26,87a12.94,12.94,0,0,0-3.05,4.5,26.88,26.88,0,0,0-1.77,6.18,36.11,36.11,0,0,0-.53,6.5,1.21,1.21,0,0,0,.29.93.85.85,0,0,0,.6.27.74.74,0,0,0,.57-.27,1.35,1.35,0,0,0,.25-.93,30.85,30.85,0,0,1,.43-5.51,24.21,24.21,0,0,1,1.44-5.34,11.35,11.35,0,0,1,2.5-3.9,4.48,4.48,0,0,1,3.68-1.32ZM93.37,108.6a.61.61,0,0,0,.59-.39,1.85,1.85,0,0,0,.19-.84,1.74,1.74,0,0,0-.21-.84.65.65,0,0,0-.61-.39.62.62,0,0,0-.59.39,2,2,0,0,0-.18.84,1.86,1.86,0,0,0,.2.84A.66.66,0,0,0,93.37,108.6Z"/>
        <path class="cls-2" d="M117.85,83.9c.7.08,1.34.78,1.91,2.1a24.68,24.68,0,0,1,1.46,5.12,68.41,68.41,0,0,1,1,7.08c.23,2.62.35,5.26.35,7.94s-.13,5.35-.37,7.89a35.89,35.89,0,0,1-1.18,6.59,11,11,0,0,1-2.09,4.23,2.57,2.57,0,0,1-3.11.72,5.11,5.11,0,0,1-2.36-2,12.66,12.66,0,0,1-1.59-3.51,27.73,27.73,0,0,1-.89-4.61,48.35,48.35,0,0,1-.29-5.37,73.25,73.25,0,0,1,2.22-17.54,28.19,28.19,0,0,1,2.3-6.23C116,84.71,116.93,83.9,117.85,83.9Zm0,5.39a1.4,1.4,0,0,0,.37-.84,2.08,2.08,0,0,0-.13-.9,1,1,0,0,0-.46-.57.54.54,0,0,0-.63.21,11.41,11.41,0,0,0-2.34,3.57,26.23,26.23,0,0,0-1.47,4.59,41.35,41.35,0,0,0-.79,5c-.16,1.72-.24,3.37-.24,5a1.34,1.34,0,0,0,.26.93.78.78,0,0,0,1.18,0,1.29,1.29,0,0,0,.27-.93c0-1.32.06-2.74.18-4.25a36.43,36.43,0,0,1,.63-4.47,22.59,22.59,0,0,1,1.22-4.08,10,10,0,0,1,2-3.15Zm-4.88,20.45a.61.61,0,0,0,.59-.39,2,2,0,0,0,.18-.84,1.74,1.74,0,0,0-.2-.84.66.66,0,0,0-.61-.39.61.61,0,0,0-.59.39,2,2,0,0,0-.18.84,1.74,1.74,0,0,0,.2.84A.66.66,0,0,0,112.93,109.74Z"/>
        <path class="cls-2" d="M134.72,111.78a22.25,22.25,0,0,1,5.13-.72c2.16,0,3.72.44,4.67,1.32a4.24,4.24,0,0,1,1.42,3.24,7.31,7.31,0,0,1-.77,3.14,10.18,10.18,0,0,1-2.15,3,11.79,11.79,0,0,1-3.24,2.22,9.17,9.17,0,0,1-4,.87,9.84,9.84,0,0,1-3.39-.63,13,13,0,0,1-3.56-2.07,10,10,0,0,1-2.44-2.94,19.34,19.34,0,0,1-1.67-4,27.66,27.66,0,0,1-.93-4.71,45.35,45.35,0,0,1-.29-5.1c0-1.68,0-3.36,0-5s.11-3.28.25-4.8a33,33,0,0,1,.63-4.26,12.18,12.18,0,0,1,1.24-3.45,6.51,6.51,0,0,1,2.07-2.3,5.8,5.8,0,0,1,3.09-.9,2.53,2.53,0,0,1,2.28,1.26,10.58,10.58,0,0,1,1.4,3.44,29.19,29.19,0,0,1,.69,4.83q.18,2.7.18,5.4c0,1.6,0,3.11-.1,4.55s-.14,2.74-.22,3.9q-.17,2-.33,3.78Zm-4.14-23.33a.9.9,0,0,0,.52-.63,1.83,1.83,0,0,0,0-.9,1.59,1.59,0,0,0-.34-.77.51.51,0,0,0-.67-.15,5.7,5.7,0,0,0-2.89,2.57A18,18,0,0,0,125.41,93a33,33,0,0,0-1,5.22,43.42,43.42,0,0,0-.31,4.94,1.29,1.29,0,0,0,.27.93.77.77,0,0,0,1.17,0,1.29,1.29,0,0,0,.27-.93c0-1.2.07-2.56.22-4.1a31.55,31.55,0,0,1,.77-4.5,16.59,16.59,0,0,1,1.47-3.87,4.55,4.55,0,0,1,2.34-2.22ZM125.09,108a.62.62,0,0,0,.59-.39,2,2,0,0,0,.18-.84,1.86,1.86,0,0,0-.2-.84.66.66,0,0,0-.61-.39.61.61,0,0,0-.59.39,2,2,0,0,0-.19.84,1.74,1.74,0,0,0,.21.84A.65.65,0,0,0,125.09,108Z"/>
        <path class="cls-2" d="M166.39,83.9c.71.08,1.35.78,1.91,2.1a25.25,25.25,0,0,1,1.47,5.12,68.57,68.57,0,0,1,.95,7.08c.23,2.62.35,5.26.35,7.94s-.12,5.35-.37,7.89a35.07,35.07,0,0,1-1.18,6.59,10.83,10.83,0,0,1-2.09,4.23,2.56,2.56,0,0,1-3.11.72,5.11,5.11,0,0,1-2.36-2,12.37,12.37,0,0,1-1.58-3.51,26.72,26.72,0,0,1-.9-4.61,48.42,48.42,0,0,1-.28-5.37,73.94,73.94,0,0,1,2.21-17.54,28.7,28.7,0,0,1,2.3-6.23C164.58,84.71,165.47,83.9,166.39,83.9Zm0,5.39a1.4,1.4,0,0,0,.37-.84,1.93,1.93,0,0,0-.12-.9,1.05,1.05,0,0,0-.47-.57q-.3-.14-.63.21a11.41,11.41,0,0,0-2.34,3.57,25.41,25.41,0,0,0-1.46,4.59,39.5,39.5,0,0,0-.79,5c-.17,1.72-.25,3.37-.25,5a1.29,1.29,0,0,0,.27.93.77.77,0,0,0,1.17,0,1.29,1.29,0,0,0,.27-.93c0-1.32.06-2.74.18-4.25a36.43,36.43,0,0,1,.63-4.47,23.42,23.42,0,0,1,1.22-4.08,10.41,10.41,0,0,1,1.95-3.15Zm-4.88,20.45a.6.6,0,0,0,.59-.39,1.85,1.85,0,0,0,.19-.84,1.74,1.74,0,0,0-.21-.84.64.64,0,0,0-.61-.39.62.62,0,0,0-.59.39,2,2,0,0,0-.18.84,1.74,1.74,0,0,0,.21.84A.63.63,0,0,0,161.47,109.74Z"/>
        <path class="cls-2" d="M191.11,99.73c.6.08,1.14.59,1.61,1.52a17.06,17.06,0,0,1,1.24,3.66,40.25,40.25,0,0,1,.81,5.07,56.65,56.65,0,0,1,.29,5.7,47.19,47.19,0,0,1-.33,5.66,24.21,24.21,0,0,1-1,4.71,7.19,7.19,0,0,1-1.77,3,2.47,2.47,0,0,1-2.6.54,4.37,4.37,0,0,1-2.44-2,11.4,11.4,0,0,1-1.39-3.69c-.51.4-1,.79-1.6,1.17a3.56,3.56,0,0,1-1.81.63,6.54,6.54,0,0,1-4.66-1.5,11.93,11.93,0,0,1-3.15-4.35,24.52,24.52,0,0,1-1.75-6.32,43.83,43.83,0,0,1-.44-7.38,38.28,38.28,0,0,1,1.5-10.34,23.22,23.22,0,0,1,3.36-7,13.27,13.27,0,0,1,4.41-4A9.88,9.88,0,0,1,186,83.6a7.45,7.45,0,0,1,2.68.48,6.2,6.2,0,0,1,2.2,1.41,6.84,6.84,0,0,1,1.48,2.24,7.51,7.51,0,0,1,.55,2.94,11.75,11.75,0,0,1-.57,3.42,17.92,17.92,0,0,1-1.85,4,29.27,29.27,0,0,1-3.33,4.43,45.9,45.9,0,0,1-5,4.77,15.6,15.6,0,0,1,2.28-.18,11.9,11.9,0,0,1,2.15.18,23,23,0,0,1,2.05-5.37c.8-1.41,1.64-2.12,2.5-2.12Zm-15.45,5.51a23.69,23.69,0,0,1,.76-5.92,22.31,22.31,0,0,1,2.09-5.39,13.48,13.48,0,0,1,3.15-3.9,5.94,5.94,0,0,1,3.88-1.51,5,5,0,0,1,.76.06,6.33,6.33,0,0,1,.79.18.58.58,0,0,0,.67-.21,1.62,1.62,0,0,0,.34-.78,1.6,1.6,0,0,0-.06-.87.77.77,0,0,0-.54-.54l-1-.21a5.23,5.23,0,0,0-.94-.09A7.26,7.26,0,0,0,181,87.74a15.43,15.43,0,0,0-3.72,4.42,25,25,0,0,0-2.5,6.19,27.07,27.07,0,0,0-.91,7,1.29,1.29,0,0,0,.26.93.78.78,0,0,0,1.18,0,1.34,1.34,0,0,0,.26-.93Zm-.93,5.28a.61.61,0,0,0,.59-.39,2,2,0,0,0,.18-.84,1.86,1.86,0,0,0-.2-.84.66.66,0,0,0-.61-.39.61.61,0,0,0-.59.39,2,2,0,0,0-.18.84,1.74,1.74,0,0,0,.2.84A.65.65,0,0,0,174.73,110.52Z"/>
        <path class="cls-2" d="M209.41,111.48a7.13,7.13,0,0,1,3.5.48,8,8,0,0,1,1.28.75,4.29,4.29,0,0,1,1.11,1.2,6.16,6.16,0,0,1,.78,1.83,10.2,10.2,0,0,1,.28,2.57,5.83,5.83,0,0,1-.81,2.88,9.37,9.37,0,0,1-2.12,2.55,10.83,10.83,0,0,1-3,1.8,9.29,9.29,0,0,1-3.5.69,8.46,8.46,0,0,1-3.66-.87,9,9,0,0,1-3.31-2.88,17.55,17.55,0,0,1-2.5-5.28,33.07,33.07,0,0,1-1.26-8.12c0-.56,0-1.1-.07-1.62s0-1.06,0-1.62a58.06,58.06,0,0,1,.39-6.71,37.12,37.12,0,0,1,1.22-6.21A20.3,20.3,0,0,1,199.83,88a7.27,7.27,0,0,1,3.11-2.9,13.76,13.76,0,0,1,2.59-.84,12.48,12.48,0,0,1,2.7-.3,11,11,0,0,1,2.83.36,7.39,7.39,0,0,1,2.44,1.14,6.61,6.61,0,0,1,1.78,2,6.73,6.73,0,0,1,.88,2.82,12.54,12.54,0,0,1-.1,3.6,6.65,6.65,0,0,1-.92,2.34,4.17,4.17,0,0,1-1.4,1.35,5.16,5.16,0,0,1-1.55.6,6.86,6.86,0,0,1-1.34.15,3.32,3.32,0,0,1-.79-.06h0l1,.3a4.52,4.52,0,0,1,1.6.93,6.27,6.27,0,0,1,1.45,2,6.94,6.94,0,0,1,.59,3.23,7.08,7.08,0,0,1-.92,3.54,8.48,8.48,0,0,1-1.81,2.1,6.75,6.75,0,0,1-2.56,1.26Zm-3.7-22.19a.75.75,0,0,0,.53-.57,2.23,2.23,0,0,0,0-.93,1.56,1.56,0,0,0-.35-.78.61.61,0,0,0-.67-.18,7.54,7.54,0,0,0-3.33,2.46,15.19,15.19,0,0,0-2.28,4.14,24.92,24.92,0,0,0-1.3,5.22,39.09,39.09,0,0,0-.41,5.57c0,.84,0,1.67.08,2.49s.14,1.63.25,2.43a1,1,0,0,0,.36.78.62.62,0,0,0,.59.06,1.08,1.08,0,0,0,.53-.51,1.56,1.56,0,0,0,.15-1,30,30,0,0,1-.29-4.38,34.62,34.62,0,0,1,.33-4.73A21.81,21.81,0,0,1,201,94.9a12.85,12.85,0,0,1,1.89-3.57,6.23,6.23,0,0,1,2.79-2.1Zm1.91-.54a.61.61,0,0,0,.59-.39,2,2,0,0,0,.18-.84,1.89,1.89,0,0,0-.2-.84.67.67,0,0,0-.61-.39.63.63,0,0,0-.59.39,2,2,0,0,0-.18.84,1.74,1.74,0,0,0,.2.84A.66.66,0,0,0,207.62,88.75Z"/>
        <path class="cls-2" d="M237.06,84a4,4,0,0,1,2,2.12,18.71,18.71,0,0,1,1.42,4.29,44.13,44.13,0,0,1,.84,5.79q.26,3.21.26,6.62,0,3.9-.35,7.71a64.13,64.13,0,0,1-1,6.92,24.21,24.21,0,0,1-1.59,5.22,4.31,4.31,0,0,1-2.17,2.52l-.77.21a3.12,3.12,0,0,1-.74.09,3.81,3.81,0,0,1-1.72-.39,5.67,5.67,0,0,1-1.47-1,8.06,8.06,0,0,1-1.2-1.5,14.53,14.53,0,0,1-.93-1.74,23,23,0,0,1-1.59-4.67,16.46,16.46,0,0,1-.63,3.53,14.06,14.06,0,0,1-1.28,3.09,8.37,8.37,0,0,1-1.69,2.16,2.84,2.84,0,0,1-1.89.81,2.58,2.58,0,0,1-1.89-1,9.18,9.18,0,0,1-1.64-3.39,35.76,35.76,0,0,1-1.18-6.23,85,85,0,0,1-.45-9.57c0-2.16.06-4.3.18-6.44s.32-4.13.59-6a38.48,38.48,0,0,1,1-4.92,10.92,10.92,0,0,1,1.42-3.29,3.12,3.12,0,0,1,1-1,1.88,1.88,0,0,1,1-.3,2.16,2.16,0,0,1,1.51.72,10.27,10.27,0,0,1,1.44,1.86,18.9,18.9,0,0,1,1.34,2.63q.63,1.5,1.2,3,1.31,3.66,2.44,8.22a56.15,56.15,0,0,1,.61-8.16,30.15,30.15,0,0,1,.63-3,12.86,12.86,0,0,1,1-2.63,6.06,6.06,0,0,1,1.36-1.86,2.64,2.64,0,0,1,1.83-.69,2.51,2.51,0,0,1,.55.06A5.34,5.34,0,0,1,237.06,84Zm-13.34,5.93q.33.36.63.21a1,1,0,0,0,.47-.57,2.33,2.33,0,0,0,.14-.93,1.35,1.35,0,0,0-.34-.87,2.57,2.57,0,0,0-1.75-1,1.93,1.93,0,0,0-1.61,1.2A13.2,13.2,0,0,0,220.1,91a35.84,35.84,0,0,0-.79,4.2c-.2,1.54-.36,3-.47,4.47s-.18,2.74-.22,3.89-.06,2-.06,2.58a1.34,1.34,0,0,0,.26.93.78.78,0,0,0,1.18,0,1.29,1.29,0,0,0,.26-.93c0-1.64.06-3.27.17-4.89s.27-3.22.49-4.82c.05-.44.14-1.13.28-2.07a25.22,25.22,0,0,1,.53-2.67,5.22,5.22,0,0,1,.85-1.92q.53-.66,1.26.12Zm-3.86,20.93a.61.61,0,0,0,.59-.39,2,2,0,0,0,.18-.84,1.86,1.86,0,0,0-.2-.84.66.66,0,0,0-.61-.39.61.61,0,0,0-.59.39,2,2,0,0,0-.18.84,1.74,1.74,0,0,0,.2.84A.65.65,0,0,0,219.86,110.82Z"/>
      </g>
    </g>
  </g>
</svg>
