<svg xmlns="http://www.w3.org/2000/svg" width="460" height="406.25" viewBox="0 0 460 406.25">
  <defs>
    <style>
      .cls-1 {
        fill: #603813;
      }

      .cls-2 {
        fill: #a67c52;
      }

      .cls-3 {
        fill: #009245;
      }
    </style>
  </defs>
  <g id="Layer_1" data-name="Layer 1">
    <g>
      <rect class="cls-1" y="86.59" width="460" height="173.41"/>
      <g>
        <path class="cls-2" d="M130.65,173a10.42,10.42,0,0,0,1.76.59,32.18,32.18,0,0,1,4.11,1.62,45.89,45.89,0,0,1,5.3,2.95,25.9,25.9,0,0,1,5.25,4.46,23.31,23.31,0,0,1,4,6.24,19.85,19.85,0,0,1,1.6,8.19,30,30,0,0,1-.68,6.09A13.14,13.14,0,0,1,148.9,209a18.75,18.75,0,0,1-5.59,4.12,29.3,29.3,0,0,1-7.36,2.4,43.39,43.39,0,0,1-8.38.79,49.33,49.33,0,0,1-9.3-.89,40.53,40.53,0,0,1-8.61-2.6,26.55,26.55,0,0,1-7-4.27,15.51,15.51,0,0,1-4.33-5.88q-.34-1-.57-1.92a8.12,8.12,0,0,1-.23-1.91,9.67,9.67,0,0,1,.86-4,11.35,11.35,0,0,1,2.39-3.43,11,11,0,0,1,3.82-2.41,14.1,14.1,0,0,1,5.14-.88,19.62,19.62,0,0,1,4.39.54,27,27,0,0,1,5,1.72,73,73,0,0,1-10.89-6.68,39.36,39.36,0,0,1-7-6.62,18.61,18.61,0,0,1-3.53-6.48,14.61,14.61,0,0,1-.46-6.23,17.9,17.9,0,0,1,3-7.41,22.6,22.6,0,0,1,5.64-5.65,25.65,25.65,0,0,1,7.53-3.58,27.76,27.76,0,0,1,8.5-1.13,51.46,51.46,0,0,1,10.2,1.43,34.9,34.9,0,0,1,9,3.43,21.57,21.57,0,0,1,6.33,5.15,10.05,10.05,0,0,1,2.4,6.48,9.3,9.3,0,0,1-1.43,5.4,9.73,9.73,0,0,1-3.48,3.14,14.42,14.42,0,0,1-4.44,1.47,28.55,28.55,0,0,1-4.57.4,27.19,27.19,0,0,1-3.59-.2c-1-.13-1.5-.2-1.65-.2Zm-9.13-20.41a2.18,2.18,0,0,0,1.66-.79,2.39,2.39,0,0,0,.51-1.47,1.91,1.91,0,0,0-.57-1.37,2,2,0,0,0-1.71-.49,32.23,32.23,0,0,0-8.1,2,24,24,0,0,0-6.61,3.83,17.87,17.87,0,0,0-4.51,5.45,14,14,0,0,0-1.65,6.72v1.37a5.09,5.09,0,0,0,.23,1.48,1.5,1.5,0,0,0,.91,1.32,2.59,2.59,0,0,0,1.65.15,2.9,2.9,0,0,0,1.48-.84,1.89,1.89,0,0,0,.52-1.62,9.85,9.85,0,0,1,.62-5.84,13.57,13.57,0,0,1,3.48-4.71,18.89,18.89,0,0,1,5.48-3.29,26,26,0,0,1,6.61-1.66Zm5.93,1.37a2,2,0,0,0,1.66-.63,2.19,2.19,0,0,0,.51-1.38,2,2,0,0,0-.57-1.37,2.16,2.16,0,0,0-1.71-.64,2,2,0,0,0-1.65.64,2.1,2.1,0,0,0-.52,1.37,2.05,2.05,0,0,0,.57,1.38A2.19,2.19,0,0,0,127.45,153.94Z"/>
        <path class="cls-2" d="M152.89,161.6a9.87,9.87,0,0,1,2.91-6.82,21.74,21.74,0,0,1,7.29-4.81,44.74,44.74,0,0,1,10.16-2.85,70.32,70.32,0,0,1,11.46-.93,65.73,65.73,0,0,1,10.55.83,40.83,40.83,0,0,1,8.89,2.41,16.21,16.21,0,0,1,5.93,3.88,5.9,5.9,0,0,1,1.54,5.34,10.57,10.57,0,0,1-3.36,5.6,38.84,38.84,0,0,1-5.87,4.61,52.24,52.24,0,0,1-8.1,4.22c1.06,2.69,2,5.43,2.85,8.25a82.66,82.66,0,0,1,2.05,8.09,44.22,44.22,0,0,1,.92,8.89,30.47,30.47,0,0,1-.46,5.3,15.26,15.26,0,0,1-1.66,4.71,12.59,12.59,0,0,1-3.13,3.73,11.91,11.91,0,0,1-4.79,2.26,16.48,16.48,0,0,1-3.14.63c-1,.1-2,.15-3,.15q-7.64,0-11.86-5.3t-4.22-14.53a49.82,49.82,0,0,1,1.2-10.4,69.56,69.56,0,0,1,3.82-12,48.88,48.88,0,0,1-10-1.67,30.83,30.83,0,0,1-3.71-1.38,14.66,14.66,0,0,1-3.19-1.91,8.4,8.4,0,0,1-2.22-2.6,7,7,0,0,1-.8-3.44Zm27.26-8.54a1.91,1.91,0,0,0,1.71-.54,2,2,0,0,0,.57-1.37,2.23,2.23,0,0,0-.57-1.43,2.38,2.38,0,0,0-1.71-.78A41.79,41.79,0,0,0,174,149a31.34,31.34,0,0,0-6.33,1.13,22.35,22.35,0,0,0-5.64,2.45,11.31,11.31,0,0,0-3.94,3.93,7.24,7.24,0,0,0-1.14,3.82,6,6,0,0,0,.92,3.24,8.13,8.13,0,0,0,2.45,2.51,12,12,0,0,0,3.53,1.57,12.29,12.29,0,0,0,4.28.34,2.48,2.48,0,0,0,1.71-.74,2.05,2.05,0,0,0,0-2.84,1.91,1.91,0,0,0-1.71-.54,11.51,11.51,0,0,1-3.65-.2A3.29,3.29,0,0,1,162,161.5a3.41,3.41,0,0,1,.4-3.14,7.43,7.43,0,0,1,2.45-2.35,18.2,18.2,0,0,1,7.3-2.56A42.32,42.32,0,0,1,180.15,153.06Zm6.61-.49a2,2,0,0,0,1.65-.64,2.1,2.1,0,0,0,.52-1.37,2.05,2.05,0,0,0-.57-1.38,2.19,2.19,0,0,0-1.71-.63,2,2,0,0,0-1.66.63,2.19,2.19,0,0,0-.51,1.38,2,2,0,0,0,.57,1.37A2.16,2.16,0,0,0,186.76,152.57Z"/>
        <path class="cls-2" d="M233.3,147.17a15.79,15.79,0,0,1,8.72,2.7,34,34,0,0,1,7.81,7.17,58.19,58.19,0,0,1,6.62,10.2A91.69,91.69,0,0,1,261.52,179a85.4,85.4,0,0,1,3.25,11.88,55.16,55.16,0,0,1,1.14,10.45,22.69,22.69,0,0,1-.74,6.23,7.35,7.35,0,0,1-2.33,3.88,14.3,14.3,0,0,1-4.85,2.65,17.75,17.75,0,0,1-5.19.78,19,19,0,0,1-6.05-1,22.7,22.7,0,0,1-5.59-2.75,25.52,25.52,0,0,1-4.79-4.17,23,23,0,0,1-3.53-5.15,21.82,21.82,0,0,1-2.4,7,16.65,16.65,0,0,1-4.22,4.71,11.06,11.06,0,0,1-7.07,2.16,20.17,20.17,0,0,1-6.27-1.08c-2.66-.92-4.58-2.94-5.76-6.09a32.11,32.11,0,0,1-1.77-11.28,63.45,63.45,0,0,1,1-10.7,77.91,77.91,0,0,1,2.8-11.24,83,83,0,0,1,4.33-10.65,47.28,47.28,0,0,1,5.65-9,28.82,28.82,0,0,1,6.72-6.18,13.83,13.83,0,0,1,7.59-2.31Zm-20,47.11a2,2,0,0,0,1.65-.63,2.19,2.19,0,0,0,.51-1.38,2,2,0,0,0-.57-1.37,2.16,2.16,0,0,0-1.71-.64,2,2,0,0,0-1.65.64,2.14,2.14,0,0,0-.51,1.37,2,2,0,0,0,.57,1.38A2.16,2.16,0,0,0,213.34,194.28Zm20.53-35.82a2.17,2.17,0,0,0,1.71-.64,2.07,2.07,0,0,0,.57-1.42,2.1,2.1,0,0,0-.57-1.43,2.21,2.21,0,0,0-1.71-.63,15.12,15.12,0,0,0-7.25,1.67,18.63,18.63,0,0,0-5.41,4.31,26.13,26.13,0,0,0-3.88,6,50.71,50.71,0,0,0-2.68,6.92,58.63,58.63,0,0,0-1.71,6.92q-.63,3.39-1,6a1.45,1.45,0,0,0,.57,1.47,2.64,2.64,0,0,0,1.6.49,3.22,3.22,0,0,0,1.71-.49,1.91,1.91,0,0,0,.91-1.47c.15-1.38.4-3,.74-4.91s.8-3.86,1.37-5.89a54.32,54.32,0,0,1,2.11-6.09,25.39,25.39,0,0,1,3-5.44,15,15,0,0,1,4.22-3.93A10.52,10.52,0,0,1,233.87,158.46Z"/>
        <path class="cls-2" d="M310.74,185q7.06,3.53,10.15,8.64a19,19,0,0,1,3.08,9.81,13.52,13.52,0,0,1-1.37,6.09,10.38,10.38,0,0,1-3.65,4.22,8.82,8.82,0,0,1-4.79,1.37,12.51,12.51,0,0,1-4.62-1,16.7,16.7,0,0,1-4.91-3.19,29.08,29.08,0,0,1-4.73-5.69,46,46,0,0,1-4.22-8.49c.15.91.29,1.8.4,2.65a19.18,19.18,0,0,1,.17,2.45,15.14,15.14,0,0,1-1.14,6.13,11.64,11.64,0,0,1-3,4.23,13.7,13.7,0,0,1-4.16,2.45,13.47,13.47,0,0,1-4.68.83,8.88,8.88,0,0,1-7.13-3,22.49,22.49,0,0,1-4.45-8,49.88,49.88,0,0,1-2.28-10.75,107.8,107.8,0,0,1-.63-11.48q0-4.32.29-7.95a61.22,61.22,0,0,1,.74-6.09q1.71-9.81,7.59-15.41a22.45,22.45,0,0,1,14.77-6.08,36.56,36.56,0,0,1,12.14,1.32,27,27,0,0,1,9.18,4.62,20.86,20.86,0,0,1,5.76,6.92,17.74,17.74,0,0,1,2,8.14,18.56,18.56,0,0,1-2.51,9.18A23.39,23.39,0,0,1,310.74,185Zm-13.58-30.82a2.44,2.44,0,0,0,1.71-.74,2,2,0,0,0,0-2.84,1.91,1.91,0,0,0-1.71-.54A30.42,30.42,0,0,0,286,152.77a22.27,22.27,0,0,0-7.58,5.88,24.19,24.19,0,0,0-4.39,8.25,35.57,35.57,0,0,0-1.54,9.81,1.62,1.62,0,0,0,.74,1.53,3.18,3.18,0,0,0,1.65.44,3.24,3.24,0,0,0,1.66-.44,1.64,1.64,0,0,0,.74-1.53,30,30,0,0,1,1.08-8.09,20.53,20.53,0,0,1,3.42-7,18.1,18.1,0,0,1,6.05-5.06,23.15,23.15,0,0,1,9.18-2.35ZM276,184.47a2,2,0,0,0,1.65-.64,2.1,2.1,0,0,0,.52-1.37,2.05,2.05,0,0,0-.57-1.38,2.22,2.22,0,0,0-1.71-.64,2,2,0,0,0-1.66.64,2.19,2.19,0,0,0-.51,1.38,2,2,0,0,0,.57,1.37A2.16,2.16,0,0,0,276,184.47Z"/>
        <path class="cls-2" d="M326.93,161.6a9.87,9.87,0,0,1,2.91-6.82,21.69,21.69,0,0,1,7.3-4.81,44.66,44.66,0,0,1,10.15-2.85,70.32,70.32,0,0,1,11.46-.93,65.64,65.64,0,0,1,10.55.83,41.08,41.08,0,0,1,8.9,2.41,16.38,16.38,0,0,1,5.93,3.88,5.92,5.92,0,0,1,1.54,5.34,10.6,10.6,0,0,1-3.37,5.6,38.84,38.84,0,0,1-5.87,4.61,51.79,51.79,0,0,1-8.1,4.22c1.07,2.69,2,5.43,2.85,8.25a82.54,82.54,0,0,1,2.06,8.09,44.94,44.94,0,0,1,.91,8.89,30.47,30.47,0,0,1-.46,5.3,15,15,0,0,1-1.65,4.71,12.78,12.78,0,0,1-3.14,3.73,11.91,11.91,0,0,1-4.79,2.26,16.39,16.39,0,0,1-3.13.63q-1.55.15-3,.15-7.63,0-11.86-5.3t-4.22-14.53a49.82,49.82,0,0,1,1.2-10.4,70.44,70.44,0,0,1,3.82-12,48.88,48.88,0,0,1-10-1.67,30.06,30.06,0,0,1-3.7-1.38,14.73,14.73,0,0,1-3.2-1.91,8.4,8.4,0,0,1-2.22-2.6,7.13,7.13,0,0,1-.8-3.44Zm27.26-8.54a1.91,1.91,0,0,0,1.71-.54,2,2,0,0,0,.57-1.37,2.23,2.23,0,0,0-.57-1.43,2.38,2.38,0,0,0-1.71-.78,41.66,41.66,0,0,0-6.1.05,31.1,31.1,0,0,0-6.33,1.13,22.26,22.26,0,0,0-5.65,2.45,11.2,11.2,0,0,0-3.93,3.93,7.24,7.24,0,0,0-1.14,3.82,6,6,0,0,0,.91,3.24,8.24,8.24,0,0,0,2.45,2.51,12.12,12.12,0,0,0,7.81,1.91,2.48,2.48,0,0,0,1.71-.74,2.05,2.05,0,0,0,0-2.84,1.91,1.91,0,0,0-1.71-.54,11.53,11.53,0,0,1-3.65-.2,3.27,3.27,0,0,1-2.5-2.16,3.41,3.41,0,0,1,.39-3.14,7.46,7.46,0,0,1,2.46-2.35,18.09,18.09,0,0,1,7.3-2.56A42.21,42.21,0,0,1,354.19,153.06Zm6.61-.49a2,2,0,0,0,1.66-.64,2.14,2.14,0,0,0,.51-1.37,2.05,2.05,0,0,0-.57-1.38,2.19,2.19,0,0,0-1.71-.63,2,2,0,0,0-1.65.63,2.14,2.14,0,0,0-.52,1.38,2,2,0,0,0,.57,1.37A2.16,2.16,0,0,0,360.8,152.57Z"/>
      </g>
      <ellipse class="cls-3" cx="45.7" cy="201.58" rx="13.3" ry="28.7" transform="translate(-89.91 45.59) rotate(-28.23)"/>
      <line x1="58.89" y1="227.07" x2="32.52" y2="176.1"/>
      <line x1="58.3" y1="225.93" x2="60.51" y2="201.22"/>
      <line x1="54.2" y1="218.01" x2="56.05" y2="193.32"/>
      <line x1="50.1" y1="210.08" x2="51.67" y2="187.05"/>
      <line x1="46" y1="202.15" x2="47.53" y2="181.93"/>
      <line x1="41.78" y1="193.9" x2="43.97" y2="177.94"/>
      <line x1="53.03" y1="215.74" x2="35.59" y2="211"/>
      <line x1="48.93" y1="207.81" x2="31.49" y2="203.07"/>
      <line x1="46.58" y1="203.28" x2="29.78" y2="196.86"/>
      <line x1="43.07" y1="196.49" x2="28.65" y2="191.79"/>
      <line x1="41.31" y1="193.09" x2="28.15" y2="185.03"/>
      <ellipse class="cls-3" cx="425.1" cy="128.67" rx="13.5" ry="28.29"/>
      <line x1="425.1" y1="155.7" x2="438.6" y2="134.32"/>
      <line x1="425.1" y1="146.9" x2="438.26" y2="125.41"/>
      <line x1="425.1" y1="138.1" x2="437.25" y2="117.98"/>
      <line x1="425.1" y1="129.3" x2="435.9" y2="111.7"/>
      <line x1="425.14" y1="120.16" x2="434.55" y2="106.67"/>
      <line x1="425.1" y1="144.38" x2="411.59" y2="133.07"/>
      <line x1="425.1" y1="135.58" x2="411.59" y2="124.27"/>
      <line x1="425.1" y1="130.55" x2="412.95" y2="117.98"/>
      <line x1="425.1" y1="123.01" x2="414.3" y2="112.95"/>
      <line x1="425.1" y1="119.24" x2="417" y2="106.67"/>
      <ellipse class="cls-3" cx="295.48" cy="138.72" rx="28.71" ry="13.3" transform="translate(32.72 332.4) rotate(-61.54)"/>
      <line x1="282.2" y1="164.16" x2="308.77" y2="113.29"/>
      <line x1="282.79" y1="163.03" x2="304.97" y2="149.31"/>
      <line x1="286.92" y1="155.12" x2="308.85" y2="141.15"/>
      <line x1="291.05" y1="147.2" x2="311.43" y2="134.06"/>
      <line x1="295.19" y1="139.29" x2="313.17" y2="127.86"/>
      <line x1="299.52" y1="131.09" x2="314.31" y2="122.79"/>
      <line x1="288.1" y1="152.86" x2="281.27" y2="137.18"/>
      <line x1="292.23" y1="144.94" x2="285.41" y2="129.27"/>
      <line x1="294.6" y1="140.42" x2="289.57" y2="124.17"/>
      <line x1="298.14" y1="133.64" x2="293.15" y2="120.19"/>
      <line x1="299.91" y1="130.25" x2="298.53" y2="115.64"/>
      <g>
        <path d="M196.48,398.62a9,9,0,0,1,1.51-.14,2.67,2.67,0,0,1,1.38.26.76.76,0,0,1,.42.65,1.14,1.14,0,0,1-.23.63,2.27,2.27,0,0,1-.63.6,4.05,4.05,0,0,1-2.13.62,4.36,4.36,0,0,1-1-.13,4.46,4.46,0,0,1-1.05-.41,2.42,2.42,0,0,1-.72-.59,3.43,3.43,0,0,1-.49-.8,4,4,0,0,1-.28-.94,7,7,0,0,1-.08-1c0-.34,0-.67,0-1a9.62,9.62,0,0,1,.07-1,4.4,4.4,0,0,1,.19-.85,2,2,0,0,1,.36-.69,1.6,1.6,0,0,1,.62-.46,2.2,2.2,0,0,1,.91-.18.85.85,0,0,1,.67.25,1.74,1.74,0,0,1,.41.69,4.38,4.38,0,0,1,.21,1c0,.37.05.73.05,1.08s0,.63,0,.92,0,.54-.06.78-.07.51-.1.75ZM195.25,394a.21.21,0,0,0,.16-.12.28.28,0,0,0,0-.18.31.31,0,0,0-.1-.16.22.22,0,0,0-.2,0,1.63,1.63,0,0,0-.85.52,3.25,3.25,0,0,0-.54.88,4.58,4.58,0,0,0-.29,1,6.26,6.26,0,0,0-.09,1,.22.22,0,0,0,.07.19.37.37,0,0,0,.18.05.34.34,0,0,0,.17-.05.23.23,0,0,0,.08-.19,5.13,5.13,0,0,1,.07-.82,4.55,4.55,0,0,1,.22-.9,2.76,2.76,0,0,1,.44-.77,1.23,1.23,0,0,1,.69-.45Zm-1.62,3.91a.21.21,0,0,0,.18-.07.37.37,0,0,0,.05-.17.27.27,0,0,0-.06-.17.22.22,0,0,0-.18-.08.19.19,0,0,0-.17.08.27.27,0,0,0-.06.17.29.29,0,0,0,.06.17A.21.21,0,0,0,193.63,397.86Z"/>
        <path d="M202.72,395.56a2.38,2.38,0,0,1,1,.23,2.55,2.55,0,0,1,.83.62,3,3,0,0,1,.57.92,3.07,3.07,0,0,1,0,2.23,3.12,3.12,0,0,1-.57.91,2.67,2.67,0,0,1-.83.61,2.38,2.38,0,0,1-2,0,2.83,2.83,0,0,1-.84-.61,2.92,2.92,0,0,1-.57-.91,3.21,3.21,0,0,1,0-2.23,2.86,2.86,0,0,1,.57-.92,2.7,2.7,0,0,1,.84-.62A2.38,2.38,0,0,1,202.72,395.56Zm-.34.76a.15.15,0,0,0,.13-.09.18.18,0,0,0,0-.14.26.26,0,0,0-.08-.13.23.23,0,0,0-.16,0,1.76,1.76,0,0,0-.75.29,2.3,2.3,0,0,0-.9,1.29,2.77,2.77,0,0,0-.12.8,1.09,1.09,0,0,0,0,.18,1.37,1.37,0,0,0,0,.19.13.13,0,0,0,.08.13.18.18,0,0,0,.14,0,.22.22,0,0,0,.13-.09.17.17,0,0,0,0-.16,2,2,0,0,1,0-.73,2,2,0,0,1,.27-.7,1.94,1.94,0,0,1,.49-.54,1.43,1.43,0,0,1,.67-.28ZM201,399.45a.15.15,0,0,0,.14-.07.24.24,0,0,0,.05-.13.24.24,0,0,0-.05-.14A.15.15,0,0,0,201,399a.18.18,0,0,0-.15.07.19.19,0,0,0-.05.14.2.2,0,0,0,.2.2Z"/>
      </g>
    </g>
  </g>
</svg>
