<svg xmlns="http://www.w3.org/2000/svg" width="170" height="240" viewBox="0 0 170 240">
  <defs>
    <style>
      .cls-1 {
        fill: #fff;
      }

      .cls-2 {
        fill: #926130;
      }

      .cls-3 {
        fill: #00b936;
      }

      .cls-4 {
        fill: #663606;
      }

      .cls-5 {
        fill: #ff6fac;
      }
    </style>
  </defs>
  <g id="Layer_1" data-name="Layer 1">
    <ellipse class="cls-1" cx="88.03" cy="18.27" rx="7.86" ry="5.12"/>
    <g>
      <path class="cls-2" d="M0,204.54c64.09,47.22,128.55,42.78,146.93,13,22.2-36-10.58-128.94-60.64-132.39-34.35-2.36-75,37.54-81.63,98.64"/>
      <path class="cls-3" d="M9.31,93.77c120.81,14.79,154.59,2,159.83-15,7.65-24.7-36.8-86.45-91.2-78-32.46,5-59.81,33.69-67.85,72"/>
      <ellipse class="cls-1" cx="116.32" cy="61.91" rx="7.86" ry="5.18"/>
      <ellipse class="cls-1" cx="56.6" cy="72.28" rx="7.86" ry="5.18"/>
      <ellipse class="cls-1" cx="72.32" cy="44.63" rx="7.86" ry="5.18"/>
      <ellipse class="cls-1" cx="94.32" cy="79.19" rx="7.86" ry="5.18"/>
      <ellipse class="cls-1" cx="122.61" cy="34.27" rx="7.86" ry="5.18"/>
      <ellipse class="cls-1" cx="147.75" cy="75.73" rx="7.86" ry="5.18"/>
      <ellipse class="cls-1" cx="44.03" cy="44.63" rx="7.86" ry="5.18"/>
      <ellipse class="cls-1" cx="72.32" cy="82.64" rx="7.86" ry="5.18"/>
      <path class="cls-4" d="M92.18,172.54c-.27,16.29,6.76,27.72,12.38,28.05s14.21-10.75,14.81-28"/>
      <circle class="cls-5" cx="101.14" cy="119.7" r="3.86"/>
      <ellipse cx="100.14" cy="106.91" rx="1.86" ry="4.49"/>
      <ellipse cx="61.48" cy="109.22" rx="1.52" ry="4.21"/>
      <ellipse class="cls-5" cx="59.15" cy="119.7" rx="3.85" ry="3.86"/>
      <path d="M66.83,135.42c4.46-3.12,29.26-.58,30.41,2.88.81,2.45-9.55,7.43-20.27,5.75C68,142.65,64,137.41,66.83,135.42Z"/>
    </g>
  </g>
</svg>
