<svg xmlns="http://www.w3.org/2000/svg" width="170" height="240" viewBox="0 0 170 240">
  <defs>
    <style>
      .cls-1 {
        fill: #926130;
      }

      .cls-2 {
        fill: #d10023;
      }

      .cls-3 {
        fill: #fff;
      }

      .cls-4 {
        fill: #663606;
      }
    </style>
  </defs>
  <g id="Layer_1" data-name="Layer 1">
    <g>
      <g>
        <path class="cls-1" d="M0,204.54c64.09,47.22,128.55,42.78,146.93,13,22.2-36-10.58-128.94-60.64-132.39-34.35-2.36-75,37.54-81.63,98.64"/>
        <path class="cls-2" d="M9.31,93.77c120.81,14.79,154.59,2,159.83-15,7.65-24.7-36.8-86.45-91.2-78-32.46,5-59.81,33.69-67.85,72"/>
        <ellipse class="cls-3" cx="116.32" cy="61.91" rx="7.86" ry="5.18"/>
        <ellipse class="cls-3" cx="94.32" cy="79.19" rx="7.86" ry="5.18"/>
        <ellipse class="cls-3" cx="88.03" cy="16.99" rx="7.86" ry="5.18"/>
        <ellipse class="cls-3" cx="136.61" cy="28.19" rx="7.86" ry="5.18"/>
        <polygon points="92.3 119.15 112.05 119.24 104.29 135.03 92.3 119.15"/>
        <path class="cls-4" d="M88.28,159.68c-.26,16.3,6.76,27.73,12.39,28s14.21-10.75,14.81-28"/>
        <polygon points="66.59 143.52 93.21 140.67 80.41 166.74 66.59 143.52"/>
      </g>
      <polygon points="46.78 121.1 66.78 121.21 58.93 141.35 46.78 121.1"/>
      <ellipse class="cls-3" cx="54.6" cy="68.23" rx="7.86" ry="5.18"/>
      <ellipse class="cls-3" cx="70.32" cy="40.58" rx="7.86" ry="5.18"/>
      <ellipse class="cls-3" cx="42.03" cy="40.58" rx="7.86" ry="5.18"/>
      <ellipse class="cls-3" cx="70.32" cy="78.59" rx="7.86" ry="5.18"/>
    </g>
  </g>
</svg>
